<svg xmlns="http://www.w3.org/2000/svg" xmlns:xlink="http://www.w3.org/1999/xlink" viewBox="0 0 4288.54 2590.08"><defs><style>.cls-1{fill:none;}.cls-2{isolation:isolate;}.cls-3{fill:url(#linear-gradient);}.cls-21,.cls-28,.cls-4,.cls-6{mix-blend-mode:screen;}.cls-4{fill:url(#radial-gradient);}.cls-10,.cls-17,.cls-25,.cls-5{mix-blend-mode:hard-light;}.cls-5{fill:url(#radial-gradient-2);}.cls-6{opacity:0.38;fill:url(#linear-gradient-2);}.cls-24,.cls-7{mix-blend-mode:darken;}.cls-7{opacity:0.82;fill:url(#linear-gradient-3);}.cls-8{clip-path:url(#clip-path);}.cls-9{fill:url(#linear-gradient-4);}.cls-10{fill:url(#linear-gradient-5);}.cls-11{clip-path:url(#clip-path-2);}.cls-12{fill:url(#linear-gradient-6);}.cls-13{fill:url(#linear-gradient-7);}.cls-14{fill:url(#linear-gradient-8);}.cls-15{clip-path:url(#clip-path-3);}.cls-16{fill:url(#linear-gradient-9);}.cls-17{fill:url(#linear-gradient-10);}.cls-18{fill:url(#linear-gradient-11);}.cls-19{clip-path:url(#clip-path-4);}.cls-20{fill:url(#linear-gradient-12);}.cls-21{fill:url(#linear-gradient-13);}.cls-22{clip-path:url(#clip-path-5);}.cls-23{fill:url(#linear-gradient-14);}.cls-24{fill:url(#linear-gradient-15);}.cls-25{fill:url(#linear-gradient-16);}.cls-26{clip-path:url(#clip-path-6);}.cls-27{fill:url(#linear-gradient-17);}.cls-28{fill:url(#linear-gradient-18);}.cls-29{mix-blend-mode:overlay;fill:url(#radial-gradient-3);}.cls-30{fill:url(#linear-gradient-19);}.cls-31{fill:url(#linear-gradient-20);}.cls-32{fill:url(#linear-gradient-21);}.cls-33{fill:url(#linear-gradient-22);}.cls-34{fill:url(#linear-gradient-23);}.cls-35{fill:url(#linear-gradient-24);}.cls-36{fill:url(#linear-gradient-25);}.cls-37{fill:url(#linear-gradient-26);}.cls-38{fill:url(#linear-gradient-27);}.cls-39{fill:url(#linear-gradient-28);}.cls-40{fill:url(#linear-gradient-29);}</style><linearGradient id="linear-gradient" x1="2107.17" y1="1814.54" x2="2130.12" y2="231.31" gradientUnits="userSpaceOnUse"><stop offset="0" stop-color="#e19c6e"/><stop offset="0.38" stop-color="#de7471"/><stop offset="1" stop-color="#3d6580"/></linearGradient><radialGradient id="radial-gradient" cx="2113.82" cy="1542.59" r="453.5" gradientTransform="translate(0 1.8)" gradientUnits="userSpaceOnUse"><stop offset="0.34" stop-color="#ffefc7"/><stop offset="0.43" stop-color="#e28448"/><stop offset="0.45" stop-color="#cc7741"/><stop offset="0.52" stop-color="#965830"/><stop offset="0.59" stop-color="#683d21"/><stop offset="0.66" stop-color="#432715"/><stop offset="0.74" stop-color="#26160c"/><stop offset="0.8" stop-color="#110a05"/><stop offset="0.87" stop-color="#040201"/><stop offset="0.94"/></radialGradient><radialGradient id="radial-gradient-2" cx="2113.82" cy="1542.59" r="137.39" gradientTransform="translate(0 1.8)" gradientUnits="userSpaceOnUse"><stop offset="0.54" stop-color="#e5a378"/><stop offset="0.79" stop-color="#e5a178"/><stop offset="0.88" stop-color="#e49a79"/><stop offset="0.94" stop-color="#e38f7a"/><stop offset="0.99" stop-color="#e27e7b"/><stop offset="1" stop-color="#e27c7b"/></radialGradient><linearGradient id="linear-gradient-2" x1="1205.6" y1="395.96" x2="1402.2" y2="2195.62" gradientUnits="userSpaceOnUse"><stop offset="0" stop-color="#dcbf67"/><stop offset="0.38" stop-color="#d26669"/><stop offset="1" stop-color="#3f6b8d"/></linearGradient><linearGradient id="linear-gradient-3" x1="2085.42" y1="974.42" x2="2127.37" y2="1873.39" xlink:href="#linear-gradient-2"/><clipPath id="clip-path"><path class="cls-1" d="M3164.32,191.79H2580.56q-1189,0-2378-.15c-7.49,0-9.2,1.38-9.19,7.52q.38,203.46.19,406.93v80.24c10.05-.77,19.87,1.24,29.82,1.61,21,.76,39-6,55.66-15.42,7.58-4.31,15.88-7.92,22.17-13.74s13.71-7.4,23.29-5.47c16.17,3.25,32.64,5.82,49,.32h0c19.08-3.19,37.37-7.47,50.19-21,3.58-3.77,9.59-4.59,15.32-5.21,6-.64,12.07-.74,17.73-2.55a4.06,4.06,0,0,0,2.58-.95h0l44-9.79h0c29.08-7.35,57.92-14.94,66.19-43.54,2.34-8.09,10.8-14.49,9.79-23.53.25-3.37-.59-6.88,1.93-10h0c7.13-1.43,14.4-1.45,21.68-1.44,19.86,0,37-6.75,53.51-14.81,3.29-1.6,5.64-4.48,8.55-6.65,4.62-3.45,9-7.57,16.38-4.81h0c21.7,8.2,43.67,9.29,66,1.69h0c10.84-3.25,22.26-5.17,32.6-9.6,4.36-1.88,9-1.23,13.59-.28l31.71,6.67a7.16,7.16,0,0,0,2.62.7c29.34,7.87,58.82,8.55,88.07-.48,24.73-7.64,48-17.21,63.54-36a51.79,51.79,0,0,0,5.76-8.48c3-1.27,6.23-2.73,6.89-5.57,1.84-7.87,8.77-8.05,16-7.28,30.66,3.25,60.88,1.22,91.07-3.85,17.71-3,30.27-12.42,42.78-21.49,9.25-6.71,18.74-9.69,30.57-9.43,2.88.06,5.78-.93,8.67-1.44,14.65.31,28.4-2.06,40.59-9.09,4-2.28,8.08-2.08,12.35-.76,31,9.62,63,12.8,96,11.55,10.19-.39,19.84-1.89,28.81-5.64,7.88-3.3,14.69-3.16,22.38.88,12.84,6.73,27.3,8.83,42.59,9.88,26,1.79,51.73,1.07,77.59-.28,3.31-.18,6.66,0,9.75-1.28h0c.49-.12,1-.22,1.48-.31h0c6.48,5.31,15,3.85,22.49,3.63,21.13-.62,40.18-6.7,59-14.78,17.23-7.41,32.29-17.92,50.83-23.3h0c13.22,0,23.69-5.51,34-11.38h0c10,.34,19.84,2.34,29.92,1.53h0c22.38-.68,44.32-3.24,65.38-9.88,4.62-1.46,9.63-2.07,14.41-3.19,15.52-3.65,30.68-7.83,38.84-20.72,3.71-5.86,9.6-7.81,17.34-7.19,18.28,1.47,35.68-1.66,52.65-7,3.42-1.07,7-1.77,9.26-4.49l6-1.59h0a236.54,236.54,0,0,0,41.38-13.94c5.59-2.42,7.88-7.37,9.8-11.95,2-4.83,5.89-8.55,9.58-12.33,4.19-4.3,9.85-5.43,16.07-2.76,45.9,19.71,95.27,24.72,146.15,22.86,13.93-.51,27.8-2,40.9-6.47,25.25-4.85,49.43-12.92,75.1-16.54,20.81-2.93,40.33.8,54.21,13.11,20.65,18.3,47,24.72,74.82,29.81,2.6.47,5.19,1,7.79,1.44,14.08,3.24,28.39,2.33,42.44.58a183.09,183.09,0,0,1,35.6-1.09c24,1.64,46.9-4.42,68.4-11.92,11.29-3.94,19.73-13.37,29.46-20.33h0c10.36-2.11,19.94-5.24,26-13.1,3-11.83,14.36-18.5,24.17-26.07,2.87-2.21,6.86-1.64,10.5-1.1,40.11,6,79.18.41,118.07-7.11,8.39-1.62,16.74-3.35,25.11-5a7.66,7.66,0,0,1,1-.38l-1,.38c9.83.33,18.83-2.93,28.19-4.55,14.3-2.48,28.28-1.58,42.39.54,6.52,1,13.14,1.75,19.49-.84h0l6,.14h0c9.22,6.45,20.51,3.16,30.57,3.47,28.28.86,56.34-1.21,83.31-9.55a97.52,97.52,0,0,0,19.24-8.36c9.11-5.1,18.45-7.2,29.06-3.15,2.29.88,5.19.72,7.81,1h0c24.72,4,48.82-.7,73-3.66,14.81-1.81,26.69-9.38,39.66-14.69C3152.9,197.25,3159.78,196.14,3164.32,191.79Z"/></clipPath><linearGradient id="linear-gradient-4" x1="1707.1" y1="3814.89" x2="1632.3" y2="4372.51" gradientTransform="matrix(1, 0, 0, -1, 0, 4464.06)" gradientUnits="userSpaceOnUse"><stop offset="0" stop-color="#ce9676"/><stop offset="0.38" stop-color="#cc5a5e"/><stop offset="1" stop-color="#2a4c66"/></linearGradient><linearGradient id="linear-gradient-5" x1="1790.76" y1="4120.62" x2="1790.76" y2="4540.66" gradientTransform="matrix(1, 0, 0, -1, 0, 4464.06)" gradientUnits="userSpaceOnUse"><stop offset="0" stop-color="#e8a87e"/><stop offset="0.38" stop-color="#e6666a"/><stop offset="1" stop-color="#3f78a1"/></linearGradient><clipPath id="clip-path-2"><path class="cls-1" d="M1962,617.87c6.78-2.77,14.12-3.64,21.73-4.24,20.29-1.6,40.64-1.16,61-1.59,33.49-.72,66.21-4.69,96.58-15.82,21.2-7.77,43.23-10.16,66.06-7.8a188.56,188.56,0,0,0,57.21-2.84,196,196,0,0,1,62.66-2.55c6.32.72,12.74,1.16,19.13,1.36,32.34,1,62.31-7.39,93-13.31,20-3.85,38.75-11,60.22-10.74,18.82.2,37.66-1.35,55.59-6.47h0c2.61-.26,5.38-.17,7.79-.84,26.07-7.21,51.39-7.87,79.18-2.5,33.08,6.38,66.51-.68,98.64-8.58,7.58-1.87,14.92-2.12,22.06.13,18.57,5.87,37.45,5.09,56.6,2.36,7.75-1.11,15.62-1.76,23.44-2.61h0l4.47,1.66A46.15,46.15,0,0,0,2869,550.2c24.78,1.74,49.57.43,74.32-1,9.83-.55,19.83-1.6,27.76-6.39,10.72-6.48,22.46-7.4,35.25-5.42,36.12,5.59,71.23.78,106.12-6,4.41-.72,9.17-.86,13.18-2.25,21.29-7.38,43.45-10,66.88-10.34,15.29-.23,31.38-1.22,45.43-7.38a4.17,4.17,0,0,0,1.41-.62c8-1.72,15.86-3.8,22.25-8.05,12.17-8.12,25.86-11,41.82-7.85,3,.6,6.71-.3,10-.73,35.76-4.7,66.13-18.51,96.36-32.61,22.11-10.31,41.86-23.18,64.31-33.2,27.61-12.32,57.91-17.51,88.74-22,10.27-1.49,21-2.24,30-7h0a54.27,54.27,0,0,0,15.72-3.59c23.06-3.13,43-10.46,57.68-24.73,2.36-2.3,7.19-4.45,4-7.93-3.57-3.85-8.84-3.6-14-1.56h0l-2.48,1.67-4.3,1.9h0a30.16,30.16,0,0,0-5.57.61c-27.5,8.4-56.19,10.46-85.54,9.81-11-.25-21.69,1.85-31.93,5.06-17.84,5.59-33.66,14.05-50.94,20.43-27.05,10-56.85,10.59-85.71,14.56-54.92,7.56-110,14.3-165.45,19.14-25,2.18-47.49,8.5-69,17.69-39.39,12.3-80.58,15.49-122.73,13.86-13.62-.53-27,1-40.3,3-3,.45-7,2.71-9-.41-1.56-2.45,1.58-4.73,3.69-6.71,12.06-11.33,28.74-17,46.27-21.64,15-2.75,29.65-6,43.11-11.88h0l11.25-3.58h0c3.69-.42,7.48-.6,11.07-1.31,7-1.39,16.09-2.25,6.61-10-2.31-1.89,0-3.1,1.65-4.18,3.37-2.25,6.86-4.4,10.3-6.59h0l2.07-1.57h0a351.66,351.66,0,0,1,46.81-4.1c13.1-.3,26-2.54,37.39-8.11,9.53-3.91,19.67-7.26,24.7-15.33h0c9.08-4.07,14.17-12.09,27.12-12.64,21.69-.91,44.23-.89,61.95-13.15a19.57,19.57,0,0,1,4-1.55h0c7.14-.13,14.28-.42,21.42-.34,21.1.24,42.07-.26,62.48-5,12.78-1.91,25.34-4.28,36.26-10.06h0c4-.84,8-1.55,11.88-2.53,28.81-7.18,55.89-18.07,86.75-20.94,15.87-1.48,31.4-5.72,46-11.19h0c21.44-2.25,36.66-11.84,49.59-24.12h0c7.56-1.61,12.46-6.26,18.76-9.29,6.13-2.95,12.92-8.35,20.3-4.52s12.1,1.82,18.21-.92c4.79-2.15,10.3-3.48,15.64-4.84,11.56-2.93,23.91-2.48,35.66-4.47,16.89-2.87,36.09-2.43,45.8-16.7h0l4.42-.62c10.9-1.75,21.95-3.07,32.33-6.32h0l6.49-.1c23.84-1.41,47.34-3.94,69.42-11.28a6.13,6.13,0,0,0,2.77-.93h0c3.45-1.12,7-2.11,10.34-3.39,15.64-6,33-9.55,46.35-18.84H3228c-10.05,7.69-20.2,15.26-23.23,26.54-1,3.77-5.68,3.91-9.89,4.41-17.23,2.08-35.59,4.45-48.36,13-14.33,9.61-30,13.71-47.68,15.89-27.26,2.28-51.61,9.54-70.51,25-5.41,4.44-11,6.26-18.63,6-10.19-.33-20.3,0-28.91,5.06h0c-4.14.31-8,1.19-11.12,3.39h0c-10.94,1.31-19.17,6.48-26.82,11.82-5.71,4-11.56,5.33-19.09,5.67-16.21.71-29.11,6.45-38.06,16.9h0c-18.09,10.91-36.14,21.9-61.64,19.3a7.39,7.39,0,0,0-3.21.75c-16.9,7.05-33.81,4.33-50.33-.47-12.87-3.75-25.82-4.84-38.75-1.65-21.21,5.23-42.26,11-57.11,24.75h0l-8.51,5.55h0c-10.8-2.35-21.41-5.63-32.42-6.9-52.68-6-94.46,12-133.46,35.67h0l-1.77.4h0l-4.52,1.4h0c-25.5,1.46-51,3.08-76.5,4.32-28.4,1.38-52.51,13.91-79.37,19.19a113.87,113.87,0,0,0-19,2.27c-16.18,1.69-29.71,7.81-42.78,14.68-19.59,10.3-33.33,25.45-52.37,36.24-2.31,1.31-7,2.92-4,5.95,2.43,2.45,6.47.83,9.41-.24,13.37-4.84,27.53-5.16,42-5.14A293.84,293.84,0,0,0,2304,478c24.56-2.72,49.47-4.52,72.08-13.34,4.72,0,8.61-1.85,12.7-3.29,11.63-4.11,23.6-8.46,36.51-8,28.77,1.09,55.71-7.73,84.84-6.89,29.69.86,58.61-6.54,86.12-15.62,9.14-3,18.37-3.75,28.55-2.93,12.14,1,24.72,2.48,36.8-1.07,8.81-2.05,16-6.31,23.43-10.15,29.79-15.38,62.83-21.91,98.53-20.37,23,1,45.8,3.11,68.83,3,3,0,6.41-.69,9.89,1.77l-15.09,3.28h0c-9.9,1.35-19.32,3.56-27.17,8.62h0c-6.8,2.18-14,2-21.13,1.95-26.12-.14-49.89,4.7-69.4,18.64h0c-4.59,2.22-8.24,5.25-14.93,4.69-19.87-1.66-36.2,4.74-50.91,14.15h0c-11.25,5.2-20.82,11.66-27,20.65h0c-2.64.68-4.94,1.9-5.62,3.92-2.91,8.66-10.35,9.27-20.77,8.49a123.66,123.66,0,0,0-48.41,6.44l-2.47,1.59c-11.29-1.38-19.66,4.25-29.23,7a62.74,62.74,0,0,1-17.45-3.18c-17.81-5.36-35.7-5.13-53.6-1.14a6.68,6.68,0,0,0-3.73.89h0a148.26,148.26,0,0,0-31.2,7c-8.06,2.78-16,7.17-25.34,6.59-21.71-1.33-41.83,3-61.44,9.12-8.69,2.74-17.07,3-26.37,2.09-18.55-1.86-36.67-.29-52.94,7.66h0c-10.55,4.58-21.37,5.51-33.66,4-14.61-1.77-29.1,1.47-40.19,8.85-13.91,9.26-29.32,13.13-47.52,13.21-17.56.07-33.13,4.81-45.7,14.51-5.66,4.37-12.29,7.95-20.48,8.48-17.24,1.12-34.41,3.43-51.87,1.8-22.29-2.09-43.63,7.21-53.28,22.85l-6.2,3.55h0l-4.64,2.45c-3.85,2-8.25,4.24-5.26,8.2C1952.79,622.12,1957.62,619.66,1962,617.87Z"/></clipPath><linearGradient id="linear-gradient-6" x1="3002.5" y1="720.07" x2="2957.43" y2="417.46" gradientUnits="userSpaceOnUse"><stop offset="0" stop-color="#ce9676"/><stop offset="0.38" stop-color="#cc5a5e"/><stop offset="1" stop-color="#294c66"/></linearGradient><linearGradient id="linear-gradient-7" x1="3019.39" y1="693.6" x2="2992.02" y2="241.98" gradientUnits="userSpaceOnUse"><stop offset="0" stop-color="#ce9676"/><stop offset="0.38" stop-color="#cc5a5e"/><stop offset="1" stop-color="#2e5775"/></linearGradient><linearGradient id="linear-gradient-8" x1="2901.73" y1="463.2" x2="2896.77" y2="448.33" gradientUnits="userSpaceOnUse"><stop offset="0" stop-color="#ce9676"/><stop offset="0.38" stop-color="#cc5a5e"/><stop offset="1" stop-color="#204863"/></linearGradient><clipPath id="clip-path-3"><path class="cls-1" d="M3916.47,338.14c-16.86,6.85-33.82,13.56-50.27,21.08-11,5-21,12.69-26,21.87-6.58,12-16.85,14.8-30.09,16.14-23.24,2.34-40.67,14.45-58.07,26.42l-8.91,3.85c-14.74,5.08-28,12.68-30.47,26.61-2.51,14.16,1.29,28,16.64,37.16l.73-.48.08.07-.81.42c-1.81,3.83-6.31,4.15-9.95,5.62-16,6.46-31,13.61-30.31,31.82.16,4.33-3.21,6.24-8,6.34-5.24.11-10.49.33-15.72.11-16.42-.71-32.16.71-45.78,9.65h0c-22.73,8.81-41.22,21.82-54.23,40.22h0c-5.51,8.83-12.57,15-25.77,12-2.72-.61-5.93.21-8.89.54-49.72,5.56-79,34.38-104.38,67.49-2.09,2.72-1.83,6.76-2.66,10.19-4.15,1.34-7.74,3.73-12.44,4.08-40.21,3-75,17.94-107.12,37.5-12.92,7.86-29.08,14.62-28.51,31.78-4.15,1.87-4.89,5.49-5.75,8.82-2.32,9-8.19,16.23-15,22.93A59.22,59.22,0,0,0,3244,794.65h0c-3.47,1-5,3.44-6.4,6h0c-9.79,7.89-11.14,18.19-11.24,28.85h0c-4.08.24-8.24.12-12.22.79-18.28,3.07-32.61,14.75-51.2,17.36-3.08.44-4,2.93-3.9,6,.24,8.08-6.4,11.69-14.14,10.2-8-1.54-10.16,1.34-11.84,6.44-1.22,3.68-2.23,7.41-3.34,11.12h0c.12.67.23,1.34.35,2a12.72,12.72,0,0,0-.53,1.69h0c-4.74,5.12-9.57,5.57-16.26,1.8a80.11,80.11,0,0,0-84.83,4c-2.7,1.09-5.61,1.92-8.07,3.32-9.45,5.38-15.45,3.68-21.48-4.89-6.5-9.23-15.95-16.78-26.11-23.41h0c-14.73-13.2-29.85-25.7-53.49-25.15-10.42.24-20.89.4-31.29-.1-18-.86-35,.95-49.63,10.9-4.67,3.17-9.25,2.59-14.54.47-8.4-3.36-14.6-10.13-24.36-11.26h0c-23.51-13.71-59.44-11.07-81,5.95h0c-3.82,1.46-8,3.1-9.23,6.61-3.86,11.15-13.71,13.91-25.65,15.2a93.85,93.85,0,0,0-21.57,5.14c-23.9,8.69-40.93,23.63-49,44.69-6.88,18-13.54,24-36,26.37-5.58.59-11.65.48-15.81,4.06-14.72,12.67-30.43,24.81-41,40.34-4.69,6.89-9.05,8.35-16.93,5.43-30.25-11.22-59.3-6.82-85.29,8.26-28.32,16.42-37.09,29.59-25.2,53.38,4.23,8.46.62,11.8-6.33,15.13-14.32,6.88-28.54,13.88-43.16,20.34s-33.82,7.25-42.95,21.06c-6.44,9.72-15.34,11.24-27,11.33-18.11.13-36,2.09-50.78,12.62a2.23,2.23,0,0,0-.7.49,96.27,96.27,0,0,0-41.32,25.54c-12.66,13.28-28.1,17.75-47.76,13.37-28.35-6.32-54.93-1.75-79.47,11.7a136,136,0,0,1-63.31,17c-11.8.29-23.5,3.65-35.23,5.7-3.53.61-6.42,2-6.53,5.58-.1,2.94,2,4.7,4.86,5.92,5.09,2.19,10.57,3,16.17,3.69,30.14,3.76,60.44,1.6,90.66,2h0c4.38,2.48,9.32,2.06,14.15,1.88,44.71-1.65,88.88,1.24,132.33,10.89a301,301,0,0,0,77.83,6.48c15.62-.63,29.81-5.08,43.35-11.42,5.18-.26,9-3.07,12.94-5.38,10.58-6.12,21.83-9.59,34.87-7.61,5.13.78,10.39,1,15.59,1.35,29.36,2.27,58.93,3,87.1,12,9,2.9,18.93,3.6,28.76,3.45,41-.62,77-14.64,111.33-32,11.62-5.86,22.45-7.25,35.1-5.92,13.69,1.43,27.77,3.78,41.23,2.43,44.12-4.43,88.48-8.76,129.07-26.2,8.11-3.48,16.06-3.73,24.9-1.43,36.82,9.56,72.94,8.69,107.68-6.79,5.76-2.57,11.65-4.34,18.27-3.3h0c14,8.71,28.11,16.7,46.78,15.49,24.57-1.6,48.82-4.36,72.22-11.28,4.61-1.36,9.19-2.52,14.2-1.78,12.47,1.85,25,3.59,37.45,5.37h0c12.92,4.22,25.83-.44,38.72,0,36.81,1.26,70.66-8.12,103.35-21.2,8.53-3.41,16.93-5.09,25.94-3.78,15.2,2.21,30.48,1.67,45.76,1.69h0c5.6,0,11.3-.61,16.78.06,32.75,4,59-6.73,81.57-25.89a27.78,27.78,0,0,1,14.67-6.43,190.27,190.27,0,0,0,69.38-23.1c14-8,27.87-10.79,45.25-7.6,23.89,4.38,48.94,8,71.1-6.38,17.81-8.1,36-15.65,53.29-24.49a69.88,69.88,0,0,1,35.05-8c42.3,1.31,83.43-4.58,123.84-15a1043.52,1043.52,0,0,0,147.87-50.17c11.54-4.91,17.31-10.26,15.11-21.13h0c-1.18-3.4,3.58-8.63-4.2-10l-2.38-3.75,2.21-4A16.28,16.28,0,0,0,4033,931.5h0c-.82-1.33-1.63-2.67-2.44-4h0c2.46-3.1,2.46-6.63,2.46-10.17q0-212,0-424c0-3.88.11-7.78-4.29-10.32h0l4.2-3.71h0c0-1.86,0-3.72.07-5.58h0c-1.47-1.9-2.93-3.8-4.4-5.69h0c4.47-2,4.38-5.63,4.38-9.18,0-34.14-.1-68.29.09-102.44,0-6.93-3.12-9.83-11.28-9.72-16.44.23-32.89,0-49.33,0,15.33-3.93,31-.87,46.53-1.85,5-.31,10.69,1.08,14.06-3.77h0c-.13-.73-.27-1.46-.4-2.2,0-1.2,0-2.41.05-3.61h0c-4.71-7-13.17-5.38-20-5.42-18.65-.11-37.31,1.29-56,1.29C3942.61,331.12,3929.17,333,3916.47,338.14Z"/></clipPath><linearGradient id="linear-gradient-9" x1="3024.94" y1="1507.27" x2="3001.21" y2="1002.57" gradientUnits="userSpaceOnUse"><stop offset="0" stop-color="#ce9676"/><stop offset="0.38" stop-color="#cc5a5e"/><stop offset="1" stop-color="#2f5c7d"/></linearGradient><linearGradient id="linear-gradient-10" x1="3103.98" y1="1234.34" x2="3176.47" y2="425.57" gradientUnits="userSpaceOnUse"><stop offset="0" stop-color="#f9cb98"/><stop offset="0.38" stop-color="#f69686"/><stop offset="1" stop-color="#4a86b1"/></linearGradient><linearGradient id="linear-gradient-11" x1="3071.65" y1="1797.35" x2="3081.5" y2="1516.49" gradientUnits="userSpaceOnUse"><stop offset="0" stop-color="#c48f70"/><stop offset="0.38" stop-color="#be5559"/><stop offset="1" stop-color="#28486b"/></linearGradient><clipPath id="clip-path-4"><path class="cls-1" d="M1874.76,1075.63h0c28.6-8.8,58.39-8.79,88.24-8.21a263.86,263.86,0,0,0,57.41-5.32,262.81,262.81,0,0,1,27.92-4.57c27-2.47,54.2-3.25,80.82-8.14,21.48-3.94,39-13.22,52.38-27.84h0c3.62-3.13,7.65-6,10.75-9.46,3.79-4.21,1.48-7.81-4.78-8.4-3.58-.34-6.17,1.21-8.89,2.83-20.27,12.13-43.75,18-67.87,19.41-23.1,1.4-45.38,4.22-67.17,10.55-8.71,2.54-18.26,4.67-27,2.49-24.35-6-48.22-5.69-72.42.2a22.28,22.28,0,0,1-18.1-3.51,30.06,30.06,0,0,1,4.19-1.78c27.71-6.28,51.59-20.65,79.68-26.17,3.69-.72,7-2.9,10.35-4.61a27.81,27.81,0,0,1,14-3,392.2,392.2,0,0,0,68.45-3.26,96.56,96.56,0,0,0,32.15-9.19,63.74,63.74,0,0,1,20.89-6.24c10.79-1.26,22.39-1.05,31.56-7.42h0c3.62-1.83,8.78-2.92,10.59-5.59,8.53-12.59,22.46-11.32,36.15-10.73,30,1.28,57.87-5.62,85.21-14.8,22.8-3.65,43-13,62.88-22,22.45-10.23,45.39-14.64,70.48-12.06,14.7,1.51,28.59-1,42.07-5.54,8.31-2.8,15.69-6.64,19.64-13.89,1.83-3.34,5.69-5.16,9.06-7.3,10.77,1.09,19.48-2.79,27.65-8h0c9.13-4.21,18.16-8.59,27.41-12.61,27.25-11.83,54.65-23.34,85.82-26.36a70.12,70.12,0,0,0,16.91-4c28.15-10.09,53.47-24.89,82.12-34.13h0c16.17-2.23,30.85-8.45,46.54-12.08,22.46-5.2,46-8.32,65.29-20.75,4.81-3.11,14.8-4.59,11.53-10.56-3.15-5.76-10.22-3.5-16.42-1.77a8.42,8.42,0,0,0-2.86.75c-26.2,3.19-52.22,7.28-77.69,13.3-22.28,5.27-44.44,7.79-67.71,5.33-19.16-2-38.15,1-54.6,9.8-20.08,10.78-39.67,21.58-64.39,24-8.46.83-16.55,4.92-24.58,7.94-9.21,3.46-18.06,7.6-27.84,10h0c-20.52,1.3-41.05,3.4-61.58.21-14.66-2.28-27.93,0-39.57,7.93-6.57,4.47-13.52,5.53-22,3.94-6.54-1.23-13.67-1.49-20.27,1h0c-7.44-.31-14.19,1.67-20.58,4.53-16.07,7.2-32,14.53-48.07,21.81h0c-16.15,4.39-31.53,10.7-48.5,13-11,1.51-22,3.07-32.34,6.68a99.64,99.64,0,0,1-52.68,4.09c-16.57-3.11-33.14-3-47.17,7.52-4,3-9.47,2.92-14.94,2.64-22.71-1.14-44.26,2.38-63.58,12.86-5.66,3.07-11.06,3.64-17.62,2.66a218,218,0,0,0-61.49-.34C1987,913.27,1975,918,1965,926.37c-7,5.94-14.3,13.29-26.79,11.18-9.76-1.65-19.6-7-29.45,0-.57.4-1.94.17-2.89,0-15.16-2.3-29.86,0-44.53,3a26.53,26.53,0,0,1-16.2-1.51c-17.66-7.64-37.37-7-56.33-9.34a14.11,14.11,0,0,0-8.46,1.61h0c-2.54.52-5.1.95-7.61,1.56-26.22,6.34-50.28,16.76-74.43,27.09-15.92,6.82-33.74,10.55-47.7,20.54-10.21,0-20.67-1-29.52,4.83h0l-11.65,3.5c-2.2.51-4.89.52-6.53,1.62-8.5,5.67-17.35,4.18-26.87,2.2-10.12-2.1-20.76-3.89-31-.81-17.89,5.38-36,2.39-54.13,2.06-10-.18-20.33-.58-28.34-5.36-17.51-10.44-35.49-5.94-53.67-3.06-18.6,3.65-37.52,6.35-55.14,12.91h0c-10.94,2-21.08,5.87-31.36,9.34-6.34,2.13-12.68,3-19.19,1.78-13.91-2.59-26.73-.08-38.81,5.48-10,4.61-19.6,9.8-29.49,14.58-8.42,4.06-17.32,6.53-27.23,4.45q-43.62-9.13-82.14,10.23h0c-3.17.61-6.43,1-9.51,1.85-18.78,5.2-36.54,13.12-56.71,14.59-2.22.16-4.35,1.1-6.51,1.68h0c-2.66.9-6.55,1.38-6.18,4.31s4.45,2.85,7.16,3.18a327.19,327.19,0,0,1,35.26,6.67c26.38,6.1,52.42,13.37,79.87,15.68h0l5.79,1.59h0c15.55,4.57,31.57,4.51,47.43,2.18,22.12-3.25,43.16-3.4,63.55,6.58,13.6,6.66,29.21,9.55,45.12,10,28.71.75,57.65,3.83,85.86-3.07,23.62-5.78,47.1-5.44,70.79-1a8.71,8.71,0,0,0,4.33.83c20.35,4.15,40.49,11,61.76,1.73,3.41-1.48,8.29-.61,12.49-.83l.06-.25.09,0-.15.23a84.54,84.54,0,0,0,47.35,0l-.14-.22h0l.09.23c5.56,0,11.34.31,16.39-1.8,15.93-6.66,31.16-8.61,49.43-3.93,29,7.45,59.49,4.84,89.4,2.15,17.67-1.58,34.3-6.1,49.16-14.56h0Z"/></clipPath><linearGradient id="linear-gradient-12" x1="2010.21" y1="1272.5" x2="1970.37" y2="939.52" xlink:href="#linear-gradient-7"/><linearGradient id="linear-gradient-13" x1="2058.15" y1="1071.09" x2="1993.99" y2="748.82" gradientUnits="userSpaceOnUse"><stop offset="0" stop-color="#f28003"/><stop offset="0.08" stop-color="#f07e07"/><stop offset="0.16" stop-color="#eb7914"/><stop offset="0.24" stop-color="#e2702a"/><stop offset="0.32" stop-color="#d56348"/><stop offset="0.38" stop-color="#cc5a5e"/><stop offset="1" stop-color="#366487"/></linearGradient><clipPath id="clip-path-5"><path class="cls-1" d="M193.32,1363.56c19.28-3.57,39.85-6.75,59.4-7.49,24.81-.94,48.63,11.48,73,14.77,17.42,2.36,36.17,6.07,54,3.66,9.09-1.23,17.27-5.48,25.84-8.92,5-2,10.16-3.88,15.23-5.84,23.39,7.26,47.59,8.81,71.73,6.13,1.44-.16,2.88-.29,4.32-.44,28.14,8.68,55,15.94,86.52,10.22,20.13-3.64,38.24-15.94,58.74-14.87,8,.42,13.92,3.9,21.68,4.75,6,.66,13-.17,19.09-.17,15,0,31.15,1.58,45.78-1,15.31-2.71,27.53-8.91,43.48-8.08,15.76.82,29.09,8.79,45.79,9.13,16.33.33,29.49-4.92,45.7-4.52a73.26,73.26,0,0,1,17.22,2.23c9,2.16,16,1.15,24.92,2,19.25,1.84,37.36,9,56.75,9.28,13.34.21,23.49.43,35.93,3.45,22.17,5.39,47.26,1.9,65-10.23a115.84,115.84,0,0,1,13.88-8c20-2.62,40-1.9,60.36-.12a143.53,143.53,0,0,0,79.89-15.92c10.9-5.66,23.25-2.29,35-3h0c27.5,6.45,54.6,15.47,83.17,15.78,14.48.16,29-2,43.5-2.66,31.68-1.5,61.46-14.65,93.78-13.62,31.4,1,62.9-1,94.33-2,15.66-.54,30.63,1.75,44.79,8.39,26.41,12.39,54,9.84,81.15,5,49.43-8.72,98.72-4.46,148.07-.54,21.24,1.68,42.35,2.58,63.43-2,6.44-1.39,13.29-.84,19.94-1.32,2.65-.19,6,0,6.22-3.79.14-2.9-2.67-3.77-4.9-4.24-11-2.36-21.35-8.53-33.25-6.14h0c-19.5-1.21-36.73-11.31-55.87-14.17-11.25-1.67-22.22-5.29-33.79-4.8h0c-22.52-4.83-45.17-2.22-67.81-1.35-29.15,1.12-58.52,6.24-86.63-7.55-7.46-3.65-16.75-3.59-25.19-5.23h0c-18.94-6.15-38.44-7.93-58.19-7-17,.85-32.32-3-47.62-10.69-21.4-10.71-43.56-19.93-67.25-25.06-16.14-3.5-31.33-3-45.35,6.24-4.94,3.24-9.81,4.69-15.52,3.48h0c-10.49-7.26-22.61-8.73-34.83-9.4-13.24-.72-25-4.14-36.11-12.18-11.33-8.22-23.36-16.08-37.67-18.82h0c-33.7-16.56-68.17-17.76-103.2-4.81-9.86,3.64-19.42,8.1-29.12,12.19h0a30.55,30.55,0,0,0-4.07,3.07c-17,11.81-32.73,8.87-50.53-4.22-13.76-10.12-32.13-12-49.59-13.13-6.23-.42-12.39-1.86-18.58-2.84-14.43-2.28-28.84-4.32-42.65,2.8-5.16,2.66-10,1.78-14.29-1.7-4.13-3.3-8.52-5.59-14-5.35l-6.88-2.44h0c-13.21-9.17-28.68-6.7-43.28-7.65-7.77-.51-12.7-2.47-17.66-8.76-8.21-10.39-18.38-19.07-31.14-24h0c-5.82-6.38-13.26-9.71-21.56-11.43-17.92-8.74-36.59-14.94-56.6-16.59-2.64-5-7.78-5.07-12.3-5.7-27.92-3.89-55.63-3.85-82.55,6-5.5,2-10.45,2.31-15.81-.59-30.56-16.53-61.16-16.34-92.63-1.59-10.95,5.14-21.64,11-32.89,15.59-18.19-28.9-42-49.53-69.95-64.55-9.26-15.33-19.87-34.8-37.68-39.57a47,47,0,0,0-11.22-1.19,166.32,166.32,0,0,0-35.11-16.76c-28.63-10-58.24-20.39-88.57-13.4-17.27,4-24.93-2.32-33.8-13.85-5.36-7-11.85-13.75-21.36-15.7h0a16.73,16.73,0,0,0-.22-1.87h0c-13.64-11.14-29-18.23-46.81-18.82-1.14,0-2.32-.1-3.48-.1Zm246-12.67c2.5-1.52,5.16-3,6-3,2.88,0,6.89,1.92,11,4C450.64,1351.68,445,1351.39,439.32,1350.89Z"/></clipPath><linearGradient id="linear-gradient-14" x1="941.67" y1="1689.5" x2="1055.64" y2="1185.65" gradientUnits="userSpaceOnUse"><stop offset="0" stop-color="#ce9676"/><stop offset="0.38" stop-color="#cc5a5e"/><stop offset="1" stop-color="#366487"/></linearGradient><linearGradient id="linear-gradient-15" x1="1066.47" y1="2034.48" x2="1066.47" y2="1579.16" gradientUnits="userSpaceOnUse"><stop offset="0" stop-color="#d6b75a"/><stop offset="0.38" stop-color="#cc5a5e"/><stop offset="1" stop-color="#365887"/></linearGradient><linearGradient id="linear-gradient-16" x1="905.04" y1="1404.74" x2="934.99" y2="919.48" gradientUnits="userSpaceOnUse"><stop offset="0" stop-color="#ffb993"/><stop offset="0.38" stop-color="#fe7072"/><stop offset="1" stop-color="#4481ab"/></linearGradient><clipPath id="clip-path-6"><path class="cls-1" d="M323,935a680,680,0,0,0,128.11,2.69c12.28-.87,24.81-4.17,36.93-2,19.42,3.55,39.21,2.69,58.79,4.11a6.06,6.06,0,0,0,1.23.39c3.59,1,7.45.61,11.2.85,39.28,2.52,78.36-4,117.66-1.19,34.61,2.44,69.35,1.25,104,.78,20-.27,40.15-2.16,54.65-13.9h0c8.46-1.89,14.05-7.76,23.5-8.27a82.87,82.87,0,0,0,8.81,1.94c28.23,3.2,56.57,2.81,84.95,1.17,18.22-1.06,35-5.08,51.46-10.58,6.47-2.17,11.86-6,19.44-6.58,4,2.43,9.53,2.48,13.84,4.41h0c5.09,3.49,11.6,3.49,18.09,3.68,15.95.46,31.9-1,47.85.07h0c17.13,8.13,42.32,8.63,55.86.54,10.89-6.52,21.4-8.32,35.41-4.1,20.16,6.06,41.86,6.69,63,2.61,11.27-2.17,21.69-6.5,32.48-9.85,23.36-.32,46.71,1.09,70-2.94a149.41,149.41,0,0,1,39.55-1c13.79,1.33,27.6,0,41.22-1.89,2.86-.41,5.48-1.26,6.21-3.5.67-2-.94-3.59-3.32-4.38-16.79-5.54-32.36-12.83-49.94-17.26h0c-11.55-6.75-25.78-7.1-39.71-8.13-3-.23-6.75.23-8.37-2-6.69-9.25-19.14-14.67-29.25-21.59-10.38-7.11-37.22-6.87-46.78-.2h0l-5,1.21h0c-7.28.74-10.91-3.41-15.9-5.76-17.35-8.17-30.6-21-54.75-21.27-22.07-.26-43.93-.73-65.11,4.52a62,62,0,0,1-16.75.91c-9.21-.89-18.48-1.79-27.75-2-7.28-.14-12-1.44-12.73-7-.34-2.6-3.18-4.51-4.76-6.74-7.22-10.19-21.94-14.17-33.4-20.88-14.85-8.69-31.59-14.49-50.68-14.48-17.26,0-30.55-3.37-39.89-13.6a2.27,2.27,0,0,0-.7-.32h0c-13.74-11.35-31.19-17.3-52.3-19.45-34.22-3.48-68-1.43-101.75,2.26-4.17.45-8.32,1.48-12.12-.72h0a23.76,23.76,0,0,0-6.41-17.46c-4.43-5-10.16-8.85-15.76-13-21-15.58-46.7-17.51-74.76-13.35h0l-2,1.06h0c-14.23,2.62-26-1.28-37-7-1-.71-1.86-1.47-2.88-2.14-10.27-6.72-24.28-8.12-36.26-12.41-28.84-10.33-59-16.6-92-15.19-36.34,1.56-69.41,9.51-99.94,23.19-7,3.16-13.11,8-21.78,8.67a144.72,144.72,0,0,0-46.86,11c-6.59,2.83-13.82,5.4-17.7,10.56h0c-2.21,2.54-6.78,3.84-7.95,6.83-2,5.1-6.79,5-13.13,4.66-29.9-1.47-59.38-.82-85.75,11.18-8.22,3.14-16.26,6.45-22.13,11.76V899.44c.62.48,1.26.94,1.9,1.39-.63-.07-1.25-.16-1.9-.2v7.12c12.57,3,23.62,9.15,36.22,11.26C261.15,924.19,291.45,931.29,323,935Z"/></clipPath><linearGradient id="linear-gradient-17" x1="820.63" y1="1113.43" x2="820.63" y2="801.53" gradientUnits="userSpaceOnUse"><stop offset="0" stop-color="#ce9676"/><stop offset="0.38" stop-color="#cc5a5e"/><stop offset="1" stop-color="#315b7a"/></linearGradient><linearGradient id="linear-gradient-18" x1="806.16" y1="928.03" x2="795.29" y2="701.29" gradientUnits="userSpaceOnUse"><stop offset="0" stop-color="#fa7428"/><stop offset="0.38" stop-color="#f83924"/><stop offset="1" stop-color="#4884b3"/></linearGradient><radialGradient id="radial-gradient-3" cx="2153.32" cy="1693.66" r="2345.03" gradientTransform="translate(0 0.46)" gradientUnits="userSpaceOnUse"><stop offset="0" stop-color="#e1ab6e"/><stop offset="0.38" stop-color="#de887a"/><stop offset="1" stop-color="#3f7499"/></radialGradient><linearGradient id="linear-gradient-19" x1="2767.67" y1="2668.63" x2="2808.86" y2="1415.47" gradientUnits="userSpaceOnUse"><stop offset="0" stop-color="#81674d"/><stop offset="0.38" stop-color="#404a6b"/><stop offset="1" stop-color="#152039"/></linearGradient><linearGradient id="linear-gradient-20" x1="2374.92" y1="2656.06" x2="2416.11" y2="1402.79" xlink:href="#linear-gradient-19"/><linearGradient id="linear-gradient-21" x1="1598.55" y1="2630.98" x2="1639.74" y2="1377.76" xlink:href="#linear-gradient-19"/><linearGradient id="linear-gradient-22" x1="3846.12" y1="2703.35" x2="3887.3" y2="1450.26" xlink:href="#linear-gradient-19"/><linearGradient id="linear-gradient-23" x1="3650.62" y1="2697.19" x2="3691.81" y2="1443.93" xlink:href="#linear-gradient-19"/><linearGradient id="linear-gradient-24" x1="3078.95" y1="2678.74" x2="3120.14" y2="1425.41" xlink:href="#linear-gradient-19"/><linearGradient id="linear-gradient-25" x1="1107.65" y1="2615.23" x2="1148.85" y2="1361.83" xlink:href="#linear-gradient-19"/><linearGradient id="linear-gradient-26" x1="1772.3" y1="2636.43" x2="1813.48" y2="1383.55" xlink:href="#linear-gradient-19"/><linearGradient id="linear-gradient-27" x1="865.61" y1="2607.3" x2="906.79" y2="1354.18" xlink:href="#linear-gradient-19"/><linearGradient id="linear-gradient-28" x1="526.45" y1="2596.47" x2="567.64" y2="1343.12" xlink:href="#linear-gradient-19"/><linearGradient id="linear-gradient-29" x1="2140.88" y1="3492.18" x2="2123.22" y2="2674.03" gradientUnits="userSpaceOnUse"><stop offset="0" stop-color="#81663a"/><stop offset="0.38" stop-color="#7e5040"/><stop offset="1" stop-color="#152039"/></linearGradient></defs><g class="cls-2"><g id="Layer_1" data-name="Layer 1"><rect class="cls-3" x="193.32" y="191.64" width="3840" height="2396.88"/><ellipse class="cls-4" cx="2113.82" cy="1542.38" rx="453.5" ry="452.91"/><ellipse class="cls-5" cx="2113.82" cy="1542.38" rx="137.39" ry="137.21"/></g><g id="Layer_2" data-name="Layer 2"><path class="cls-6" d="M193.32,860.77c111.83-14.88,222.76-34,334.22-55.06,40.87-7.74,80.28-6.19,121.61-7.62,66.35-2.31,132.65-8.69,199.09-11.16,132.68-4.93,268.88-30,400.61-5,49.33,9.36,97.61,23.83,146.67,34.42,42.12,9.1,79.78,9.76,122.31,10.07,75.14.56,149.82,14.32,224.93,16.47,67.11,1.93,132.27-11.66,199-10.87,29,.34,57.38-3.62,86.22-5.23,31.76-1.76,63.08,3.74,94.79,5,46.77,1.89,92.6-1.83,138.92-7.57,15.86-2,38.55.84,53.21-4.67a91.78,91.78,0,0,0-41.54.07q-65.87,3.75-131.83,1.12c-59.93-3.57-115.9-14.6-174.26-27.25-59.62-12.93-118.75-20.29-179.74-23.8-72.23-4.15-146,1.31-217.54-9.6-43.81-6.68-86.81-20.58-130.89-25-47.09-4.7-96.44.59-143.92-.82-49-1.47-97-2.63-145.42-11-49.29-8.5-94.15-26.35-142.58-37.52-42.89-9.89-84.07-7.77-127-13.17-29.75-3.75-59.49-11.2-89.38-15.71-45.91-6.92-90-17.49-136.49-21.08-71.86-5.55-145.41-15.22-217.42-10.78q-61.31,3.29-122.36,9.55a791.25,791.25,0,0,1-121.25-5.23Z"/><path class="cls-7" d="M4033.32,1818.52V1326.16c-6.67.5-11.31,2.5-18,3-5.63.45-12.24-.33-18-.21-10.82.24-19.12,2.6-30,2.87-10.37.26-20.91-.26-31.29-.13-14.52.19-26.13,2.46-40.6,2.73-7.78.15-10.85,1.38-18,2.21-6.52.75-11.64,0-18,.45-9.09.68-19.92,2.27-28.62,3.5-7.78,1.09-14.91,1.87-24,2.74-3.13.31-8.84,1.74-13.17,2.14-6.33.58-11.94,1.38-18.11,2.13-16.19,1.94-48.34,2.1-64.57,0-9.32-1.21-13.55-2.17-25.29-2.13-12,0-24,.08-35.95,0-13.38-.07-23,2.51-35.94,2.8a283.3,283.3,0,0,0-30,2.07c-11.13,1.29-19.06.58-30.09,2.67-10.08,1.91-19.6,3.39-29.83,5.4-19.89,3.91-39.06,8.59-58.42,12.39-19,3.73-40.85,4.48-61.37,6.94-18.87,2.25-46.18,1.16-65.9.67-10.89-.27-19.07-2.62-29.95-2.87-5.58-.12-12.89.81-18.29.21s-5.91-2.46-11.34-3c-5.66-.6-11.11.27-17-.45-2.4-.3-6.83-1.78-10.15-2.21-8.7-1.11-18-2.22-27-2.73a450.12,450.12,0,0,0-64.7.67c-9.06.83-20.63,4.19-31.28,5-5.84.45-12.14-.74-18-.29-8.9.69-14.64,2.74-24,3-4,.09-8.19-.36-12.12-.13-8.33.48-10.2,2.15-17.52,3-4,.43-8.41-.46-12.45-.22-8.72.53-10.78,1.86-18.84,2.89-6.54.84-13.33.09-20.19,1.19-7.8,1.25-13.92,3.15-22,4.22-17.09,2.24-30.28,6.06-46.9,9-10.57,1.89-70.37,7.31-71.1,9.53,10.32,1.5,25,1,35.7.37,20.15-1.15,40.62-2.78,60.1-4.64,11.31-1.07,21.33-1.84,32.52-3.08,10.49-1.17,22.14-2.8,33-3.07,20.22-.5,43.8-.94,62.91,1.44,22.37,2.77,48.31,1.37,71.87,1.37,11.34,0,22.68,0,34,0,19.16,0,36,2.55,54.64,2.94,16.8.35,31.59-3.08,48.68-3a296,296,0,0,0,37.77-2c28.54-3.15,56.18-6.2,85.49-6.15,19.07,0,47.47-2.4,65.28.54-1,3.32-10.14,5-15.41,7.13,21.87,3.53,58.19.54,80.73.55,15.1,0,31.6-.9,46.41.21,14.54,1.09,23.85,5.69,37.3,7.53,15.5,2.12,36.09.5,52.27.48,11.38,0,47.44,0,50.77,4.88-14.05,3.28-49.38,1.88-64.17,2.53-35.55,1.57-72.14,2.36-107,6.21-21.54,2.38-41.36,6.69-62.84,9.11-7.11.8-15.63,1.17-22.24,2.54s-33.55,9.34-36.41,13.09c-2,2.68,4.8,3.32,2.63,6.48-1.92,2.79-42.1,8.88-44.63,9.34-22.13,4-42.26,5.67-65.65,6.09-38.27.68-76.18,2.86-112.44,8.84-20.61,3.41-40.35,7.53-61.25,10.6-19,2.81-34.89,1.19-53.81,2.33-8.93.54-17.41,2.13-26.23,3-19.06,1.78-34.7.3-53.9-.14-13-.3-70.21,4.35-69.82-4.72a51.37,51.37,0,0,0,9.3-2.88c-15.29-2-33-.14-48.74.8-27.32,1.64-53.83,2.17-80.67,5.38-59.52,7.13-115.32,23.34-177.85,23.54-19,.06-38-.57-57-.33-28.74.36-55.89,5.56-84.88,5.89-68.4.78-136-1.16-204.08-2.94-24.61-.65-49.75-1.67-74.15-3.42-27.45-2-54.77-1.69-82.3-3.43-35.22-2.24-70.42-.16-105.27-3.93-30.06-3.25-62.86-6.39-89.53-13.7-48.28-13.22-101.32-20.06-155.24-27.35-53.18-7.19-104.2-17.76-157.63-24.33-19-2.34-38.27-4.21-57.64-5.75q3,.12,5.94.31c16.41,1.16,49.86,6.58,63.57.2-14.7-5.64-44.24-9.12-63.1-11.22-28-3.11-57-5-85.29-7.49-99.76-8.67-202.29,11.54-303,6.58-48.92-2.4-94.58-9-142.37-13.53-51.1-4.8-108.49-3.67-160.25-1.87-29,1-50.36,1.86-78.94,0-10-.66-19.5-.75-29.62-.7-11.41.06-56.16-3.07-60.89,2.44,13.21,4.36,27.16,5.89,43,7.75,42.94,5,87.42,5.68,129.94,11.66,38.8,5.45,71.76,16.47,111,22.14,41.63,6,84.67,12.28,127.53,16.44,49.16,4.76,100.34,3.45,149.88,7,41.23,3,82.2,5.46,124,6.24,40.79.75,80.49,3.9,120.92,5.38,31.77,1.16,66.72-1.62,98.7-2.26,18.56-.36,36.18-2.94,54.81-3.13-20.1,7.21-52.47,11-76.56,13.81-18.34,2.12-30.45,1.86-48.54-.5-31.2-4.07-67-2.88-90.16,9.06,1.41,6.58,19.7,2.91,25,7.32-21.71,5.21-44.06,6-68.27,7-37.67,1.49-75.43,2.48-112.9,4.89s-76,5.53-113.22,8.73a288.9,288.9,0,0,0-50.15,8.88q5,10.89,37.58,5.95,75.45-1.07,150.91-2.1c53.92-.07,103.76,1.62,156.51,5.78,41.63,3.29,83.13,4.9,125.08,7,21.32,1,44.22.11,64.43,3.79,28.14,5.12,53.68,10.2,84.46,11.31,18.72.67,38.69,0,57.2-.74,18.73-.72,50.78-5.18,69.69-1.66-14,6.57-63.22,5.44-75.65,5.35-33.82-.23-67.32-2.12-101-3-31.51-.79-62.38,1.26-93.74,2.14-43.11,1.2-94.48.3-137.1-3.43-29.06-2.54-57.08-6.77-86.46-8.49-45.18-2.66-90.72-.22-136,.82-46.22,1.06-100.22,3-146.07-2.16-40-4.51-78.22-12-117.54-17.63-100.91-14.34-203.78-25.84-304-41.16-50.47-7.71-98.68-17.26-150.34-23.31-101.66-11.91-208.43-14.93-311.84-22.34-20.47-1.46-40.38-3.13-59.94-5v368.83Z"/><g class="cls-8"><path class="cls-9" d="M3164.32,191.79H2580.56q-1189,0-2378-.15c-7.49,0-9.2,1.38-9.19,7.52q.38,203.46.19,406.93v80.24c10.05-.77,19.87,1.24,29.82,1.61,21,.76,39-6,55.66-15.42,7.58-4.31,15.88-7.92,22.17-13.74s13.71-7.4,23.29-5.47c16.17,3.25,32.64,5.82,49,.32h0c19.08-3.19,37.37-7.47,50.19-21,3.58-3.77,9.59-4.59,15.32-5.21,6-.64,12.07-.74,17.73-2.55a4.06,4.06,0,0,0,2.58-.95h0l44-9.79h0c29.08-7.35,57.92-14.94,66.19-43.54,2.34-8.09,10.8-14.49,9.79-23.53.25-3.37-.59-6.88,1.93-10h0c7.13-1.43,14.4-1.45,21.68-1.44,19.86,0,37-6.75,53.51-14.81,3.29-1.6,5.64-4.48,8.55-6.65,4.62-3.45,9-7.57,16.38-4.81h0c21.7,8.2,43.67,9.29,66,1.69h0c10.84-3.25,22.26-5.17,32.6-9.6,4.36-1.88,9-1.23,13.59-.28l31.71,6.67a7.16,7.16,0,0,0,2.62.7c29.34,7.87,58.82,8.55,88.07-.48,24.73-7.64,48-17.21,63.54-36a51.79,51.79,0,0,0,5.76-8.48c3-1.27,6.23-2.73,6.89-5.57,1.84-7.87,8.77-8.05,16-7.28,30.66,3.25,60.88,1.22,91.07-3.85,17.71-3,30.27-12.42,42.78-21.49,9.25-6.71,18.74-9.69,30.57-9.43,2.88.06,5.78-.93,8.67-1.44,14.65.31,28.4-2.06,40.59-9.09,4-2.28,8.08-2.08,12.35-.76,31,9.62,63,12.8,96,11.55,10.19-.39,19.84-1.89,28.81-5.64,7.88-3.3,14.69-3.16,22.38.88,12.84,6.73,27.3,8.83,42.59,9.88,26,1.79,51.73,1.07,77.59-.28,3.31-.18,6.66,0,9.75-1.28h0c.49-.12,1-.22,1.48-.31h0c6.48,5.31,15,3.85,22.49,3.63,21.13-.62,40.18-6.7,59-14.78,17.23-7.41,32.29-17.92,50.83-23.3h0c13.22,0,23.69-5.51,34-11.38h0c10,.34,19.84,2.34,29.92,1.53h0c22.38-.68,44.32-3.24,65.38-9.88,4.62-1.46,9.63-2.07,14.41-3.19,15.52-3.65,30.68-7.83,38.84-20.72,3.71-5.86,9.6-7.81,17.34-7.19,18.28,1.47,35.68-1.66,52.65-7,3.42-1.07,7-1.77,9.26-4.49l6-1.59h0a236.54,236.54,0,0,0,41.38-13.94c5.59-2.42,7.88-7.37,9.8-11.95,2-4.83,5.89-8.55,9.58-12.33,4.19-4.3,9.85-5.43,16.07-2.76,45.9,19.71,95.27,24.72,146.15,22.86,13.93-.51,27.8-2,40.9-6.47,25.25-4.85,49.43-12.92,75.1-16.54,20.81-2.93,40.33.8,54.21,13.11,20.65,18.3,47,24.72,74.82,29.81,2.6.47,5.19,1,7.79,1.44,14.08,3.24,28.39,2.33,42.44.58a183.09,183.09,0,0,1,35.6-1.09c24,1.64,46.9-4.42,68.4-11.92,11.29-3.94,19.73-13.37,29.46-20.33h0c10.36-2.11,19.94-5.24,26-13.1,3-11.83,14.36-18.5,24.17-26.07,2.87-2.21,6.86-1.64,10.5-1.1,40.11,6,79.18.41,118.07-7.11,8.39-1.62,16.74-3.35,25.11-5a7.66,7.66,0,0,1,1-.38l-1,.38c9.83.33,18.83-2.93,28.19-4.55,14.3-2.48,28.28-1.58,42.39.54,6.52,1,13.14,1.75,19.49-.84h0l6,.14h0c9.22,6.45,20.51,3.16,30.57,3.47,28.28.86,56.34-1.21,83.31-9.55a97.52,97.52,0,0,0,19.24-8.36c9.11-5.1,18.45-7.2,29.06-3.15,2.29.88,5.19.72,7.81,1h0c24.72,4,48.82-.7,73-3.66,14.81-1.81,26.69-9.38,39.66-14.69C3152.9,197.25,3159.78,196.14,3164.32,191.79Z"/><path class="cls-10" d="M3155.94,177.08c-18.9,7.59-41.45,20.27-61.82,21.21-4.59.21-9.65-.43-14.34-.41-11,0-22,0-33,0-21.41,0-43.8-1.5-63.73,4.05-8.91,2.48-15.48,10.15-24,13.82A109,109,0,0,1,2930,223c-10.72,1-20-.16-30.46,2-11.42,2.32-20.63-1.59-33-2-20.87-.7-37.28-8.3-58.39-8.42-22.89-.13-43.12,8.47-66,8.3C2720,222.66,2701,227,2678.68,227c-10,0-20.84,1.14-30.47-.93-5.44-1.16-9.76-2.42-15.35-3.23s-8.4-2.91-13-3.8c-11-2.13-26.95-2.13-25.23,8,1.29,7.58,13.64,11,13.39,18.74-.32,9.73-18.71,6.62-27.91,6.71-11.13.12-20.71,3-32.93,4.38-.71,6.06,7.07,8.72,3.68,15.08-1.27,2.38-8.09,6.23-10.54,8.11-9.44,7.25-16,9.16-29.19,9.34-11.82.16-23.71.15-35.54,0-12.75-.14-22.74,3.86-35.44,4.13-16.94.35-33.92,0-50.87,0-4.7,0-10.72.6-15.35.1-7-.77-8.67-3.25-14.85-4.47-21.52-4.26-55.67,9.38-71.4-6-8.63-8.44-5-17.21-20.14-18.83-14.11-1.51-31.72-.88-44.8,3.1-23.59,7.17-46.68,18.62-72,21.72-17.33,2.13-40.62-6.79-56-12.28-14.38-5.15-27.3-13-40.9-19.74-10.32-5.13-20.08-11.42-30.46-16.63-9.37-4.7-21.11-11.34-28.41-18.08,20.79,8.74,39.81,16.78,64.2,12.68,9.48-1.59,21.63-6.12,30.71-9,6.56-2.11,10.91-8.48,18.42-7.5-24.43.74-47.3-3.09-71.43-4.28-17.64-.87-31.54,4.07-48.54,7.5-13.77,2.78-27.67,4.85-41.19,8.32-5,1.27-16.64,2.88-19.46,6-5.49,6.09.67,22.49-2.82,30.35a28.16,28.16,0,0,1-12.79,13.73c-6.17,3.4-13.15,2.67-15.74,8.94-1.7,4.09,2.25,7.66-.67,11.86-3.26,4.69-12.23,7.3-18,8.33-13.24,2.37-19.13,4.66-31.38,10-16.6,7.18-40.06,23-60.51,15.11-.53-2.39-1.16-4.77-1.89-7.12-12.21,8.35-41.07,3.73-54.74,0A194.7,194.7,0,0,1,1687.61,310c-6.15-3.61-11.18-11.73-18.66-11.82,6.78,16.38,17.43,29.52,34.94,40.17,7.48,4.55,13,3.85,5.84,10.51-6.39,6-27.36,3.09-35.62,2.92-9.87-.2-12.42,0-20.68,3.95-11.46,5.46-18.49,6.62-31.22,9.54-18,4.13-34.79,11.16-53.2,15.81-18.63,4.71-54.16,9.69-72.16.33-9.32-4.85-7.45-14.2-15.68-17.56q-8.36.71-16.76.71a69.22,69.22,0,0,1-25.1-3.87c-14.92-5.59-21.21-16-24-28.66-1.87-8.62,1.37-17.85-.67-26.19-1.4-5.73-7.13-9.35-4.79-15.31,2.78-7.07,24.11-18.36,31.16-21.31,8.08-3.38,21.45-3.34,27.49-9.33-14.94,7.19-31.39,8.63-48.36,10.95-14.78,2-22,0-31.13,9.24-6.09,6.15-11.07,15.71-19.92,19.59-21.66,9.5-45.38-6.5-66.89-2.36-5.32,1-8.25,4.28-13.07,6.25-7.3,3-15.31,1.2-22.62,3.4-2.91.88-11,3.77-10.81,7.38.43,8.11,28.08,6.61,30.77,6.56,17.75-.32,58.85-10.85,72.74,1.46,2.4,2.13,12.72,18.86,12.3,21-8.63,5.36-32.61,6.73-33.81,16.5-1,8.06,27,15.71,31.75,16.47,12.44,2,33.47-4,45,1,12.13,5.32,4.43,16.15-5.63,19.75-24.21,8.65-54.57-.46-79.85,1.51q-9.75,5.32-21.43,1.73-19.62-5.29-38.81-11.58c-12.2-3.51-20.85-4.46-34-2.88-13.9,1.67-29.53,1.22-43.14,3.11-12,1.67-22.29,7-33.61,10.76-16.57,5.47-30.54,6.23-47.86,6.08-9-.08-19.65-1.73-28.23.47-14.35,3.68-22.86,15.69-38.3,19.35-30.82,7.32-83-12.49-87.65-39.08-16,4.86-34.38,2.64-44.31-10-12.65-16.08.29-27.71,5.43-42.52-12.74-9.17-36.06,12.47-50,14.12-22.19,2.63-53.81-7.39-74.59-13.27-9.59-2.71-18.71-3.7-28.22-6.4C752,325,733,318.69,719.66,318.87c-.13,7.41-1.08,9.84-11.86,11.08-18.2,2.08-36.34-6-47.27-17-10.1-10.18-11.39-22.53-20.3-32.82-5.34-6.16-16.91-10.9-23.71-16.21-9.71,3.71-6.73,28.58-2.56,35.09,10.51,16.37,39.84,18.12,58,24.41-16.79,33.58,69.59,28.35,86.17,26.32a96.75,96.75,0,0,1,21.78-1.47A25.76,25.76,0,0,0,791,352.2c7.66.64,16.37-7.08,23.56-5.21,9.18,2.38,4.64,5.37,10.24,12.16,5.28,6.4,15.67,10.41,25.18,9.65,7.11-.56,9.82-4.51,16.46-1.15,6.4,3.24,4.18,13.49,7.83,18.48-9.94,17.1-40.79-3.85-49.17,6.77-11.28,14.31,60.93,3.26,66.31,5.21a19.54,19.54,0,0,0,.84,7c12.36,1.06,26.21,1.12,37.09,7.57s9,20,12.83,30c3,7.76,11.4,19.83,6.9,27.32-7.08,11.76-32.82,12.9-45.5,11.84-19.16-1.61-40.14-3.08-59.32-.53-20.34,2.7-39.34,9.51-59.19,4.87-17.95-4.2-31.39-13.67-47.22-19.64-12-4.53-26.76-4.19-39.43-8.31-15.72-5.1-28.26-12.45-41.59-20.94-21.73,12.18-30.63,35.36-44.89,52.29-12.47,14.79-38.15,5.28-54.74.55C512,477.32,470.83,454.38,449,418.82c-5.87,31.16,13,54.74,43.38,72.79a155.6,155.6,0,0,0,48.34,19.1q9.63,1.07,15.42,6.95c-6.81.08-13.09-1.91-19.75-2.72-20.11-2.46-40.89-.78-61.13-1.16-26.34-.5-53.05-1.3-78.72-6.31-4.42-.86-27.15-5-14.51-12.79-23.48,3.77-41-1.78-64.25-4.27-11.34-1.22-40.49.47-36.84,17.4l16.44,17.88a128.46,128.46,0,0,0,48.2,25.15c20.43,3.18,42.52.82,63,0-15.06,18.33-87,25.71-109.07,17.67-20.67-7.52-53-30-73-9.24-9.51,9.89-2.18,16.27,8.22,24.44,7.7,6,18,14.43,27.26,18.28,16.47,6.85,41.9-.74,59.89-1.06a291.61,291.61,0,0,1,58.35,5.29c-10.1,19.37-50.83.65-68.53,4.53S276,627.47,260.58,635.54q-26.38,18-60.31,22.44a354.74,354.74,0,0,1-48.15-5.14,141.6,141.6,0,0,0-60.71,9.34Q38.79,685.7,41.47,738.59q52.44,137.2,233.9,169.93,307.68,53.49,621,22.27l421.33-38q396-56.53,790.15-121,316.74-36.56,635-62.84c196.52-22.81,417-45,586.37-138.26,76.33-42,143-89.93,180.41-160.26q31.58-54.59,30.5-115.15-.85-51.4-41.06-87.86-23.89-37.72-75.28-51a542.7,542.7,0,0,0-95.66-13.08c-24.73-2.8-48.58-10.39-73.33-12-27.7-1.79-63.31,5.65-86.58,18.7C3141.59,165,3146.73,186.66,3155.94,177.08Z"/></g><g class="cls-11"><path class="cls-12" d="M1962,617.87c6.78-2.77,14.12-3.64,21.73-4.24,20.29-1.6,40.64-1.16,61-1.59,33.49-.72,66.21-4.69,96.58-15.82,21.2-7.77,43.23-10.16,66.06-7.8a188.56,188.56,0,0,0,57.21-2.84,196,196,0,0,1,62.66-2.55c6.32.72,12.74,1.16,19.13,1.36,32.34,1,62.31-7.39,93-13.31,20-3.85,38.75-11,60.22-10.74,18.82.2,37.66-1.35,55.59-6.47h0c2.61-.26,5.38-.17,7.79-.84,26.07-7.21,51.39-7.87,79.18-2.5,33.08,6.38,66.51-.68,98.64-8.58,7.58-1.87,14.92-2.12,22.06.13,18.57,5.87,37.45,5.09,56.6,2.36,7.75-1.11,15.62-1.76,23.44-2.61h0l4.47,1.66A46.15,46.15,0,0,0,2869,550.2c24.78,1.74,49.57.43,74.32-1,9.83-.55,19.83-1.6,27.76-6.39,10.72-6.48,22.46-7.4,35.25-5.42,36.12,5.59,71.23.78,106.12-6,4.41-.72,9.17-.86,13.18-2.25,21.29-7.38,43.45-10,66.88-10.34,15.29-.23,31.38-1.22,45.43-7.38a4.17,4.17,0,0,0,1.41-.62c8-1.72,15.86-3.8,22.25-8.05,12.17-8.12,25.86-11,41.82-7.85,3,.6,6.71-.3,10-.73,35.76-4.7,66.13-18.51,96.36-32.61,22.11-10.31,41.86-23.18,64.31-33.2,27.61-12.32,57.91-17.51,88.74-22,10.27-1.49,21-2.24,30-7h0a54.27,54.27,0,0,0,15.72-3.59c23.06-3.13,43-10.46,57.68-24.73,2.36-2.3,7.19-4.45,4-7.93-3.57-3.85-8.84-3.6-14-1.56h0l-2.48,1.67-4.3,1.9h0a30.16,30.16,0,0,0-5.57.61c-27.5,8.4-56.19,10.46-85.54,9.81-11-.25-21.69,1.85-31.93,5.06-17.84,5.59-33.66,14.05-50.94,20.43-27.05,10-56.85,10.59-85.71,14.56-54.92,7.56-110,14.3-165.45,19.14-25,2.18-47.49,8.5-69,17.69-39.39,12.3-80.58,15.49-122.73,13.86-13.62-.53-27,1-40.3,3-3,.45-7,2.71-9-.41-1.56-2.45,1.58-4.73,3.69-6.71,12.06-11.33,28.74-17,46.27-21.64,15-2.75,29.65-6,43.11-11.88h0l11.25-3.58h0c3.69-.42,7.48-.6,11.07-1.31,7-1.39,16.09-2.25,6.61-10-2.31-1.89,0-3.1,1.65-4.18,3.37-2.25,6.86-4.4,10.3-6.59h0l2.07-1.57h0a351.66,351.66,0,0,1,46.81-4.1c13.1-.3,26-2.54,37.39-8.11,9.53-3.91,19.67-7.26,24.7-15.33h0c9.08-4.07,14.17-12.09,27.12-12.64,21.69-.91,44.23-.89,61.95-13.15a19.57,19.57,0,0,1,4-1.55h0c7.14-.13,14.28-.42,21.42-.34,21.1.24,42.07-.26,62.48-5,12.78-1.91,25.34-4.28,36.26-10.06h0c4-.84,8-1.55,11.88-2.53,28.81-7.18,55.89-18.07,86.75-20.94,15.87-1.48,31.4-5.72,46-11.19h0c21.44-2.25,36.66-11.84,49.59-24.12h0c7.56-1.61,12.46-6.26,18.76-9.29,6.13-2.95,12.92-8.35,20.3-4.52s12.1,1.82,18.21-.92c4.79-2.15,10.3-3.48,15.64-4.84,11.56-2.93,23.91-2.48,35.66-4.47,16.89-2.87,36.09-2.43,45.8-16.7h0l4.42-.62c10.9-1.75,21.95-3.07,32.33-6.32h0l6.49-.1c23.84-1.41,47.34-3.94,69.42-11.28a6.13,6.13,0,0,0,2.77-.93h0c3.45-1.12,7-2.11,10.34-3.39,15.64-6,33-9.55,46.35-18.84H3228c-10.05,7.69-20.2,15.26-23.23,26.54-1,3.77-5.68,3.91-9.89,4.41-17.23,2.08-35.59,4.45-48.36,13-14.33,9.61-30,13.71-47.68,15.89-27.26,2.28-51.61,9.54-70.51,25-5.41,4.44-11,6.26-18.63,6-10.19-.33-20.3,0-28.91,5.06h0c-4.14.31-8,1.19-11.12,3.39h0c-10.94,1.31-19.17,6.48-26.82,11.82-5.71,4-11.56,5.33-19.09,5.67-16.21.71-29.11,6.45-38.06,16.9h0c-18.09,10.91-36.14,21.9-61.64,19.3a7.39,7.39,0,0,0-3.21.75c-16.9,7.05-33.81,4.33-50.33-.47-12.87-3.75-25.82-4.84-38.75-1.65-21.21,5.23-42.26,11-57.11,24.75h0l-8.51,5.55h0c-10.8-2.35-21.41-5.63-32.42-6.9-52.68-6-94.46,12-133.46,35.67h0l-1.77.4h0l-4.52,1.4h0c-25.5,1.46-51,3.08-76.5,4.32-28.4,1.38-52.51,13.91-79.37,19.19a113.87,113.87,0,0,0-19,2.27c-16.18,1.69-29.71,7.81-42.78,14.68-19.59,10.3-33.33,25.45-52.37,36.24-2.31,1.31-7,2.92-4,5.95,2.43,2.45,6.47.83,9.41-.24,13.37-4.84,27.53-5.16,42-5.14A293.84,293.84,0,0,0,2304,478c24.56-2.72,49.47-4.52,72.08-13.34,4.72,0,8.61-1.85,12.7-3.29,11.63-4.11,23.6-8.46,36.51-8,28.77,1.09,55.71-7.73,84.84-6.89,29.69.86,58.61-6.54,86.12-15.62,9.14-3,18.37-3.75,28.55-2.93,12.14,1,24.72,2.48,36.8-1.07,8.81-2.05,16-6.31,23.43-10.15,29.79-15.38,62.83-21.91,98.53-20.37,23,1,45.8,3.11,68.83,3,3,0,6.41-.69,9.89,1.77l-15.09,3.28h0c-9.9,1.35-19.32,3.56-27.17,8.62h0c-6.8,2.18-14,2-21.13,1.95-26.12-.14-49.89,4.7-69.4,18.64h0c-4.59,2.22-8.24,5.25-14.93,4.69-19.87-1.66-36.2,4.74-50.91,14.15h0c-11.25,5.2-20.82,11.66-27,20.65h0c-2.64.68-4.94,1.9-5.62,3.92-2.91,8.66-10.35,9.27-20.77,8.49a123.66,123.66,0,0,0-48.41,6.44l-2.47,1.59c-11.29-1.38-19.66,4.25-29.23,7a62.74,62.74,0,0,1-17.45-3.18c-17.81-5.36-35.7-5.13-53.6-1.14a6.68,6.68,0,0,0-3.73.89h0a148.26,148.26,0,0,0-31.2,7c-8.06,2.78-16,7.17-25.34,6.59-21.71-1.33-41.83,3-61.44,9.12-8.69,2.74-17.07,3-26.37,2.09-18.55-1.86-36.67-.29-52.94,7.66h0c-10.55,4.58-21.37,5.51-33.66,4-14.61-1.77-29.1,1.47-40.19,8.85-13.91,9.26-29.32,13.13-47.52,13.21-17.56.07-33.13,4.81-45.7,14.51-5.66,4.37-12.29,7.95-20.48,8.48-17.24,1.12-34.41,3.43-51.87,1.8-22.29-2.09-43.63,7.21-53.28,22.85l-6.2,3.55h0l-4.64,2.45c-3.85,2-8.25,4.24-5.26,8.2C1952.79,622.12,1957.62,619.66,1962,617.87Z"/><path class="cls-13" d="M4027.53,192.44c-13.6,1.82-25.49,2.51-37.31,6.56-3.87,1.32-7.66,2.9-11.6,4.1-8.24,2.52-15.12,5-23,8.09-14,5.48-26.9,9.06-43.22,7.57-6.87-.62-12.73-3.51-20.08-4.09-4.27-.33-7.33-1.61-11.5-2.12-3.62-.45-7.83.29-11.51.15-4.47-.17-7.23-1.59-11.5-2.16s-6.8,1.63-9.35,1.71c-4.24.13-3.83-1.05-7.78-1.72-2.91-.5-7.17.09-10.21.1-15.61.05-29.74,1.92-44.6,4.49s-31,1.48-46.68,1.57c-9.05.05-16.17-2.06-25.25-2a119.4,119.4,0,0,0-25.91,2.59c-12.83,2.6-24.2,5.26-36.11,9.48-4.63,1.64-8.05,4.14-12.85,5.67-3.11,1-5.17.57-7.55,2.57,5.76.37,10.61-1.71,16.18-2.12,6.89-.51,13.14-2.11,20.21-2,3.12,0,6.28.12,9.4.07,4.82-.09,5.33-1.23,8.57-1.62,5.12-.63,10.37-.34,15.68-.5-8.36-.21-15.47,4.22-22.15,7.12-8.93,3.89-15.78,7.34-25.89,9.59-7.33,1.64-16.81,1-22.42,5.47-6.7,5.38,3.62,10.35-1.1,16.36-3.41,4.35-15,5.89-21.08,6-3.5.05-9.15-.93-12.37.39-3.4,1.39-5.58,4.5-9,6.12-11.75,5.54-24.18,13.25-38.38,15.29-6.6.95-20.14,2.2-24.45-2.13-3.74-3.76.33-10.17,2.56-14.63,1.61-3.21,5.09-5.64-.15-7.23-2.27-.69-12.3-.2-14.51.41-11.61,3.16-18.32,14.76-22.44,22.11s-7.94,4.84-17.84,6.38c-7,1.09-12.09,2.4-17.8,5.63-9.08,5.13-16.35,8.19-26.26,12.07-6.68,2.61-6.67,4.14-14,2.68a130.83,130.83,0,0,1-25.67-8.26c-39.56-16.64,23-38.09,31.41-54.5,2.24-4.38,6.26-17.71-4.92-16.61-2.64.26-8.06,5-10.1,6.21a156.5,156.5,0,0,0-22.28,15.63c-5.16,4.42-11.09,8.17-16.29,12.38-3,2.4-8.86,6.78-9.61,10-1.13,4.86,5.65,12.86,6.24,17.92.43,3.76-1.2,7.89.07,11.57s6.22,5.28,7.4,8.71c-14.86,2-29.81,2.55-43.24,8.41-4.82,2.09-8.47,7-13.14,8.24-3.09.8-9.75-.21-13-.16-15.62.23-33.72,3.78-47,9.52-10,4.32-18.33,13.12-31.66,10.41.17-7.09-12.42-8.81-20.37-7.53-16,2.58-30.82,9.49-47.54,9.92-14.15.37-26.49,1.52-39,7-4.56,2-15.62,7-16.94,10.71,12.34,2.83,29-1.43,42.06-1.65-6.32-.31-13.41,2.38-19.16,3.93a128.55,128.55,0,0,0-17.26,5.8c-2.77,1.19-6,3.5-9.11,4.19-3.74.82-7.56-.41-11.25.57-5.42,1.45-8.89,6.42-10.87,9.8-2.21,3.78-3,7.84-9.21,9.75-5.17,1.59-10.2,2-15.46,4.1-11.81,4.74-21.28,12-33.5,16.2-10.56,3.65-23,3.91-33.36,7.42-11.49,3.89-19.89,18.13-17,26.21,1.21,3.38,3.06,4.33-2.57,5.19-2.2.34-5.85-.89-7.85-1.21a82.9,82.9,0,0,0-19.42-1c-17.87,1.28-32.87,10.26-44.93,19-7.89,5.73-13.78,7.93-24.27,11.29-8.41,2.7-16.53,5.79-24.56,9-4.06,1.62-10.21,5.37-14.76,6.32-5.24,1.1-9.93-1.82-13.19-5.22,3.78-6.68,10-11.06,18.11-15.58,3.39-1.89,8-3.77,10.43-6.36-19-4.2-37,10-50.86,16.55-10.14,4.81-21.87,9.85-33.9,11.89,3.36,3.24,13.94,3.57,18.76,4.19a124.93,124.93,0,0,0,33,.11c13.17-1.71,25.88-5.65,39.26-6.56,11.62-.79,23.1,2,34.39,3.39,14.88,1.86,29.85,1.19,44.47,2.91,26.36,3.1,45.75-1.88,71.08-6.09,7.36-1.22,15.07-2.59,22.69-2.08,12.43.83,24.1,3,36.75,1.21a158.48,158.48,0,0,1,23.27-1.57c18.53,0,37.79,1.34,56-1a188.22,188.22,0,0,0,45.06-11.27c10.43-4.08,18.68-5.84,30.44-7,4.88-.49,11.18,0,15.74-1.15,4.85-1.19,9.3-6,13.9-7.93,12-5.1,24.66-4,37.58-6.35,6-1.11,11.58-3.47,17.21-5.28,25.64-8.23,57.74-11,77.63-25.5,8.16-6,16.89-8.89,27.56-11.81,16.88-4.63,32.38-9.28,50.28-11.77,6-.83,18.13-.23,24-1.78,4.08-1.08,6.6-2.74,11.58-3.9,10.87-2.53,21.06-6.34,32.19-8.34,23.77-4.26,48.39-4.24,71.46-10.91A437.34,437.34,0,0,1,3653.37,384q39.18-4.89,77.88-11.35,11.92-8,17.92-1.88c-21.26,21.35-46.83,39.88-74.63,57.08q-61.23,35.75-135.4,56.2L3464.42,500q-80.52,11.64-159.29,28.22l-86.05,20.45A1733.31,1733.31,0,0,1,3037.38,586q-58,8.07-116.81,11.07c-55,3.52-110.05,6.07-165.3,6.7-39.1.45-79.71,2.21-117.83-4.7A140,140,0,0,1,2600,589a120.55,120.55,0,0,0-42.28-3.33q-24.21.33-48.26,2.58a44.55,44.55,0,0,1-25,.09,159,159,0,0,1,33-29.6c23.81-16.18,54.12-21,82.53-31q11.86-.39,12-7.17,3.41-4.14-3.17-6.07c-8.91-8.16-27-3.15-38.05-.47-26.16,6.39-48.81,17.79-73.85,25.67-6.76,2.13-14.33,2.93-20.3,6-7.4,3.8-11.74,10.56-14.72,16.56-2.53,5.12-4.41,9.79-14.81,6.91-17.13-4.74-1.52-17.1-12-23.44-6.4-3.87-13.21-3.48-20.64-1.56l-9.58,3.42-1.64,2.56c-8.06,4-19.34,5.07-29,7.33-7.81,1.82-19.85,7.15-28.28,6.81q3.13-7.84,14-12,14.31-5,20.93-14.8c-7.7-3.39-13.26-3.65-22-.33-9.25,3.51-14,11.1-23.58,14.16-13.72,4.4-31.22,3-45.8,2.13-3,6.27,16.22,14.73,22.43,17.09-18.62-3.45-37.56-4.92-56.55-6.93-5.29-.56-12.71-2.34-18.12-1.45-8.39,1.38-17.05,5.77-25.52,7.61-14.5,3.15-30.42,3.45-44.77,6.88-11.38,2.71-22.27,7-33.27,10.39-15.21,4.64-31.2,11.62-48.21,9.06-27.56-4.16-54.79,12.14-83,6.72-7.11-1.37-12.53-4.94-19.65-5.94-17.2-2.41-36.39,3.52-51.92,7.41q-10,.79-14,7.41-12.89,8-4.56,20.5-2.6,21.53,19.53,37.92,16,32.28,63.38,44.24,50.31,30.27,116.57,37.36a767,767,0,0,0,155.49,25.85,916.83,916.83,0,0,0,170.46,11.94,1360.93,1360.93,0,0,0,173.38-1.45c117.87-4.73,235.7-9.89,353.56-14.77q91.89-2.54,183.19-10.22,95.1-4.82,188.87-16.88,96.38-8.68,190.93-24.37,93-11.6,183.42-30.68A924.17,924.17,0,0,0,3868.35,655q64.56-11.57,114.26-42.18,46.36-15.4,69.53-47,28.84-21.27,36.67-50,16.49-25.45,16.47-53.45a99.08,99.08,0,0,0,.58-55.46c-4.2-31.7-13.82-61.9-24.61-92.8-6.7-19.2-13.52-38.49-24.71-56.68-5.42-8.81-12.24-17.19-17.19-26.12-3.48-6.28-6.21-12.65-10.75-18.58-3.79-5-9.28-9.84-11.78-15.2C4012.67,188.6,4016,186.09,4027.53,192.44Z"/><path class="cls-14" d="M3506.77,175.3a432.91,432.91,0,0,0-62.14-5.34c-.7.94-11,2.22-14.35,2.89a168.66,168.66,0,0,0-18.46,4.57c-10.84,3.47-21.43,10.5-29.55,16.88-2.91,2.28-4.5,5.28-7.14,7.72-3.67,3.38-5.41,2.89-10.51,4-1.88.41-2.37,1.75-4.44,2.1-2.34.38-4.92-.32-7.35.06a103.74,103.74,0,0,0-15.82,3.57c-11,3.72-18.24,6-25.24,13.79-5,5.61-9.26,13.67-9.34,20.57-.09,7.59,5.5,16,9.49,22.87,3.75,6.47,6.25,13.16,10.43,19.15-6.42,2.46-7.73-1.12-11.87-3.43-1.8-1-4-1.57-5.83-2.6a37.55,37.55,0,0,1-6.83-5.44c-3.3-3-6.61-6.34-8.31-9.84-2-4.13-.27-8.53-2-12.86-4.18.38-9.08,6.31-11,8.92-2,2.77-3.9,5.6-5.81,8.32-1.45,2.06-2.6,5.53-4.83,7.13-8,5.77-21.36-2.45-29,6.33-2.82,3.24-3.86,9.26-4.95,12.63s-.77,8.22-4.89,11c-8.07,5.39-10.05-4.4-11.64-8.81-2.49-6.91-3.15-12.47.6-19.59s6.81-12.31,13.92-17.47c2.44-1.76,10.82-8.08,3.49-8.94-1.54-.19-4.22,2-5.5,2.4-3.85,1.32-8.13,1.69-11.81,3.66-9.65,5.19-13.4,13.28-19.42,20.44-4.38,5.23-7.6,3.5-14.95,4.16-9.5.84-19,5.31-25.55,10.4-6.86,5.3-10.92,10.77-8.48,18,1.27,3.76,3.61,10.47,6.82,13.26-4.49.24-9.29-4-13.81-5.19-9.42-2.45-17.51-1.11-26.6,1.73-3.55,1.11-10.13,5.4-13,2.13-3.69-4.21,5.78-15.2,8.35-18.58,9.68-12.7,32.19-14.88,46.29-23.72,2.61-1.64,8.18-6.08,8.75-8.77,1.33-6.29-11.23-7.38-17.21-8.86-6.21-1.53-12.77-2.86-19-4.06-5.13-1-11.83-2.56-16.89-1.46-9.22,2-18,4.84-25,9.9-4.5,3.24-7.36,7.86-11.75,10.94-6.28,4.4-18.25,4.76-26.16,6.55-12.82,2.9-20.54,2.92-27.7,12.54-3.62,4.87-2.38,6.13-3.6,11.13-1.34,5.51-5.59,10-9.83,14.46-6.57,6.87-14.1,15.21-24.36,19.13,1.85,2.34,11.2,1.66,14,2,8.28.93,16.59,2.69,24.8,3.93,9.94,1.49,20.35,3.32,29.62,6.57-7.87,3.26-18.43-.4-26.68-1.27-10.26-1.09-21,.07-31.14,1.77-6.43,1.07-11.41,1.55-15,6-4.94,6.17-2.4,10.67-4,17-2.33,9.4-21.24,1.79-28.91-.74-9-3-11.61-9.08-19.92-12.51.38-3.48,4.71-2.54,7.69-3.68,5.63-2.15,6.1-5.57,6.52-10.94.63-7.82,1.24-20.32-10.86-22-10.66-1.5-25.77,3.51-23.63,13.16,1.54,6.94,9.84,18.7,17.44,23.29-5.33-8.79-20.07-13.17-32-14.58-5.31-.62-11.54.14-16.93.07-12.59-.17-22.69,3.06-34.86,4.31-12.59,1.3-26.76-2.67-38.62-5.44-3.05-.71-8.36-2.2-11.52-.92-2.85,1.15-4.8,5.17-6.75,7.3,4.58,7.91,17.5,9.38,26.23,13.46-9.94-4-29.2-2-39.21-.1-16.31,3.16-28.82,11.27-43.46,16.91-14.23,5.48-30.17,5.85-44.6,10.61-8.17,2.7-14.31,7.8-22.15,10.47a54.69,54.69,0,0,1-9.83,2.4c-6.54.63-8.13-3.41-13.54-4.78-8.42-2.14-15.42,2.37-23.43,4.79-3.53,1.07-12.66,4.91-14.29-.33,4.81-6.43,12.31-8.92,19.24-13.73-3.16-2.9-9.48-.93-13.54-.12-14.62,2.93-27.69,8.46-40,15-4.54,2.42-6.42,4-10.73,5.37s-8.81,1.35-13.27,3.14c-8,3.21-15.06,7.36-24,9.09-7.23,1.39-14.37,1.08-21.76,1-13.92-.07-26.58-1.56-40.26-2.36-21.27-1.24-37.13,8.53-57.3,10.51-10.57,1-18.08-1.81-28.22-2.95-16.46-1.85-24,2.16-40.67,8.21-16.16,5.85-32.26,14-50.95,11.83-10.9-1.29-21.1-4.28-31.94-5.85-13.3-1.92-26.57-2-40.08-2.17-11.36-.17-35.26,1.05-44.89-3.53l-9.61-6.31,2.4-21.34A320.44,320.44,0,0,1,2178.15,364a169,169,0,0,1,34.93-47.12l58.22-46.16,94.62-56.89a904.33,904.33,0,0,1,168.48-70.16,1586.65,1586.65,0,0,1,182.4-53.9c69.81-17.82,140.13-34.72,211-49.93q55.55-11.61,111.61-21.69,42.64-8.33,86-14.45c71.45-7,148-5.22,215.62,14.63,26.46,7.77,51.67,17.6,77.26,26.88,20.52,7.45,39.31,15.52,57.54,25.7,15.05,8.4,30.34,17.32,42.45,28.23,9.82,8.84,12.14,16.75,9.93,27.68-2.84,14.08-8.53,27.71-20,39C3506.08,168,3494.38,182.66,3506.77,175.3Z"/></g><g class="cls-15"><path class="cls-16" d="M3916.47,338.14c-16.86,6.85-33.82,13.56-50.27,21.08-11,5-21,12.69-26,21.87-6.58,12-16.85,14.8-30.09,16.14-23.24,2.34-40.67,14.45-58.07,26.42l-8.91,3.85c-14.74,5.08-28,12.68-30.47,26.61-2.51,14.16,1.29,28,16.64,37.16l.73-.48.08.07-.81.42c-1.81,3.83-6.31,4.15-9.95,5.62-16,6.46-31,13.61-30.31,31.82.16,4.33-3.21,6.24-8,6.34-5.24.11-10.49.33-15.72.11-16.42-.71-32.16.71-45.78,9.65h0c-22.73,8.81-41.22,21.82-54.23,40.22h0c-5.51,8.83-12.57,15-25.77,12-2.72-.61-5.93.21-8.89.54-49.72,5.56-79,34.38-104.38,67.49-2.09,2.72-1.83,6.76-2.66,10.19-4.15,1.34-7.74,3.73-12.44,4.08-40.21,3-75,17.94-107.12,37.5-12.92,7.86-29.08,14.62-28.51,31.78-4.15,1.87-4.89,5.49-5.75,8.82-2.32,9-8.19,16.23-15,22.93A59.22,59.22,0,0,0,3244,794.65h0c-3.47,1-5,3.44-6.4,6h0c-9.79,7.89-11.14,18.19-11.24,28.85h0c-4.08.24-8.24.12-12.22.79-18.28,3.07-32.61,14.75-51.2,17.36-3.08.44-4,2.93-3.9,6,.24,8.08-6.4,11.69-14.14,10.2-8-1.54-10.16,1.34-11.84,6.44-1.22,3.68-2.23,7.41-3.34,11.12h0c.12.67.23,1.34.35,2a12.72,12.72,0,0,0-.53,1.69h0c-4.74,5.12-9.57,5.57-16.26,1.8a80.11,80.11,0,0,0-84.83,4c-2.7,1.09-5.61,1.92-8.07,3.32-9.45,5.38-15.45,3.68-21.48-4.89-6.5-9.23-15.95-16.78-26.11-23.41h0c-14.73-13.2-29.85-25.7-53.49-25.15-10.42.24-20.89.4-31.29-.1-18-.86-35,.95-49.63,10.9-4.67,3.17-9.25,2.59-14.54.47-8.4-3.36-14.6-10.13-24.36-11.26h0c-23.51-13.71-59.44-11.07-81,5.95h0c-3.82,1.46-8,3.1-9.23,6.61-3.86,11.15-13.71,13.91-25.65,15.2a93.85,93.85,0,0,0-21.57,5.14c-23.9,8.69-40.93,23.63-49,44.69-6.88,18-13.54,24-36,26.37-5.58.59-11.65.48-15.81,4.06-14.72,12.67-30.43,24.81-41,40.34-4.69,6.89-9.05,8.35-16.93,5.43-30.25-11.22-59.3-6.82-85.29,8.26-28.32,16.42-37.09,29.59-25.2,53.38,4.23,8.46.62,11.8-6.33,15.13-14.32,6.88-28.54,13.88-43.16,20.34s-33.82,7.25-42.95,21.06c-6.44,9.72-15.34,11.24-27,11.33-18.11.13-36,2.09-50.78,12.62a2.23,2.23,0,0,0-.7.49,96.27,96.27,0,0,0-41.32,25.54c-12.66,13.28-28.1,17.75-47.76,13.37-28.35-6.32-54.93-1.75-79.47,11.7a136,136,0,0,1-63.31,17c-11.8.29-23.5,3.65-35.23,5.7-3.53.61-6.42,2-6.53,5.58-.1,2.94,2,4.7,4.86,5.92,5.09,2.19,10.57,3,16.17,3.69,30.14,3.76,60.44,1.6,90.66,2h0c4.38,2.48,9.32,2.06,14.15,1.88,44.71-1.65,88.88,1.24,132.33,10.89a301,301,0,0,0,77.83,6.48c15.62-.63,29.81-5.08,43.35-11.42,5.18-.26,9-3.07,12.94-5.38,10.58-6.12,21.83-9.59,34.87-7.61,5.13.78,10.39,1,15.59,1.35,29.36,2.27,58.93,3,87.1,12,9,2.9,18.93,3.6,28.76,3.45,41-.62,77-14.64,111.33-32,11.62-5.86,22.45-7.25,35.1-5.92,13.69,1.43,27.77,3.78,41.23,2.43,44.12-4.43,88.48-8.76,129.07-26.2,8.11-3.48,16.06-3.73,24.9-1.43,36.82,9.56,72.94,8.69,107.68-6.79,5.76-2.57,11.65-4.34,18.27-3.3h0c14,8.71,28.11,16.7,46.78,15.49,24.57-1.6,48.82-4.36,72.22-11.28,4.61-1.36,9.19-2.52,14.2-1.78,12.47,1.85,25,3.59,37.45,5.37h0c12.92,4.22,25.83-.44,38.72,0,36.81,1.26,70.66-8.12,103.35-21.2,8.53-3.41,16.93-5.09,25.94-3.78,15.2,2.21,30.48,1.67,45.76,1.69h0c5.6,0,11.3-.61,16.78.06,32.75,4,59-6.73,81.57-25.89a27.78,27.78,0,0,1,14.67-6.43,190.27,190.27,0,0,0,69.38-23.1c14-8,27.87-10.79,45.25-7.6,23.89,4.38,48.94,8,71.1-6.38,17.81-8.1,36-15.65,53.29-24.49a69.88,69.88,0,0,1,35.05-8c42.3,1.31,83.43-4.58,123.84-15a1043.52,1043.52,0,0,0,147.87-50.17c11.54-4.91,17.31-10.26,15.11-21.13h0c-1.18-3.4,3.58-8.63-4.2-10l-2.38-3.75,2.21-4A16.28,16.28,0,0,0,4033,931.5h0c-.82-1.33-1.63-2.67-2.44-4h0c2.46-3.1,2.46-6.63,2.46-10.17q0-212,0-424c0-3.88.11-7.78-4.29-10.32h0l4.2-3.71h0c0-1.86,0-3.72.07-5.58h0c-1.47-1.9-2.93-3.8-4.4-5.69h0c4.47-2,4.38-5.63,4.38-9.18,0-34.14-.1-68.29.09-102.44,0-6.93-3.12-9.83-11.28-9.72-16.44.23-32.89,0-49.33,0,15.33-3.93,31-.87,46.53-1.85,5-.31,10.69,1.08,14.06-3.77h0c-.13-.73-.27-1.46-.4-2.2,0-1.2,0-2.41.05-3.61h0c-4.71-7-13.17-5.38-20-5.42-18.65-.11-37.31,1.29-56,1.29C3942.61,331.12,3929.17,333,3916.47,338.14Z"/><path class="cls-17" d="M4116.07,749.73q-50.85,27.78-100.56,57a14.35,14.35,0,0,1-.58,6.59c-4.27,5.1-8.43,8.78-11.72,14.56-3.58,6.25-2.49,8.28-8.43,13.41-6.77,5.84-8.05,3.15-15.83,6-26.31,9.6-56.28,10.07-80,28.25-20.06,15.34-21.48,44.6-50.75,50.29-14.29,2.78-30.43-2.83-44.66.86-3.36.87-10.78,7.51-14,7.79-8.49.74-13.81-6-21.54-7.94-29.5-7.27-58.3-6.91-85.59,5-5.79,2.53-10.84,7.5-16.83,8.92-6.21,1.47-16.55-.12-23.1-.22-14.9-.21-31.72,4.13-46,8.56-12.74,4-31.22,10-40.07,19.52-11.91,12.85,3.18,13.67,16,16.94,10.28,2.62,14.11,4.73,25.8,2.71a279,279,0,0,1,28.36-3.51c7-.56,43.34-5.68,43.65-9.21-37.87,9.12-80.26,14.24-119.09,22.51-16.43,3.49-33.56,4.31-50.09,7.05-6.54,1.09-16.52,5.86-24.07,7.58-9.86,2.25-13.26-.45-21.29-2.94-6.24,8.34-31.12,4-41.51,4-14.42,0-26.87-2.28-40,0-17.75,3.12-27.46,5.05-45.64,1.06-7.2-1.58-14.36-1.14-21.53-2.15a7.82,7.82,0,0,0-14,0c-27.89,4.16-49.31-3.09-72.9-13.59-13.1-5.83-24.65-4.92-40-4.88-6.86,0-16.52,1.58-23.12.25-6.86-1.39-8-8.05-16.24-4.26,1.51,5,11.1,9.31,16.26,13.39,8,6.37,15.47,13,23.67,19.2,15.17,11.5,17.25,7.9,38.13,10.22,8.53,1,15.91,4.45,24.35,5.41,6.76.77,15.15-2.54,21.39.74,3.19,1.67,6.58,5.58,7.26,8.64,2.18,9.91-3.52,9.35-12.54,11.09-19.18,3.71-42.14.17-59.39,6.51-10.53,3.88-19.81,14.2-30.75,17-14.69,3.71-32.47-.9-46.08-4-15.73-3.62-21.56.81-34.13,7.35-6,3.09-11.87,7.84-18.37,10.14-10,3.54-24,1.13-33.67,5.74-8.84,4.19-17.07,13.24-24.47,19.77-8.79,7.77-13.49,9.76-26.21,9.63-9.62-.1-20.8-1.43-30.23-.25-8.57,1.07-13.95,4.38-22.53,4.32a55.72,55.72,0,0,0-17.1-4.32q-10.29.18-20.56.27c-6.41.11-11.84.3-18.1-1.09-14.23-3.15-24.76-3.62-40-3.78-17-.18-27.84,8.41-44.38,10-5.13.48-13.84.94-18.66,0-6.1-1.16-7.74-6.6-15-4.88,8.6-4.11,15.79-8.94,25.39-11.59,11-3,16.6-.12,27.43,1.62,15.93,2.57,41.69,3.11,57.74-.79,13.26-3.22,23.81-13.34,36.36-18,6.85-2.51,15.17-3.62,22.29-5.75,12.52-3.76,25-8,37.42-11.78,9.58-2.92,20.2-3,29.13-7.74-4.93-5.57-8.84-4.3-16.22-4.89-9.52-.76-15.49-2.92-24.34-4.46-10.65-1.86-21.21.12-31.9.93-13.66,1-21-1.42-34.34,3-26.73,8.94-50.77,15.19-79.5,15.15-26.55,0-52.76-6-79.14-5.1-23.08.76-36.54,16-57.61,20.1-12.69,2.46-34.17-5.25-46.11.5-5.51,2.65-7.31,9.33-12.41,12.7-3.11,2-8,2.17-11.44,4.28-9.37,5.74-29.48,25.16-32.08,34.67,6.76,4.78,10.8,10.9,20.1,12.1-11.13,6.55-23.05,12.69-34.79,18.28-8.69,4.15-15,8.53-25.57,9.75-8.59,1-17-.58-25.58.59-12.86,1.76-25.56,3.85-38.57,5.58-10.41,1.38-22.47,2.63-32.55,5-6.34,1.46-10.06,5.36-17,3.19-4-16.65-14-26-33.85-30.44-19.38-4.39-41.21,8-61.82,10.87-18.81,2.6-21.49,10.58-36.56,19.09-9.45,5.34-24,9.18-34.93,11.11-19.62,3.47-34.37-7.46-51.23-10.33-30.18-5.14-62,5.06-90.47,11.69s-50.79-15.27-77-11.29c-7.24,1.1-13.53,7.09-21.13,8.75-12.33,2.69-25.74.48-38.26.72-8.8.16-15.78.23-24.39,3.19-33.23,11.42-4.16,37.58,9.53,51.54,99.81,101.8,275.86,97.32,417.54,107,185.91,12.72,371.47,39.24,558.61,32.38,177.67-6.51,341-64.06,507.27-110.28,111.51-31,227.64-50,340.58-76.68,93-21.94,185.65-49.89,281-63.07,53.88-7.44,109.07-9.23,161-24.54a207.35,207.35,0,0,0,52.43-20.14q21.38-15.09,9.42-35.52c-9.9-43-40.84-79.84-67.75-116.41-19.07-25.92-43.32-52.88-58.38-81.08-10.78-20.18-18.75-41.29-29.74-61.48C4107,784.15,4115.91,757.61,4116.07,749.73Z"/><path class="cls-18" d="M4121.78,305.23c-35,18.63-76.63,32.53-97,63.5-7.42,11.29-7.67,16-22.71,20.74-25.74,8.08-50.2,12.45-67.16,34.08-14.07,17.94-16.63,39.6-28.4,58.62-2.94,4.74-9,24.94-18.84,23.92-10.53-1.11-6.19-28.08-4.28-34.76,3.33-11.72,36.72-55.24,10.25-54.08-24.95,1.09-39.76,29.79-52.92,43.07a111.76,111.76,0,0,1-27.1,19.67c-9.93,5.12-25.14,9.79-28.83,20.38-1.86,5.33,2.07,10.1-2.29,15.13-4,4.58-8.83,2.9-13.27,5.76-11.08,7.16-17.62,22-18.5,33.07-.55,7-2.15,12.27,5.41,15,2.46.9,8.8-.59,11.84-.48,5.05.19,10.06,2.53,14.46,2.76,12.09.63,23.46-6.18,36.62-7.62,16.65-1.83,87.83-7.32,91,13.79-16.06,4.23-37.64,1-54.38,1-8.34,0-16.69.11-25,0s-12.1,2.64-18.28,3.78a112.41,112.41,0,0,1-38.68-.11c-9-1.67-8.23-2.79-16.82-.37-9.31,2.63-21.22,7.42-29.1,12.44-13.64,8.69-11.07,21.56-28.13,23.42-7.7.83-15.08-1.42-22.69.64-8.45,2.29-17.58,9.7-24.66,13.93-15.15,9.06-23.95,19.42-36.39,30.38-13,11.49-32.42,16.77-45.61,28.45,19.84-.86,37.47-4.65,56.57-1.54,7.62,1.24,19.29,1.39,26.15,4.72,6.63,3.23,8.93,9.21,16.1,11.72-8.56-.12-14.34-4.53-22.1-6.81-12.63-3.72-20.86-2.06-33.36,1.48-15.09,4.28-20.16,9.93-36.85,9.73-19.21-.23-26.72,3.13-43.65,9.91-10.59,4.23-32.32,9.35-43.93,8.78-7.74-.37-13.53-4.55-21.15-4-14.41-10.35-56.18,3-25.67-24.43,15.13-13.62,30.66-21.59,50.53-29.3,8.52-3.3,33.46-15.44,34.9-23.41-15.81-5.75-28.41,5-39.34,13.55-15.94,12.41-31.25,20.24-51.6,24.63-14.95,3.22-22.8,4.74-34,14.22-16.54,14-28.6,31.11-45.74,44.76-7.9,6.29-41,17.5-35.19,29.19,3,6.09,19.39,6.9,26.56,8.77,18.17,4.73,31.82,11.7,43.54,25.06,6.41,7.31,8.07,22.94,17.16,27.69,17.76-6.54,30.48-27.74,50.92-28.12,8.46-.15,10.72,2.89,17.73,5.39,19.06,6.8,26.48,3.26,44.73-4.88,37.67-16.81,79.53-46.83,125.32-38.85,17.15,3,33.41,11.8,48.21,19.6,7.79,4.1,14.91,11,24.68,9.37-12.07.63-23.5,3.84-35.79,4.08-18,.35-35.29-4.25-53.38-4.18-23.33.1-42.72-5-65.06,5.53-26.36,12.4-37.12,35-65.52,42.27-11.43,2.91-11.79-.16-18.68,10.56-6.67,10.38-3.2,15.5-16.61,20.11-11.84,4.06-15.7,3.83-23,13.85-6.38,8.73-8.11,21-17.14,28.18-5,4-10.36,6.56-17.14,5.78-11.81-1.35-10.41-5.51-23.57-.84-13.45,4.77-26.8,10.9-39.7,16.54-4.32,1.88-10,9-15.74,4.13-8.12-6.89.84-37.17-1.43-46.43-6.25,1.85-21.23,6.87-27.24,2.27-4.57-3.5,1.33-14.17-1.5-19-21.94-37.35-100.29,42.23-118.69,52.89-8.66-16.14,19.56-43.45,31.17-51.37,10.4-7.09,31.77-11.24,30.82-25.41-7.78-.55-13.9,5.65-19.72,9.61-16.07,10.94-30.52,24.8-48.37,33.81-23.2,11.69-50.36,9.76-73.47,19.55-26.15,11.08-63.68,11.4-83.1,31.61-25.38,26.39,10.29,41.74,17.72,65.49-8.85,1.41-15.48,5.74-24.28,5.87-24.43.37-60-28.85-82.53-17.3-9.57,4.91-13.77,14.94-25.87,18.15-14.48,3.84-30.56,1.51-45.21.36-8.93-.7-32.54,1.22-35.6-8.47,19.32-20.56,45.92-32.7,66.53-51.76,6.24-5.77,18.5-14.84,17.38-23.66-12.26-3.71-26.51,5.47-39.93,3.44-7.54-1.15-13.76-4.69-21.85-3.76-11.13,1.28-24,9.38-34.25,13.1-8.2,3-19.46,4.62-23.7,12.41-5.36,9.86,1.62,28.15-.12,39.2-1.48,9.42-6.23,20.52-16.74,25.83-11.17,5.65-28.94.93-42,2.24-17.83,1.8-24.92,8.78-38.63,17.51-13.95,8.89-29.87,25.87-40.91,6.38-6.25-11,0-23.81-3.85-34.31-3.19-8.71-9.33-4.94-2.77-15.88,3.92-6.53,48.07-48.77,25.42-57.27-22-8.23-37.5,29.66-51.87,34.55-5.91,2-12.67-1.09-18.57-.58-7.86.69-12.05,4.26-19,8-9.57,5.25-21,9.19-30,15.06-7.47,4.87-9.68,9.76-15.38,16.1-9.94,11.06-36.12,13-42,25.31,10.61,13.21,24.66,22.09,38.45,32.88-16.84,5.66-36.75-14-54-13-11.18.71-21.6,7.79-32.45,10.38s-21.44,2.28-32.47,4.51c-28.29,5.72-50.74,31.72-80.82,33.79-10,.68-12.93-3.28-21.32-6-23-7.58-47.74,13.38-65.1,24.44-7,4.47-12.22,10.22-20.91,9.6-3.26-.23-7.48-4.42-11.46-5-23.4-3.26-42.76,16.73-63.34,20.14-9.37,1.56-50.47-10.74-49.66-18.77,45.65-25.91,92.45-50.14,138.63-75.34,24.22-13.22,44.48-24.89,62.86-43.4,23.6-23.76,49.22-41.81,79.92-57.8,15.24-7.93,28.66-11.18,45.24-15.14,12.56-3,23.81-8.58,36.89-11.46,51.93-11.47,97.07-36.39,143.49-57.57,24.48-11.18,51.12-21.14,74.2-34.19,31.78-18,73.19-20.81,108.39-34.1,65.86-24.86,135.8-44.21,205.48-59.57A308.75,308.75,0,0,0,3084.19,716c16.57-9.88,35.06-17.63,47.56-31.25a47.09,47.09,0,0,0,14.63-29.36L3177,618.33l72.08-52.64q62.52-39.37,128.25-74.63c64.09-35.2,129.19-69,193.41-104.06,51.57-28.13,103-55.93,156.23-81.71,52.89-25.59,106.64-47.89,156.06-78.17,35.13-21.53,71.07-42.85,104.69-66.13,15.83-11,28.1-26.48,44.26-36.26,33.19,4.88,27.52,53.33,27.46,72.13a324,324,0,0,0,.1,49.94,65.29,65.29,0,0,0,15.64,28.33c9.2,14.54,5.91,29.71,10.82,45.39C4090,333.2,4096.64,342.82,4121.78,305.23Z"/></g><g class="cls-19"><path class="cls-20" d="M1874.76,1075.63h0c28.6-8.8,58.39-8.79,88.24-8.21a263.86,263.86,0,0,0,57.41-5.32,262.81,262.81,0,0,1,27.92-4.57c27-2.47,54.2-3.25,80.82-8.14,21.48-3.94,39-13.22,52.38-27.84h0c3.62-3.13,7.65-6,10.75-9.46,3.79-4.21,1.48-7.81-4.78-8.4-3.58-.34-6.17,1.21-8.89,2.83-20.27,12.13-43.75,18-67.87,19.41-23.1,1.4-45.38,4.22-67.17,10.55-8.71,2.54-18.26,4.67-27,2.49-24.35-6-48.22-5.69-72.42.2a22.28,22.28,0,0,1-18.1-3.51,30.06,30.06,0,0,1,4.19-1.78c27.71-6.28,51.59-20.65,79.68-26.17,3.69-.72,7-2.9,10.35-4.61a27.81,27.81,0,0,1,14-3,392.2,392.2,0,0,0,68.45-3.26,96.56,96.56,0,0,0,32.15-9.19,63.74,63.74,0,0,1,20.89-6.24c10.79-1.26,22.39-1.05,31.56-7.42h0c3.62-1.83,8.78-2.92,10.59-5.59,8.53-12.59,22.46-11.32,36.15-10.73,30,1.28,57.87-5.62,85.21-14.8,22.8-3.65,43-13,62.88-22,22.45-10.23,45.39-14.64,70.48-12.06,14.7,1.51,28.59-1,42.07-5.54,8.31-2.8,15.69-6.64,19.64-13.89,1.83-3.34,5.69-5.16,9.06-7.3,10.77,1.09,19.48-2.79,27.65-8h0c9.13-4.21,18.16-8.59,27.41-12.61,27.25-11.83,54.65-23.34,85.82-26.36a70.12,70.12,0,0,0,16.91-4c28.15-10.09,53.47-24.89,82.12-34.13h0c16.17-2.23,30.85-8.45,46.54-12.08,22.46-5.2,46-8.32,65.29-20.75,4.81-3.11,14.8-4.59,11.53-10.56-3.15-5.76-10.22-3.5-16.42-1.77a8.42,8.42,0,0,0-2.86.75c-26.2,3.19-52.22,7.28-77.69,13.3-22.28,5.27-44.44,7.79-67.71,5.33-19.16-2-38.15,1-54.6,9.8-20.08,10.78-39.67,21.58-64.39,24-8.46.83-16.55,4.92-24.58,7.94-9.21,3.46-18.06,7.6-27.84,10h0c-20.52,1.3-41.05,3.4-61.58.21-14.66-2.28-27.93,0-39.57,7.93-6.57,4.47-13.52,5.53-22,3.94-6.54-1.23-13.67-1.49-20.27,1h0c-7.44-.31-14.19,1.67-20.58,4.53-16.07,7.2-32,14.53-48.07,21.81h0c-16.15,4.39-31.53,10.7-48.5,13-11,1.51-22,3.07-32.34,6.68a99.64,99.64,0,0,1-52.68,4.09c-16.57-3.11-33.14-3-47.17,7.52-4,3-9.47,2.92-14.94,2.64-22.71-1.14-44.26,2.38-63.58,12.86-5.66,3.07-11.06,3.64-17.62,2.66a218,218,0,0,0-61.49-.34C1987,913.27,1975,918,1965,926.37c-7,5.94-14.3,13.29-26.79,11.18-9.76-1.65-19.6-7-29.45,0-.57.4-1.94.17-2.89,0-15.16-2.3-29.86,0-44.53,3a26.53,26.53,0,0,1-16.2-1.51c-17.66-7.64-37.37-7-56.33-9.34a14.11,14.11,0,0,0-8.46,1.61h0c-2.54.52-5.1.95-7.61,1.56-26.22,6.34-50.28,16.76-74.43,27.09-15.92,6.82-33.74,10.55-47.7,20.54-10.21,0-20.67-1-29.52,4.83h0l-11.65,3.5c-2.2.51-4.89.52-6.53,1.62-8.5,5.67-17.35,4.18-26.87,2.2-10.12-2.1-20.76-3.89-31-.81-17.89,5.38-36,2.39-54.13,2.06-10-.18-20.33-.58-28.34-5.36-17.51-10.44-35.49-5.94-53.67-3.06-18.6,3.65-37.52,6.35-55.14,12.91h0c-10.94,2-21.08,5.87-31.36,9.34-6.34,2.13-12.68,3-19.19,1.78-13.91-2.59-26.73-.08-38.81,5.48-10,4.61-19.6,9.8-29.49,14.58-8.42,4.06-17.32,6.53-27.23,4.45q-43.62-9.13-82.14,10.23h0c-3.17.61-6.43,1-9.51,1.85-18.78,5.2-36.54,13.12-56.71,14.59-2.22.16-4.35,1.1-6.51,1.68h0c-2.66.9-6.55,1.38-6.18,4.31s4.45,2.85,7.16,3.18a327.19,327.19,0,0,1,35.26,6.67c26.38,6.1,52.42,13.37,79.87,15.68h0l5.79,1.59h0c15.55,4.57,31.57,4.51,47.43,2.18,22.12-3.25,43.16-3.4,63.55,6.58,13.6,6.66,29.21,9.55,45.12,10,28.71.75,57.65,3.83,85.86-3.07,23.62-5.78,47.1-5.44,70.79-1a8.71,8.71,0,0,0,4.33.83c20.35,4.15,40.49,11,61.76,1.73,3.41-1.48,8.29-.61,12.49-.83l.06-.25.09,0-.15.23a84.54,84.54,0,0,0,47.35,0l-.14-.22h0l.09.23c5.56,0,11.34.31,16.39-1.8,15.93-6.66,31.16-8.61,49.43-3.93,29,7.45,59.49,4.84,89.4,2.15,17.67-1.58,34.3-6.1,49.16-14.56h0Z"/><path class="cls-21" d="M2887.77,755.31q-15.87,2.88-31.26,7.17c.06,1.3-11.52,3.59-13.7,4.26-5.24,1.6-10.52,4.77-15.56,6.79-6.14,2.46-12.11,5-18.32,7.55a60.3,60.3,0,0,0-12.32,6.3c-2.88,1.92-5.21,4.16-8,6a24.67,24.67,0,0,1-8.18,3.07c-3.37.66-6.12,1.76-9,2.35a108,108,0,0,1-18.48,2.23c-3.84.2-6.3,1.7-10,2.24s-7.6-.53-11.23-.18c-6.89.66-14.79,3.62-21.28,5.8-5.51,1.86-10.67,3.32-16.07,4.69-3.59.91-6.48,2-10.08,3.19-4.07,1.3-7.37.1-11.36.86-5.69,1.08-9.94,3.79-16.1,4.27-7.5.59-13.07,4.9-20.72,6.75-6.59,1.6-12.67,3.22-19.28,6.55-6.34,3.19-11.3,6.91-17.41,10.39s-10.25,7-17.48,9.37c-6.86,2.24-11.83,6.1-18.72,7.54-14.83,3.1-30.37,2.36-43.78,11.45-5.94,4-12.35,11.08-21.18,10.51-6.55-.42-13-3.43-19.66-4.67.57-4.14,9.33-4.42,12.4-7.41,5.72-5.56-1.74-4.67-7.66-4.67-6.78,0-12.67.27-18.32,4.14-3.8,2.61-4.5,6.86-7.2,10-5.46,6.28-14.29,10.93-23.16,10.87-5.63,0-9.65,0-14.35,1.57a260.16,260.16,0,0,1-25.21,7.38c-6.75,1.58-14.57,2.2-20.2,5.37-7.06,4-8.79,11.82-14.43,16.54-8.86,7.41-25.67,7-36.82,8.64-6.6.95-12.82,3.69-19.44,4.33-10.88,1.05-21.68,0-32.54,1.51-8.6,1.16-16.89.79-25.47,2.08-6.77,1-13.95,1.25-19.78-2.15,1.46-2.57,5.84-4.27,7-7.36-7-2.39-17.89,3.29-24.14,5.62-5.73,2.13-9.07,5.37-13,9.4-2.67,2.75-4.47,6.45-8.84,7.4-4.55,1-7.7-.58-11.82,1.51-3.49,1.77-5,5.56-8.64,6.54-11.4-9.35-30.25-8.69-45-10.69-10-1.35-18-1.94-27.94.41-4.67,1.11-16.35,3.74-17.68,9-2.61,10.39,37,5,45.35,5.64,5.46.4,21.9,4.47,21.85,10.15-3.19.77-6.34.23-9.62.77-4.37.73-8.45,2.71-13,3.34-9.23,1.26-18.87.25-28.2.39-9.76.15-19.13,2.19-29,2.1-8.57-.08-19.32,1.85-27.31-.41.42-2.85,6.39-3.6,9.3-4.16-8.08-6.95-25.09-8.46-36.32-7.77,8.27-1.86,16.76-4.86,23.27-9.52,4.22-3,7-7.13,11.09-10.06-1-3-21.4,4.26-22.44,4.64a51.34,51.34,0,0,0-22,14.36c-5,5.32-9.4,10.29-16.4,13.16-6.16,2.53-16.12,3.48-20.91,7.88-2.52,2.32-2.84,6.11-6,8.65-2.68,2.18-10.34,3.61-9.54,7.86,5.44.69,11.55,2.52,17,2.5-10.58-.58-19.59,2.27-29.78,3.64-10.44,1.4-27.2,4.25-35.67-2.7-9.49-7.79,1.4-19.31,8.33-25.56,5.14-4.64,14.1-8.17,18.24-13.09,1.56-1.85,3-3.41,2-5.84-10.22-5.15-35.35,11.5-42,16.28-10.89,7.81-15.28,12.23-12.64,24.55,2,9.33,8,14.51,17.38,18.95,3.08,1.46,2.67.57,5.35,2.29,2.25,1.43,4.8,4.32,6.45,6.24-6.83.46-12.77-4.92-19.18-6.17-10.23-2-26.21-2.36-35,2-2.84,1.41-5.7,5.07-8.36,6.15-1.54.62-3.36-.47-4.69,0-8.08,2.82-14.36,6.83-11.61,15,1.37,4.05,3,5.86.65,10.28-3.41,6.28-9.29,6.95-16.83,5.85-21.12-3.08-14.54-16.41-17-30.29-20.39,6.87-8.56,23.49-2.15,34.87-9.28,6.5-33.26,1-42.47-2-5.76-1.88-10.48-4.37-15.77-6.77-3.54-1.6-6-2.4-10.18-.56-1.72,7.58,14,8,16.44,13.12-19.79.37-37.56-3.49-53.42-13.5a134,134,0,0,1-19.73-14.8c-1.92-1.79-5.75-7.93-9.74-6.67,0,6.26,1.39,15.14,7.09,19.89,2.1,1.75,7.7,2.54,8.13,4.68-8.1,3.72-26.07,13-34.84,6.78a11,11,0,0,1,7.22,4.18q7.52,4.21,15,8.48c-1.07,6.28-39.08-.6-44.75-2.16-8.73-2.4-12.61-5.76-18.42-11.7-8.21-8.41-21.18-8.92-30.16-15.89-5.73-4.46-6.47-8.53-9.22-14.36-1.93-4.1-5.39-6.92-9.69-1.92-9.33,10.85,2.69,26.15,10.28,34.7-4.43-2.41-3.07-7.85-5.88-9.81-4.15-2.87-9.07.35-14.06,1.45-6.17,1.36-12.82,2.2-17.9,5.78-6.66,4.68-7.81,11.34-17,14.49-15.14,5.23-42.76-10.29-48.55,9.36-6.09.46-11.71-4.83-17.12-6.45-6.42-1.92-13.86,0-20,2.28-5.1,1.9-15,8.11-20.24,2.27-6.35-7.08,17-24.11,21.55-28a63.32,63.32,0,0,1,18.27-12.35,30.79,30.79,0,0,0,5.36-1.84c3.32-6.58-13.84-4.81-16-4.24-9.48,2.42-20.56,10.35-27.31,16.25-5.5,4.8-14.16,18.57-4.81,24-4.09-6.19-15.38-2.25-21.42-1.09-9.91,1.9-21.08,8.17-30.77,5.67-5.79-1.49-11.79-3.37-17.43-5.19a32,32,0,0,1-12.1-6.38c-2-1.64-3.1-5.27-6.77-4.56-1,2.56-1.88,6.74-6,6.79-6.09-5.52-8.24-11.12-8-18.81.12-4.36,2.14-9.74.84-14-8.73-1.6-10.5,18.1-12.72,22.92-2.73.13-5.39-.33-8.07.1-2.5.39-4.25,1.87-6.87,2.12-3.78.35-8.23-1.88-12.08-2-6.56-.31-13.44,2.45-19.7,4s-8.92,2.45-15.06,1.56c-4.06-.59-7.93-1.94-12.14-1.93-7.87,0-13.48,5.54-20.52,6.19-5.15.48-9.85-3.31-14.91-3.94a64.1,64.1,0,0,0-15.1,0c-3.81.6-6,1.74-9.88,2.18-5.62.64-9.91-.78-15.13-2.15-9.39-2.46-40.18-4.74-44.19,4.35-4.2,9.53,19.66,27.81,23.17,31l30.33,26.23q36.36,33.87,84.27,55a364.32,364.32,0,0,0,89.68,38.58,972,972,0,0,0,164.53,48.61l126.27,20.55a1896.84,1896.84,0,0,0,247.91,11.41c134.73.53,269.89-2.54,404.53-6.34l158.53-5.26a1008.58,1008.58,0,0,0,256-39.76q77.61-11.61,143.56-47.13,82-25.87,130.89-88.18l43.09-71.42q28.31-49.8,24-103.3a150.09,150.09,0,0,0-10.93-74.67q-4-15.66-8.06-31.32c-4.36-19-4.75-39.56-23.51-53.14-10.59-7.67-23.51-11.4-35.35-17.6-9.57-5-20.37-10-29-16-7.25-5-15.3-15.34-25.59-15.82C2875.36,744.89,2875.33,745.93,2887.77,755.31Z"/></g><g class="cls-22"><path class="cls-23" d="M193.32,1363.56c19.28-3.57,39.85-6.75,59.4-7.49,24.81-.94,48.63,11.48,73,14.77,17.42,2.36,36.17,6.07,54,3.66,9.09-1.23,17.27-5.48,25.84-8.92,5-2,10.16-3.88,15.23-5.84,23.39,7.26,47.59,8.81,71.73,6.13,1.44-.16,2.88-.29,4.32-.44,28.14,8.68,55,15.94,86.52,10.22,20.13-3.64,38.24-15.94,58.74-14.87,8,.42,13.92,3.9,21.68,4.75,6,.66,13-.17,19.09-.17,15,0,31.15,1.58,45.78-1,15.31-2.71,27.53-8.91,43.48-8.08,15.76.82,29.09,8.79,45.79,9.13,16.33.33,29.49-4.92,45.7-4.52a73.26,73.26,0,0,1,17.22,2.23c9,2.16,16,1.15,24.92,2,19.25,1.84,37.36,9,56.75,9.28,13.34.21,23.49.43,35.93,3.45,22.17,5.39,47.26,1.9,65-10.23a115.84,115.84,0,0,1,13.88-8c20-2.62,40-1.9,60.36-.12a143.53,143.53,0,0,0,79.89-15.92c10.9-5.66,23.25-2.29,35-3h0c27.5,6.45,54.6,15.47,83.17,15.78,14.48.16,29-2,43.5-2.66,31.68-1.5,61.46-14.65,93.78-13.62,31.4,1,62.9-1,94.33-2,15.66-.54,30.63,1.75,44.79,8.39,26.41,12.39,54,9.84,81.15,5,49.43-8.72,98.72-4.46,148.07-.54,21.24,1.68,42.35,2.58,63.43-2,6.44-1.39,13.29-.84,19.94-1.32,2.65-.19,6,0,6.22-3.79.14-2.9-2.67-3.77-4.9-4.24-11-2.36-21.35-8.53-33.25-6.14h0c-19.5-1.21-36.73-11.31-55.87-14.17-11.25-1.67-22.22-5.29-33.79-4.8h0c-22.52-4.83-45.17-2.22-67.81-1.35-29.15,1.12-58.52,6.24-86.63-7.55-7.46-3.65-16.75-3.59-25.19-5.23h0c-18.94-6.15-38.44-7.93-58.19-7-17,.85-32.32-3-47.62-10.69-21.4-10.71-43.56-19.93-67.25-25.06-16.14-3.5-31.33-3-45.35,6.24-4.94,3.24-9.81,4.69-15.52,3.48h0c-10.49-7.26-22.61-8.73-34.83-9.4-13.24-.72-25-4.14-36.11-12.18-11.33-8.22-23.36-16.08-37.67-18.82h0c-33.7-16.56-68.17-17.76-103.2-4.81-9.86,3.64-19.42,8.1-29.12,12.19h0a30.55,30.55,0,0,0-4.07,3.07c-17,11.81-32.73,8.87-50.53-4.22-13.76-10.12-32.13-12-49.59-13.13-6.23-.42-12.39-1.86-18.58-2.84-14.43-2.28-28.84-4.32-42.65,2.8-5.16,2.66-10,1.78-14.29-1.7-4.13-3.3-8.52-5.59-14-5.35l-6.88-2.44h0c-13.21-9.17-28.68-6.7-43.28-7.65-7.77-.51-12.7-2.47-17.66-8.76-8.21-10.39-18.38-19.07-31.14-24h0c-5.82-6.38-13.26-9.71-21.56-11.43-17.92-8.74-36.59-14.94-56.6-16.59-2.64-5-7.78-5.07-12.3-5.7-27.92-3.89-55.63-3.85-82.55,6-5.5,2-10.45,2.31-15.81-.59-30.56-16.53-61.16-16.34-92.63-1.59-10.95,5.14-21.64,11-32.89,15.59-18.19-28.9-42-49.53-69.95-64.55-9.26-15.33-19.87-34.8-37.68-39.57a47,47,0,0,0-11.22-1.19,166.32,166.32,0,0,0-35.11-16.76c-28.63-10-58.24-20.39-88.57-13.4-17.27,4-24.93-2.32-33.8-13.85-5.36-7-11.85-13.75-21.36-15.7h0a16.73,16.73,0,0,0-.22-1.87h0c-13.64-11.14-29-18.23-46.81-18.82-1.14,0-2.32-.1-3.48-.1Zm246-12.67c2.5-1.52,5.16-3,6-3,2.88,0,6.89,1.92,11,4C450.64,1351.68,445,1351.39,439.32,1350.89Z"/><path class="cls-24" d="M155.65,990.85c28.81,2.74,59.12.69,81,20.23,4.48,4,8.08,9.34,13.29,12.45,8.52,5.07,17.54,3.32,26.21,8.89,13.82,8.89,19.43,16.85,28,30.33,3.87,6.09,8.79,12.76,12.5,19.08,2.75,4.69,4.27,15.05,9,16.53,5.11-14.35-2.39-24.16-9.11-35.48-3.83-6.45-20.27-18.88-21.24-25.38-1.81-12,23.68,1.22,30.37,3.89,7.64,3,7.3,4.51,15.5.13,7.65-4.09,12.61-8,21.6-4.82,13.49,4.74,25.21,19.6,36.07,28.34,5.68,4.57,7.9,6.88,15.53,9,6,1.66,14.09.33,19.4,3.1,9.2,4.8,16.59,19.17,22.18,27.07a98.15,98.15,0,0,0,17.14,18.87c5.46,4.63,14.36,6.07,18.71,10.57-10.72,5.17-31.16,1-43,1-11.34,0-26.19-2.77-37.13-.24-12.33,2.87-24.9,18.36-33.94,27.42,23-1.23,43-9.09,64.9-14.69,5-1.28,7.41-5.09,14.52-3.72,6,1.16,12.08,3.28,18,4.6,12.38,2.76,15.68,9.36,29.26,9.1,10.7-.21,17.48,1.74,26,7.75,10.86,7.68,2.74,18.35,10.2,25.77,4.68,4.66,9.9,1.41,15.58,2.21,8.1,1.14,15.53,7,21.36,12.24,10.18,9.23,17.85,27.71,32,31.31,3.73-9.46-16.27-39.78-21.92-46.12-4.93-5.52-26.48-14.68-21.91-23.29,2.78-5.24,21.25-4.77,26.51-5.26,10.11-1,16.91-8.49,27.24-11.55,19.34-5.73,23.55,5.29,40.14,10.5,11.25,3.54,19.57-4.68,31.3-2.84,19.86,3.11,31.46,17.92,39.68,35.21,3.48,7.33,5.88,14.83,10.14,21.82,2.52,4.13,7.36,8.94,8.43,13.24-7.1,2.15-15.23-1.38-22,1.49-12,5.07-9.11,19-15.6,26.63-5,5.92-14.09,4.51-21.2,6.49-8,2.21-46.08,14.25-48.52,24,10.35,1.56,34.76-8.71,44.8-12.6,9.24-3.58,17-10.6,26.79-12.89,10.09-2.36,20.78-1.7,31-4,3-.68,15.41-2.76,18.11-6.61,2.43-3.47-1.25-8.32,1.25-11.71,6.72-9.08,21.85-3.76,30.57-6.08,1.23-8.33-17.9-17.53-23.48-21.88-6.33-4.93-12.32-10-19.41-13.76-2.47-1.32-6.42-1.85-8.39-3.93-11.47-12.12,10.58-19.49,19.06-23.87,14.82-7.63,29.92.77,46.07,1.32,11.41.39,15.1.13,25.43,6.82,10.08,6.52,25.13,12.58,31.25,23.55-2.4,3.49-2.93,6.87-4,10.87a20,20,0,0,0-2.52,12.82,15.88,15.88,0,0,1,3.48,6.55c-.07,6-3.75,22.82-7.07,28.47,16.43,7.71,24.76-25.7,39-28.5,12.39-2.44,25.58,5.24,38.29,1.84,12-3.2,24.28-8,37.49-3.65,11.6,3.82,9.73,16.52,18.1,22,4.83,3.18,11,1.61,16.07,6.9,6.83,7.1,7.82,19.12,6.28,28.6-4.19,26-36.19,12.59-35.8,39.29,17.57-18.4,47.47-12.6,67.1-24.93,1-8.57-14.65-29-20.56-35.4-4.83-5.28-10.09-7.07-9.55-14.46.08-1.16,5.37-13.09,6.76-14.16,10-7.63,32.46,10.27,43.11,12.28,9.44,1.79,11.09-3.87,19.89,2.58q6.84,11.22,20.28,11.9a40.57,40.57,0,0,0,23.3-7.88c7.52-4.2,11.33-8,19.43-9.48,7.26-1.32,21.53-1.54,28.76.07,4.18.93,8.53,3.91,11.5,4.23,8.19.88,22.26-10,30.52-12.83,16-5.55,31-7.41,47.17,1.37q8.74,0,10.89,8.6a57.53,57.53,0,0,1-12.91,21c-7.12,8.85-18,15.52-24.91,22.06,18.74,1.39,36.89-6,52.74-15,5-2.88,11.36-4.52,11.64-11.26.2-4.82-5.47-7.88-5-13.16,7.45-.36,11.66,4.92,18.27,7.57,7,2.8,15.32,3.46,22.56,5.32,24.55,6.33,42.47,18.08,66.8,7.62,11.83-5.08,18.3-13.13,32-11.86s26,10,39.7,12.39c6.3,1.11,12.94.42,19.18,1.64,13.66,2.66,23,11.74,34.8,18,5.29,2.82,7.67,2.55,13.42,3.61,13.34,2.47,25.1,7.45,38.21,11.12,10.59,3,17.91,4.1,25.46-3.75,2.81-2.92,3.78-9.94,8.63-11.19,10.18-2.6,28.72,16.29,38.51,19.7,11.17,3.89,26,4.78,37.86,6.48,8.74,1.26,17.56-.16,26.33,1.4s14.86,4.21,23.52,3.31c7.8-.8,14.84-4.42,22.77-4.85,16-.87,29.71,5.74,44.83,8.77,9.9,2,12.87-2.3,21.85-4.22s15.84,3.67,23,8c6,3.65,15.83,17.34,23.14,16.06,10.26-1.8,7.08-13.58,13.76-18.38,6.26-4.5,23.5,3.58,30.15,4.06,9.94.72,17.42,1.24,27.52-2.06l27.17-12.4q37.14-2.71,49.9-34.91-90-85.41-206.53-132.6a2271.75,2271.75,0,0,0-421.49-146.56q-227.36-55-450-126.7Q805.58,826.59,670.27,764.17q-91.95-39.55-182.84-81.44a428.42,428.42,0,0,0-137-48Q301.6,640.4,264,672.84q-58.62,37-117.69,73.31-40,23.15-36.81,67.77a236.25,236.25,0,0,0,13.58,60.64c7.13,21.74,10.84,45.51,20.2,66.4,6.56,14.62,13.31,25.7,15.94,41.7C162.76,1004.44,158.88,1019.72,155.65,990.85Z"/><path class="cls-25" d="M110.65,1112.19c6.23,9.92,14.39,30.13,25.85,37.21,4.85,3,10.35,3.5,14.88,7.49,6.36,5.6,12.17,16.88,16.78,23.79,5.13,7.69-.12,5.88,9.9,7.9,8.76,1.78,11.65,1.21,18.3,9,6.35,7.43,10.43,16.33,16.67,23.67,5.58,6.55,10.43,10.19,18,13.37,9,3.78,18.6,4.36,28,8.88,17.8,8.56,41.54,18.67,61.74,11.57-13.57-9.25-39.06-19.89-47.22-35.92s9.13-12.78,17.08-8.09,17.33,12.18,27,13.7c6.82,1.07,8.82-.08,14.74,3,1.38.72,6.5,4.84,7.79,5.72,9.82,6.77,20.06,8.86,22.71,22.49.78,4,.46,9.39.87,13.57.92,9.19,3.86,4.77-2.25,12.25-2.63,3.23-6.61,5.59-9.08,8.88s-3.24,7.57-6.07,10.56c14.79-1.34,33-2.47,44.52-12.71,12.29-10.89,20-17.41,37.41-12.56,10.33,2.89,17.41,8.44,25.6,14.8,7.92,6.16,9.1,4.3,19,5.43,6.79.77,22.93,9.1,20.88,18.5-1.64,7.56-15.84,4.24-21.78,4,11.14,6.37,22.26,4.55,34.63,4.71,5.41.07,11,1.4,14.92-3.16,6.86-8-4.56-12.56-10.92-17.44-8.23-6.33-15.28-11.58-14.93-22.12.18-5.19,4.54-12,2.18-17.38-6.14-14.07-47.09-13-49.27-28.55,13.86-7,13-17.93,31.38-14.72,21.21,3.71,28.44,24.79,43.75,36.41,8.27,6.28,14.82,5.5,19,16.32,1.78,4.63,2.37,10,4.32,14.67,3.08,7.34,5.24,8.21,11,13.68,10.06,9.62,5.19,9.57,3.55,22.39-1.17,9.16,5.34,10.2,13.59,12.39s17.11.2,25.66,1.9c13.76,2.73,25.47,11.25,40.08,7.43-1.29-13.6,20.32-18,31.11-20.81,7.71-2,12.13-.84,18-6.4,3.68-3.49,6.34-8.91,10-12.68,6-6.16,21.5-14.64,30.82-8.1,3.72,2.62,6.75,17.45,9.69,21.67,13.73,19.68,43.3,14,63,23.27,6.1,2.86,11.22,9.61,17.09,13,9.12,5.31,7.94,4.26,15.5.88,10.26-4.59,14.31-9.47,25.64-11.08-2-9.33-29.36-9.42-26.79-20.88,13.09-4.57,30.3,1.15,41.22,8.29,3.87,2.53,7.27,6.61,11.07,8.6,4.15,2.17,10.73,3,15.39,4.88,17.88,7.3,35.64,7,54.08,12.36,8,2.36,14.89,4.27,23,5.39,13.13,1.81,24.86,8.35,38.05,9.42,8.66.7,11-1.2,17.47-4.65,6.85-3.69,18-7.05,23.63-12.42-5.48-6.8-21.25-7.92-29.41-10.08,10.89-3.13,22.79-2.81,33.07-6.54,4.27-1.55,7.69-5.14,11.7-7.06,8.24-4,15.24-3.93,24.3-4.44,14.18-.8,27.44-6.69,41.62-3.43,9.29,2.13,19,2.13,28.1,4.48,7.35,1.89,13.71,4.08,21.4,4.59q.84,3.27,3.63,2.63a7,7,0,0,0,6.26-2.61c4.2-.52,6.75-1.42,11.19-.79,13.45,1.93,13.94,5.33,27-.29,18-7.78,33.48-8.9,52.6-5.62,12.21,2.09,18.94,2.41,30.07,9.07,7.23,4.33,13.49,7.37,22.28,9,10.4,1.9,19.62,1.28,29.81-1.24,9.36-2.3,18.54-2.07,27.87-4.53,7-1.84,10.46-1.93,17.56-1.31,17.59,1.54,33.51,3.8,51.36,3.81,21.64,0,42.67-6,64.34-5.15,17,.71,33.28,6.42,50.18,8.36,15.86,1.82,31.74,2.58,47.54,5.16a559.5,559.5,0,0,1,87.27,21.93l46.48,17.94q33.52-.37,42.51,24.91c-52.48,6.14-105.24,11.19-157.53,18.68-102.92,14.75-201.17,48.41-302.62,69.53-89.92,18.72-181.17,27.82-272.26,39.42-118.1,15-236.22,31.76-354.88,42-207.45,18-418.65,16.84-625.51-7.76-22.66-2.7-57.27-2-74.23-20.06-19.77-21-19.17-62.22-20.15-88.26-2-51.84,4.51-102.87,20.57-152.42,13-40,36.91-78.52,58.82-114.24,9.29-15.15,18.06-30.24,27.66-45.22,12.5-19.53,12.65-42.18,22.37-62.25C130.89,1094.21,132,1094.21,110.65,1112.19Z"/></g><g class="cls-26"><path class="cls-27" d="M323,935a680,680,0,0,0,128.11,2.69c12.28-.87,24.81-4.17,36.93-2,19.42,3.55,39.21,2.69,58.79,4.11a6.06,6.06,0,0,0,1.23.39c3.59,1,7.45.61,11.2.85,39.28,2.52,78.36-4,117.66-1.19,34.61,2.44,69.35,1.25,104,.78,20-.27,40.15-2.16,54.65-13.9h0c8.46-1.89,14.05-7.76,23.5-8.27a82.87,82.87,0,0,0,8.81,1.94c28.23,3.2,56.57,2.81,84.95,1.17,18.22-1.06,35-5.08,51.46-10.58,6.47-2.17,11.86-6,19.44-6.58,4,2.43,9.53,2.48,13.84,4.41h0c5.09,3.49,11.6,3.49,18.09,3.68,15.95.46,31.9-1,47.85.07h0c17.13,8.13,42.32,8.63,55.86.54,10.89-6.52,21.4-8.32,35.41-4.1,20.16,6.06,41.86,6.69,63,2.61,11.27-2.17,21.69-6.5,32.48-9.85,23.36-.32,46.71,1.09,70-2.94a149.41,149.41,0,0,1,39.55-1c13.79,1.33,27.6,0,41.22-1.89,2.86-.41,5.48-1.26,6.21-3.5.67-2-.94-3.59-3.32-4.38-16.79-5.54-32.36-12.83-49.94-17.26h0c-11.55-6.75-25.78-7.1-39.71-8.13-3-.23-6.75.23-8.37-2-6.69-9.25-19.14-14.67-29.25-21.59-10.38-7.11-37.22-6.87-46.78-.2h0l-5,1.21h0c-7.28.74-10.91-3.41-15.9-5.76-17.35-8.17-30.6-21-54.75-21.27-22.07-.26-43.93-.73-65.11,4.52a62,62,0,0,1-16.75.91c-9.21-.89-18.48-1.79-27.75-2-7.28-.14-12-1.44-12.73-7-.34-2.6-3.18-4.51-4.76-6.74-7.22-10.19-21.94-14.17-33.4-20.88-14.85-8.69-31.59-14.49-50.68-14.48-17.26,0-30.55-3.37-39.89-13.6a2.27,2.27,0,0,0-.7-.32h0c-13.74-11.35-31.19-17.3-52.3-19.45-34.22-3.48-68-1.43-101.75,2.26-4.17.45-8.32,1.48-12.12-.72h0a23.76,23.76,0,0,0-6.41-17.46c-4.43-5-10.16-8.85-15.76-13-21-15.58-46.7-17.51-74.76-13.35h0l-2,1.06h0c-14.23,2.62-26-1.28-37-7-1-.71-1.86-1.47-2.88-2.14-10.27-6.72-24.28-8.12-36.26-12.41-28.84-10.33-59-16.6-92-15.19-36.34,1.56-69.41,9.51-99.94,23.19-7,3.16-13.11,8-21.78,8.67a144.72,144.72,0,0,0-46.86,11c-6.59,2.83-13.82,5.4-17.7,10.56h0c-2.21,2.54-6.78,3.84-7.95,6.83-2,5.1-6.79,5-13.13,4.66-29.9-1.47-59.38-.82-85.75,11.18-8.22,3.14-16.26,6.45-22.13,11.76V899.44c.62.48,1.26.94,1.9,1.39-.63-.07-1.25-.16-1.9-.2v7.12c12.57,3,23.62,9.15,36.22,11.26C261.15,924.19,291.45,931.29,323,935Z"/><path class="cls-28" d="M1484.35,886.52c-10-1.95-19.47-4.11-29.69-2.68l-4.74,1.13c-2.69.66-5.53,1.15-8.18,1.92-3.88,1.14-7.15,3.35-11.26,4.56-2.09.62-5.06,1.86-6.94,2.27-2.49.54-4.94-.18-6.58,1.58-6.39-2.42-15.61-4.61-23.12-4.3-3,.13-4.69,1-7.54,1.42-2.17.32-4.43-.23-6.54.07s-3.13,1.32-5.2,1.65c-2.51.4-5.06.19-7.65.67-4.48.82-9.44,1.77-14,2.33-5.13.63-9.34-.65-14-1.44-2.11-.35-5.52-1.15-7.59-1.35-3.11-.29-2.46.48-4.74.88a52.83,52.83,0,0,1-6,.29c-3.11.22-5,1.09-8,1.59-8.49,1.4-19.33,4.8-28.66,3-6.69-1.26-16-7.49-13.94-12.14,2.75-6.15,12.08-9.22,19.78-11.87,2-.7,9.77-2,6.91-4.43-1.47-1.27-12.53-.38-14.8-.29-22,.85-33.11,20.86-19.66,32.58-3.69-.49-6.55-3.1-10.51-3.61s-9.07,1.09-12.93,2.29c-5.57,1.72-6.15,2-11.25.78-3.75-.92-8.68-2.77-12.5-3.07-4-.33-6.24,1.19-10.73,1.19a30.62,30.62,0,0,1-10.77-1.83c-3.69-1.31-6.58-3.12-10.68-3.85-6.23-1.11-13-.61-19.38-1.51-6.06-.85-14.55-1.24-20,.73-3.81,1.36-8.95,5.53-12.91,6.19-5.76,1-4.26-4.64-3.52-7.48,1.93-7.49,10-11.78,17.11-16.79,3.73-2.64,6.45-5.38,2.16-8.68a12.35,12.35,0,0,0-11.93-1.58c-4.38,1.56-12.64,7.93-14,11.46-.56,1.47.1,3-.26,4.51-.43,1.76-2.21,2.9-2,4.83.94-3.5-3.31-7.37-6.88-9.69-3.37-2.2-4.64-2.67-3.35-6.1.76-2,3.92-2.65-1.35-3.5-6.89-1.12-15.67,5.89-18.9,8.87-5.06,4.67-6.48,8.19-3,13.76,2.91,4.73,6.89,5.89,12.15,9.15,2.4,1.48,7.53,4,8.33,5.73-12.51,2.86-25.64-3.79-37.47-5.38-6.69-.9-13.49-2.27-20.17-3-5.17-.61-10.53.3-15.65-.26-5.34-.59-11.27-2.58-17.15-1.63-6.6,1.07-11.7,5.15-19.28,4.63-5.52-.38-8.61-1.85-14.68-1.3a125.34,125.34,0,0,0-32.66,7c-2,.75-5.91,3.33-8.41,1.64-5.57-3.75,7-13,10.57-15.05,12.14-7.21,28.22-10.95,42.57-15.57,11.3-3.65,18.23-9.26,31.59-8.4,10.16.65,21.59,2.5,31.65-.16,3.6-.95,4.27-3.18,7.65-4.27-8.25-7.47-28.78-6-40.61-5.18-8.83.59-15.34,2.46-23.55,4.69-4.53,1.23-12.32,4.66-16.87,4.7-1.93,0-3.55-.79-5-.79-5.62,0-11.55,2.58-16.63,4a70.27,70.27,0,0,1-14.33,3,46.18,46.18,0,0,0-7.63.75c-4.07.92-8.25,3.1-12.49,3.53-4.53.47-3.43-.1-4.94-2.67-1.6-2.73-4.88-5.45-6.31-8-1.9-3.47-.13-5.91,2.32-9.16,2-2.69,5.25-4.69,6.79-7.48,1.1-2,.25-3.73,2.58-5.58,5.53-4.42,16.05-5.49,22.46-9.47-1.82-6.25-30.22,5.77-34.44,9.11,5-5.07,19.36-9.93,12.81-16.42-8.41-8.33-21.75,3.42-27.11,8.4-8.29,7.72-9.19,15.62-6.14,24.86,1.18,3.58,4.21,5.84,5.9,8.86-3.68,0-7-1.2-10.68-1.39-4.83-.26-8.49.71-13.16,1.29-7.29.9-20.09,2-26.74-1-2.82-1.28-3.71-3.15-5.8-4.91-6.41-5.4-19-7.43-27.6-10-9.92-2.89-20.91-8.36-32.07-7.48-12.17,1-23.82,5.37-31.58,11.8q2.77,3,8.27-.1a74.9,74.9,0,0,1,23.36-1.13c10.88,1.38,22.11,4.91,32.8,7.08,12.42,2.52,21.71,6.52,30.25,13.36,3,2.39,3,3.83,4,6.8a8.23,8.23,0,0,1,1.36,7.13,27.83,27.83,0,0,1-13.42,4.56q-4.84.75-9.71,1.45a42.08,42.08,0,0,0-7.15,5.51c-4.86,3.29-11.47,6.33-18.27,5.52-7.58-.9-9.63-4.11-18.09-2.32q-5.26,1.5-10.46,3.07a12.12,12.12,0,0,1-6.25-1c-6.06-.67-9,.38-10.81,5.17-2,5.48-3.51,9.18-12,11.56-5.57,1.57-10.71,0-16.17,1.14q-5.88,2.22-11.87,4.26a64.23,64.23,0,0,1-25.47.18,41.32,41.32,0,0,1-19.17-6.15q-4.61-8.46.27-17.11a57.47,57.47,0,0,1,16.15-19.43c3.6-1.44,5.47-3.43,5.59-6-7-4.5-14.39,3-17.92,6.23a94.11,94.11,0,0,0-14.29,16.92,9.58,9.58,0,0,0-2.75,6.18c.74,3.43,4.32,6.46,5.9,10-6.24,1.73-19.76-1.5-25.17-2.9-6.18-1.61-10.32-3.73-11.11-8.61-.35-2.21,1.64-6.86-3-7.11-9.28,6.16-13,15.07-3.24,22.24-7.48.33-16-4.82-19.73-8.32l-8.79-10.84q-5.81-12.15,4.46-21.95c12.54-17.72,36.8-28.34,63.59-33.54-1.76-5.39-19.87-.56-23.84.37-11,2.57-24.42,5.74-32.4,11.89a9,9,0,0,0,4.15-4.25c-11.16-2.58-23.21,4.07-32.75,7.72-6.1-3.63-4.29-16.65-3.74-20.19,1.93-12.46,10-24.65,22-33.94,3.73-2.88,11-10.1,17.27-9.67,2.22.15,3.66,1.37,5.9,1.38-16.07-1.74-33.07,2.62-41.32,12.66q-3.72,5.85-7.43,11.69A100.24,100.24,0,0,0,561.94,845c-2.22,9.35,9.88,15.11,13.53,23.46-12.9-2.45-23.47,2.17-35.08,5.35-3.83,1-10,1.23-13.35,3-3.53,1.84-6.64,7.55-7.32,10.25-4.6,18.24,32.12,17.92,48,20.74-5.33,6.06-27.6,6-34.22,5.56q-10.65-1.38-21.17-3.19-15.48-2.68-31.29-4.32c-18.6-3.18-49-6.62-35.53-25.77l14.32-13.25q15.09-3,13-11.34l-15.48.59q-20.18,1.1-27.38,12.89-9.78,5.91-3.84,14,.54,9.39,9.51,16.6c-3.84,2.38-9.56,1.09-14.22,1.09-13,0-25.78-.61-38.78-1-9.58-.25-12.59.91-20.82,2.85-5.95,1.41-12.88,1.66-19.42,2.91q-.66,6,8.06,6.32A33.79,33.79,0,0,0,362,914c-19.95-3.27-39.25-7.39-58.67-12-14.93-3.54-30.07-6.79-44.06-11.92q13.1-4.29,26.73-7.69a125.43,125.43,0,0,0,34-20.27l15.48-5.94q22.28-1.57,44.11-5.06,11.1-2.77,17.95-9.06,6.71-6.64,19.54-7.19a254,254,0,0,0,63.6-21.43q14.67-4.65,18.29-14.39c-18.95,4.53-39.29,7.58-57.29,13.65-8.24,2.78-16.29,5.73-24.92,7.84a62.36,62.36,0,0,1-12.24,2.35q-7.44,2.73-12.33-2.38l4.95-11.07a68.2,68.2,0,0,1,19.76-17.87c2.4-1.64,14.59-7.37,11.29-10.5-18.52.4-43.49,9.73-48.56,23.24-3.79,10.12,3,18.45,11.37,26.37-10.9,6.45-35.94,17.71-51.08,12.79-7.93-2.58-8.64-4.54-17-4.73-20.69-.46-23.92-12.92-33.67-22.73L285,822.37q-2.4,10.15,6.55,17.36c4.61,4.83,8.05,5.94,15.22,8.41-7.07,7.1-22.06,6.08-32.76,6.49a84.15,84.15,0,0,1-17.74,0,25.81,25.81,0,0,0-5.26-1.89c-5.86,5-1,11-5.3,16.25-7.73.64-9.64-6.52-11.3-10.27a36.79,36.79,0,0,1,8.1-41.13L267.29,800l31-11.72q16.19-2.62,27.66-10.34,7.67-2,2.82-6.38A53,53,0,0,0,302.27,775l-16,4.7c-18.81,5.51-37.09,11.88-53.28,20.64C218.76,808,215.38,817.44,218,829.54c1.52,7,5.56,14.89,2.63,21.94-2.32,5.59-7.16,6.73-13.32,10-8.69,4.6-17.84,1.15-27.86-.8l-20.09-4q-34.62-2.31-33.77,25.95l-4.41,46.26q-3.81,37.79-4.34,75.65,14.73,26,53.83,30.32,63.18,21.39,135.52,18.71,104,.78,208,.6,125.31-.18,250.6.86c172.35-1.4,344.23-11.33,515.51-24.37q92.85-5.28,184.24-17.58l23.23-9.32q15.95-20.82,12.61-44.6l-6.6-23.11q-6.11-10.26-4.32-21.06l-.07-4.24c-.88-5.9-4.39-11.26-7-16.81C1479,886.74,1478.89,879,1484.35,886.52Z"/></g><rect class="cls-29" x="193.32" y="190.08" width="3840" height="2398.44"/></g><g id="Layer_3" data-name="Layer 3"><polygon class="cls-30" points="2809.32 1822.56 2752.32 1822.56 2752.32 1844.66 2728.32 1844.66 2728.32 2053.37 2854.32 2053.37 2854.32 1844.66 2809.32 1844.66 2809.32 1822.56"/><polygon class="cls-31" points="2485.32 1622.85 2461.32 1622.85 2461.32 1659.68 2428.32 1659.68 2428.32 1796.37 2344.32 1796.37 2344.32 1925.69 2251.32 1925.69 2251.32 2097.57 2461.32 2097.57 2461.32 2053.37 2542.32 2053.37 2542.32 1659.68 2485.32 1659.68 2485.32 1622.85"/><polygon class="cls-32" points="1660.32 1796.37 1578.32 1796.37 1578.32 1822.56 1564.32 1822.56 1564.32 2023.09 1679.32 2023.09 1679.32 1822.56 1660.32 1822.56 1660.32 1796.37"/><rect class="cls-33" x="3826.32" y="1659.68" width="96" height="370.77"/><polygon class="cls-34" points="3736.32 1635.95 3556.32 1635.95 3556.32 2011.63 3670.32 2011.63 3736.32 2011.63 3802.32 2011.63 3802.32 1772.63 3736.32 1772.63 3736.32 1635.95"/><rect class="cls-35" x="3040.32" y="1856.94" width="124" height="220.99"/><rect class="cls-36" x="1046.32" y="1844.66" width="165" height="252.91"/><polygon class="cls-37" points="1720.32 2053.37 1876.32 2053.37 1876.32 1659.68 1720.32 1635.95 1720.32 2053.37"/><rect class="cls-38" x="820.32" y="1636.35" width="139" height="468.17"/><polygon class="cls-39" points="548.32 1923.23 439.32 1923.23 439.32 2151.59 650.32 2151.59 650.32 2053.37 650.32 1923.23 650.32 1798.01 548.32 1798.01 548.32 1923.23"/><path class="cls-40" d="M4033.32,1841h-15.08v-56.35H3901.47v44.49H3863.8v91.93h-86.64v-41.52h-56.5v-83H3588.83V1461.43h-45.21v-56.35h-94.17v50.41h-45.2v483.39l-22.6,17.8v-44.49h-67.8V1574.12h-59.64v-44.49h-79.1v44.49h-45.2s-.12,391.09,0,391.46c2.16,6.76-64,0-64,0v-59.32h-56.5v-77.1l-26.37-3V1532.6l-86.63-89-79.11,97.87v430h-56.5V1838.05H2693V1609.7H2669.3v-16.28h-79.25v16.28h-21.39v246.15h-226V1989.3H2305v-175H2192V1618.6h-63.42v-25.18h-46.15v25.18h-26V1871h-37.67V1589H1913.24V1704.6H1860.5v266.91h-45.2V1861.78h-21.82v-18.21H1636v18.21H1611.9v50.41h-79.1V1642.33h-23.23V1564h-14v-90.24h-72.23V1564h-16v78.34h-25.12v329.18h-33.9v-379.6H1208.85v38.55h-67.8v341h-45.2v-59.32l.38-428.63-177.42,87.59V1894.4H877.38v-94.9H817.11V1612.67H689v337.12l-95.43-2v60.59H509.34v-309H364.88v201.09H193.32v689.62h3840Z"/></g></g></svg>