<svg id="Layer_1" data-name="Layer 1" xmlns="http://www.w3.org/2000/svg" xmlns:xlink="http://www.w3.org/1999/xlink" viewBox="0 0 4788.97 2793.44"><defs><style>.cls-1{fill:none;}.cls-2{fill:url(#linear-gradient);}.cls-3{fill:url(#radial-gradient);}.cls-4{fill:url(#radial-gradient-2);}.cls-5,.cls-6{isolation:isolate;}.cls-5{opacity:0.38;fill:url(#linear-gradient-2);}.cls-6{opacity:0.82;fill:url(#linear-gradient-3);}.cls-7{clip-path:url(#clip-path);}.cls-8{fill:url(#linear-gradient-4);}.cls-9{fill:url(#linear-gradient-5);}.cls-10{clip-path:url(#clip-path-2);}.cls-11{fill:url(#linear-gradient-6);}.cls-12{fill:url(#linear-gradient-7);}.cls-13{fill:url(#linear-gradient-8);}.cls-14{clip-path:url(#clip-path-3);}.cls-15{fill:url(#linear-gradient-9);}.cls-16{fill:url(#linear-gradient-10);}.cls-17{fill:url(#linear-gradient-11);}.cls-18{clip-path:url(#clip-path-4);}.cls-19{fill:url(#linear-gradient-12);}.cls-20{fill:url(#linear-gradient-13);}.cls-21{clip-path:url(#clip-path-5);}.cls-22{fill:url(#linear-gradient-14);}.cls-23{fill:url(#linear-gradient-15);}.cls-24{fill:url(#linear-gradient-16);}.cls-25{clip-path:url(#clip-path-6);}.cls-26{fill:url(#linear-gradient-17);}.cls-27{fill:url(#linear-gradient-18);}.cls-28{fill:url(#radial-gradient-3);}.cls-29{fill:url(#linear-gradient-19);}.cls-30{fill:url(#linear-gradient-20);}.cls-31{fill:url(#linear-gradient-21);}.cls-32{fill:url(#linear-gradient-22);}.cls-33{fill:url(#linear-gradient-23);}.cls-34{fill:url(#linear-gradient-24);}.cls-35{fill:url(#linear-gradient-25);}.cls-36{fill:url(#linear-gradient-26);}.cls-37{fill:url(#linear-gradient-27);}.cls-38{fill:url(#linear-gradient-28);}.cls-39{fill:url(#linear-gradient-29);}</style><linearGradient id="linear-gradient" x1="2353.33" y1="1039.32" x2="2378.1" y2="2748.21" gradientTransform="matrix(1, 0, 0, -1, 0, 2996.7)" gradientUnits="userSpaceOnUse"><stop offset="0" stop-color="#e19c6e"/><stop offset="0.38" stop-color="#de7471"/><stop offset="1" stop-color="#3d6580"/></linearGradient><radialGradient id="radial-gradient" cx="2329.42" cy="1250.76" r="453.5" gradientTransform="matrix(1.12, 0, 0, -1.08, -240.86, 3014.6)" gradientUnits="userSpaceOnUse"><stop offset="0.34" stop-color="#ffefc7"/><stop offset="0.43" stop-color="#e28448"/><stop offset="0.45" stop-color="#cc7741"/><stop offset="0.52" stop-color="#965830"/><stop offset="0.59" stop-color="#683d21"/><stop offset="0.66" stop-color="#432715"/><stop offset="0.74" stop-color="#26160c"/><stop offset="0.8" stop-color="#110a05"/><stop offset="0.87" stop-color="#040201"/><stop offset="0.94"/></radialGradient><radialGradient id="radial-gradient-2" cx="2329.42" cy="1250.76" r="137.39" gradientTransform="matrix(1.12, 0, 0, -1.08, -240.86, 3014.6)" gradientUnits="userSpaceOnUse"><stop offset="0.54" stop-color="#e5a378"/><stop offset="0.79" stop-color="#e5a178"/><stop offset="0.88" stop-color="#e49a79"/><stop offset="0.94" stop-color="#e38f7a"/><stop offset="0.99" stop-color="#e27e7b"/><stop offset="1" stop-color="#e27c7b"/></radialGradient><linearGradient id="linear-gradient-2" x1="1347.36" y1="2576.53" x2="1563.48" y2="598.15" gradientTransform="matrix(1, 0, 0, -1, 0, 2996.7)" gradientUnits="userSpaceOnUse"><stop offset="0" stop-color="#dcbf67"/><stop offset="0.38" stop-color="#d26669"/><stop offset="1" stop-color="#3f6b8d"/></linearGradient><linearGradient id="linear-gradient-3" x1="2329.49" y1="1951.97" x2="2375.16" y2="973.15" xlink:href="#linear-gradient-2"/><clipPath id="clip-path"><path class="cls-1" d="M3533.68,206.88H2881.76q-1327.82,0-2655.64-.16c-8.36,0-10.27,1.48-10.26,8.11q.42,219.42.21,438.87v86.54c11.22-.83,22.19,1.34,33.3,1.73,23.45.82,43.56-6.47,62.16-16.63,8.47-4.64,17.73-8.54,24.76-14.81s15.31-8,26-5.9c18.06,3.5,36.45,6.27,54.72.34h0c21.31-3.44,41.73-8.06,56.05-22.65,4-4.06,10.71-5,17.11-5.62,6.7-.69,13.48-.79,19.8-2.75a4.62,4.62,0,0,0,2.88-1h0L562,662.37h0c32.47-7.93,64.68-16.11,73.91-47,2.62-8.72,12.07-15.62,10.94-25.37.28-3.64-.66-7.42,2.15-10.79h0c8-1.54,16.08-1.56,24.21-1.55,22.18,0,41.32-7.28,59.76-16,3.68-1.73,6.3-4.84,9.55-7.18,5.16-3.72,10.05-8.16,18.29-5.18h0c24.24,8.84,48.77,10,73.71,1.82h0c12.1-3.51,24.86-5.58,36.4-10.36,4.87-2,10.06-1.32,15.18-.3l35.41,7.2a8.23,8.23,0,0,0,2.93.75c32.77,8.49,65.69,9.22,98.35-.52,27.62-8.24,53.61-18.56,71-38.82a55.64,55.64,0,0,0,6.43-9.15c3.35-1.37,7-2.94,7.7-6,2-8.48,9.79-8.68,17.87-7.85,34.24,3.51,68,1.32,101.7-4.15,19.78-3.23,33.8-13.39,47.77-23.18,10.33-7.23,20.93-10.45,34.14-10.17,3.22.07,6.46-1,9.68-1.55,16.37.34,31.72-2.22,45.33-9.8,4.47-2.46,9-2.25,13.8-.82,34.62,10.37,70.35,13.8,107.2,12.45,11.38-.42,22.16-2,32.18-6.08,8.8-3.56,16.4-3.41,25,.95,14.34,7.26,30.49,9.52,47.56,10.66,29,1.93,57.77,1.15,86.65-.31,3.7-.19,7.44,0,10.89-1.38h0c.55-.13,1.12-.23,1.65-.33h0c7.24,5.73,16.75,4.15,25.12,3.91,23.6-.66,44.87-7.22,65.89-15.94,19.24-8,36.06-19.32,56.76-25.12h0c14.77,0,26.46-5.95,38-12.28h0c11.17.37,22.16,2.53,33.42,1.65h0c25-.73,49.49-3.49,73-10.65,5.16-1.58,10.75-2.24,16.09-3.44,17.33-3.94,34.26-8.45,43.38-22.35,4.14-6.32,10.72-8.42,19.36-7.76,20.42,1.59,39.85-1.79,58.8-7.54,3.82-1.16,7.82-1.91,10.34-4.85l6.7-1.71h0a270.86,270.86,0,0,0,46.21-15c6.24-2.61,8.8-7.94,10.95-12.88,2.23-5.21,6.57-9.23,10.69-13.3,4.68-4.64,11-5.86,17.95-3,51.26,21.26,106.39,26.66,163.21,24.66,15.56-.55,31.05-2.16,45.68-7,28.2-5.23,55.2-13.94,83.87-17.84,23.24-3.16,45,.86,60.54,14.14,23.06,19.74,52.48,26.66,83.55,32.15,2.91.51,5.8,1.08,8.7,1.55,15.73,3.5,31.71,2.51,47.4.63a211.22,211.22,0,0,1,39.75-1.18c26.81,1.77,52.38-4.77,76.39-12.85,12.61-4.25,22-14.42,32.9-21.93h0c11.57-2.28,22.27-5.65,29-14.13,3.35-12.76,16-19.95,27-28.11,3.2-2.39,7.66-1.77,11.72-1.19,44.8,6.47,88.43.44,131.86-7.67,9.37-1.75,18.69-3.61,28-5.39a8.29,8.29,0,0,1,1.12-.41l-1.12.41c11,.35,21-3.16,31.48-4.91,16-2.67,31.58-1.7,47.34.58,7.28,1.08,14.67,1.89,21.77-.9h0l6.7.15h0c10.29,7,22.9,3.41,34.13,3.74,31.59.93,62.92-1.3,93-10.3a111.13,111.13,0,0,0,21.49-9c10.17-5.51,20.6-7.77,32.45-3.4,2.56,1,5.8.77,8.72,1.08h0c27.61,4.31,54.52-.76,81.53-3.95,16.54-2,29.8-10.12,44.29-15.84C3520.93,212.77,3528.61,211.57,3533.68,206.88Z"/></clipPath><linearGradient id="linear-gradient-4" x1="1904.31" y1="-2979.1" x2="1823.6" y2="-3580.72" gradientTransform="translate(0 3672.06)" gradientUnits="userSpaceOnUse"><stop offset="0" stop-color="#ce9676"/><stop offset="0.38" stop-color="#cc5a5e"/><stop offset="1" stop-color="#2a4c66"/></linearGradient><linearGradient id="linear-gradient-5" x1="1999.74" y1="-3301.63" x2="1999.74" y2="-3754.64" gradientTransform="translate(0 3672.06)" gradientUnits="userSpaceOnUse"><stop offset="0" stop-color="#e8a87e"/><stop offset="0.38" stop-color="#e6666a"/><stop offset="1" stop-color="#3f78a1"/></linearGradient><clipPath id="clip-path-2"><path class="cls-1" d="M2191,666.4c7.58-3,15.77-3.92,24.27-4.57,22.66-1.72,45.39-1.25,68.12-1.71,37.4-.78,73.94-5.06,107.86-17.07,23.68-8.38,48.28-10.95,73.77-8.41a217.7,217.7,0,0,0,63.89-3.06,226.35,226.35,0,0,1,70-2.75c7.06.78,14.23,1.25,21.36,1.47,36.12,1.07,69.59-8,103.86-14.36,22.33-4.15,43.27-11.86,67.25-11.58,21,.21,42.06-1.46,62.08-7h0c2.92-.28,6-.18,8.7-.91,29.11-7.77,57.39-8.48,88.43-2.69,36.94,6.88,74.27-.74,110.15-9.26,8.47-2,16.66-2.28,24.64.14,20.74,6.34,41.82,5.49,63.21,2.55,8.65-1.2,17.44-1.9,26.17-2.81h0l5,1.79a52.86,52.86,0,0,0,24.17,7.23c27.67,1.88,55.36.47,83-1.08,11-.59,22.14-1.72,31-6.89,12-7,25.08-8,39.37-5.84,40.33,6,79.54.84,118.51-6.47,4.92-.78,10.24-.93,14.71-2.43,23.78-8,48.53-10.79,74.69-11.15,17.08-.25,35.05-1.32,50.74-8a5,5,0,0,0,1.57-.67c8.94-1.86,17.71-4.1,24.85-8.68,13.59-8.76,28.88-11.87,46.7-8.47,3.35.65,7.5-.32,11.17-.79,39.93-5.07,73.85-20,107.61-35.17,24.69-11.12,46.75-25,71.82-35.8,30.83-13.29,64.67-18.89,99.1-23.73,11.47-1.61,23.45-2.41,33.5-7.55h0a62.39,62.39,0,0,0,17.56-3.87c25.75-3.38,48-11.28,64.41-26.67,2.64-2.48,8-4.8,4.47-8.55-4-4.16-9.87-3.89-15.64-1.69h0l-2.77,1.8-4.8,2.05h0a36.07,36.07,0,0,0-6.22.66c-30.71,9.06-62.75,11.28-95.53,10.58-12.28-.27-24.22,2-35.65,5.46-19.93,6-37.59,15.15-56.89,22-30.21,10.79-63.49,11.42-95.72,15.71-61.33,8.15-122.84,15.42-184.76,20.64-27.92,2.35-53,9.17-77.06,19.08-44,13.26-90,16.7-137.06,14.94-15.21-.57-30.15,1.08-45,3.24-3.35.49-7.81,2.92-10.05-.44-1.74-2.64,1.77-5.1,4.12-7.24,13.47-12.22,32.1-18.33,51.68-23.34,16.75-3,33.11-6.47,48.14-12.81h0l12.56-3.86h0c4.12-.45,8.36-.65,12.37-1.41,7.81-1.5,18-2.43,7.38-10.79-2.58-2,0-3.34,1.84-4.51,3.76-2.42,7.66-4.74,11.5-7.1h0l2.32-1.7h0a406.33,406.33,0,0,1,52.27-4.42c14.63-.32,29-2.74,41.76-8.75,10.64-4.21,22-7.83,27.58-16.53h0c10.14-4.39,15.82-13,30.29-13.63,24.22-1,49.39-1,69.18-14.18a22.08,22.08,0,0,1,4.47-1.68h0c8-.14,15.94-.45,23.92-.36,23.56.26,47-.28,69.77-5.39,14.27-2.06,28.3-4.62,40.5-10.85h0c4.46-.91,8.93-1.68,13.26-2.73,32.18-7.75,62.42-19.49,96.88-22.59,17.72-1.59,35.07-6.17,51.37-12.07h0c23.94-2.42,40.94-12.76,55.38-26h0c8.44-1.73,13.92-6.75,20.95-10,6.85-3.18,14.43-9,22.67-4.87s13.51,2,20.34-1c5.35-2.32,11.5-3.76,17.46-5.22,12.91-3.16,26.71-2.68,39.83-4.83,18.86-3.09,40.3-2.62,51.14-18h0l4.94-.67c12.17-1.88,24.51-3.31,36.11-6.81h0l7.24-.11c26.63-1.52,52.87-4.25,77.53-12.16a7,7,0,0,0,3.09-1h0c3.85-1.21,7.82-2.27,11.55-3.65,17.47-6.47,36.85-10.3,51.76-20.32H3604.8c-11.23,8.29-22.56,16.46-26,28.62-1.11,4.07-6.34,4.22-11,4.76-19.24,2.24-39.75,4.8-54,14-16,10.36-33.5,14.78-53.24,17.13-30.45,2.46-57.64,10.29-78.75,27-6,4.79-12.28,6.75-20.8,6.47-11.38-.36-22.67,0-32.29,5.46h0c-4.62.33-8.93,1.28-12.41,3.65h0c-12.22,1.41-21.41,7-30,12.75-6.37,4.31-12.91,5.75-21.32,6.11-18.1.77-32.5,7-42.5,18.23h0c-20.2,11.77-40.36,23.62-68.84,20.82a8.51,8.51,0,0,0-3.58.8c-18.87,7.61-37.76,4.67-56.21-.5-14.37-4.05-28.83-5.22-43.27-1.78-23.69,5.64-47.2,11.86-63.78,26.69h0l-9.5,6h0c-12.06-2.54-23.91-6.07-36.21-7.44-58.83-6.48-105.49,12.94-149,38.47h0l-2,.43h0l-5,1.51h0c-28.48,1.57-57,3.32-85.44,4.66-31.71,1.48-58.64,15-88.63,20.69a131.51,131.51,0,0,0-21.22,2.45c-18.07,1.82-33.18,8.42-47.78,15.83-21.87,11.11-37.22,27.45-58.48,39.09-2.58,1.41-7.82,3.15-4.47,6.41,2.72,2.65,7.23.9,10.51-.25,14.93-5.22,30.75-5.57,46.9-5.55a338.41,338.41,0,0,0,36.44-2c27.43-2.93,55.25-4.87,80.5-14.38,5.27,0,9.62-2,14.18-3.55,13-4.43,26.36-9.12,40.78-8.63,32.13,1.18,62.21-8.34,94.74-7.43,33.16.93,65.45-7.05,96.18-16.85,10.2-3.23,20.51-4,31.88-3.16,13.56,1.08,27.61,2.68,41.1-1.15,9.84-2.21,17.86-6.81,26.16-10.95,33.27-16.58,70.17-23.63,110-22,25.68,1.08,51.14,3.36,76.86,3.24,3.35,0,7.16-.74,11.05,1.91l-16.85,3.54h0c-11.06,1.45-21.58,3.84-30.35,9.29h0c-7.59,2.35-15.63,2.16-23.59,2.11-29.17-.15-55.72,5.07-77.51,20.1h0c-5.12,2.39-9.2,5.66-16.67,5.06-22.19-1.79-40.43,5.11-56.85,15.26h0c-12.57,5.61-23.25,12.57-30.16,22.27h0c-2.94.73-5.51,2-6.27,4.23-3.25,9.34-11.56,10-23.2,9.15a142.66,142.66,0,0,0-54.06,7l-2.76,1.71c-12.61-1.48-22,4.59-32.64,7.55a72.06,72.06,0,0,1-19.49-3.43c-19.89-5.78-39.87-5.53-59.86-1.23a7.72,7.72,0,0,0-4.16,1h0a170.88,170.88,0,0,0-34.84,7.55c-9,3-17.87,7.74-28.3,7.11-24.25-1.43-46.72,3.24-68.62,9.84-9.7,3-19.06,3.23-29.45,2.25-20.71-2-40.95-.31-59.12,8.26h0c-11.78,4.94-23.86,5.94-37.59,4.32-16.31-1.91-32.49,1.58-44.88,9.54-15.53,10-32.74,14.16-53.07,14.25-19.61.07-37,5.19-51,15.65-6.32,4.71-13.73,8.57-22.87,9.14-19.26,1.21-38.43,3.7-57.93,1.94-24.89-2.25-48.72,7.78-59.5,24.65l-6.92,3.83h0l-5.19,2.64c-4.29,2.16-9.21,4.57-5.87,8.84C2180.7,671,2186.09,668.33,2191,666.4Z"/></clipPath><linearGradient id="linear-gradient-6" x1="3351.36" y1="2218.64" x2="3302.76" y2="2544.95" gradientTransform="matrix(1, 0, 0, -1, 0, 2996.7)" gradientUnits="userSpaceOnUse"><stop offset="0" stop-color="#ce9676"/><stop offset="0.38" stop-color="#cc5a5e"/><stop offset="1" stop-color="#294c66"/></linearGradient><linearGradient id="linear-gradient-7" x1="3371.49" y1="2248.14" x2="3342.09" y2="2733.33" gradientTransform="matrix(1, 0, 0, -1, 0, 2996.7)" gradientUnits="userSpaceOnUse"><stop offset="0" stop-color="#ce9676"/><stop offset="0.38" stop-color="#cc5a5e"/><stop offset="1" stop-color="#2e5775"/></linearGradient><linearGradient id="linear-gradient-8" x1="3240.1" y1="2490.76" x2="3234.62" y2="2507.17" gradientTransform="matrix(1, 0, 0, -1, 0, 2996.7)" gradientUnits="userSpaceOnUse"><stop offset="0" stop-color="#ce9676"/><stop offset="0.38" stop-color="#cc5a5e"/><stop offset="1" stop-color="#204863"/></linearGradient><clipPath id="clip-path-3"><path class="cls-1" d="M4373.65,364.72c-18.83,7.38-37.77,14.62-56.14,22.73-12.29,5.39-23.45,13.69-29,23.59-7.34,12.94-18.81,16-33.6,17.4-25.95,2.53-45.42,15.59-64.85,28.5l-10,4.15c-16.46,5.48-31.27,13.68-34,28.7-2.8,15.27,1.44,30.2,18.59,40.08l.81-.52.09.07-.9.46c-2,4.13-7.05,4.47-11.12,6.06-17.86,7-34.62,14.68-33.85,34.32.18,4.67-3.58,6.73-8.93,6.83-5.85.12-11.71.36-17.55.12-18.34-.76-35.92.77-51.13,10.41h0c-25.38,9.5-46,23.53-60.56,43.38h0c-6.15,9.52-14,16.17-28.78,12.94-3-.66-6.62.23-9.93.58-55.52,6-88.22,37.08-116.56,72.79-2.34,2.93-2,7.29-3,11-4.63,1.44-8.64,4-13.89,4.4-44.9,3.23-83.75,19.35-119.62,40.44-14.43,8.48-32.48,15.77-31.84,34.28-4.64,2-5.46,5.92-6.42,9.51-2.6,9.71-9.15,17.5-16.76,24.73a64.26,64.26,0,0,0-12.05,15.4h0c-3.87,1.08-5.58,3.71-7.14,6.47h0c-10.94,8.51-12.44,19.62-12.56,31.12h0c-4.55.26-9.2.13-13.64.85-20.42,3.31-36.42,15.91-57.18,18.72-3.44.48-4.47,3.16-4.35,6.47.26,8.72-7.15,12.61-15.8,11-8.93-1.66-11.34,1.45-13.22,6.95-1.36,4-2.49,8-3.73,12h0c.14.72.26,1.45.39,2.16a12.88,12.88,0,0,0-.59,1.82h0c-5.29,5.52-10.69,6-18.16,1.94a92.13,92.13,0,0,0-94.73,4.32c-3,1.17-6.27,2.07-9,3.58-10.56,5.8-17.26,4-24-5.28-7.26-9.95-17.81-18.09-29.16-25.24h0c-16.45-14.24-33.34-27.72-59.74-27.13-11.63.26-23.32.43-34.94-.11-20.1-.92-39.09,1-55.42,11.76-5.22,3.42-10.33,2.79-16.24.51-9.38-3.63-16.31-10.93-27.21-12.15h0c-26.25-14.78-66.38-11.94-90.45,6.42h0c-4.27,1.57-8.94,3.34-10.31,7.13-4.31,12-15.31,15-28.64,16.39a107.76,107.76,0,0,0-24.09,5.54c-26.69,9.38-45.71,25.49-54.72,48.2-7.69,19.42-15.13,25.89-40.21,28.44-6.23.64-13,.52-17.65,4.38-16.44,13.67-34,26.76-45.79,43.51-5.24,7.43-10.11,9-18.91,5.85-33.78-12.1-66.22-7.35-95.25,8.91-31.62,17.71-41.42,31.92-28.14,57.57,4.73,9.13.7,12.73-7.07,16.32-16,7.42-31.87,15-48.2,21.94s-37.76,7.82-48,22.71c-7.19,10.48-17.13,12.12-30.15,12.22-20.23.14-40.21,2.25-56.71,13.61a2.63,2.63,0,0,0-.78.53,108.14,108.14,0,0,0-46.15,27.54c-14.14,14.33-31.38,19.15-53.33,14.42-31.66-6.81-61.35-1.88-88.75,12.62a156.14,156.14,0,0,1-70.7,18.34c-13.18.31-26.25,3.93-39.35,6.14-3.94.66-7.17,2.16-7.29,6-.11,3.17,2.23,5.07,5.43,6.39,5.68,2.36,11.8,3.23,18.06,4,33.65,4,67.49,1.72,101.24,2.15h0c4.89,2.68,10.41,2.22,15.8,2,49.93-1.78,99.26,1.34,147.78,11.75a347.81,347.81,0,0,0,86.92,7c17.44-.68,33.29-5.47,48.41-12.31,5.79-.28,10-3.31,14.45-5.8,11.82-6.61,24.38-10.35,38.94-8.21,5.73.84,11.61,1.08,17.41,1.45,32.79,2.45,65.81,3.24,97.27,13,10.05,3.12,21.14,3.88,32.12,3.72,45.79-.67,86-15.79,124.33-34.52,13-6.32,25.07-7.81,39.2-6.38,15.29,1.54,31,4.08,46,2.62,49.27-4.78,98.81-9.45,144.14-28.26,9.06-3.75,17.94-4,27.81-1.54,41.12,10.31,81.45,9.37,120.25-7.32,6.43-2.77,13-4.68,20.4-3.56h0c15.64,9.39,31.4,18,52.25,16.71,27.43-1.73,54.52-4.71,80.65-12.17,5.15-1.47,10.26-2.72,15.86-1.92,13.92,2,27.91,3.87,41.82,5.79h0c14.43,4.55,28.84-.47,43.24,0,41.11,1.36,78.91-8.76,115.42-22.86,9.52-3.68,18.9-5.49,29-4.08,17,2.38,34,1.8,51.11,1.82h0c6.25,0,12.62-.65,18.74.07,36.57,4.31,65.88-7.26,91.09-27.92a31.54,31.54,0,0,1,16.38-6.94,217.78,217.78,0,0,0,77.48-24.91c15.64-8.63,31.13-11.64,50.54-8.2,26.67,4.73,54.65,8.63,79.4-6.88,19.89-8.74,40.2-16.88,59.51-26.41a80.24,80.24,0,0,1,39.14-8.63c47.24,1.41,93.17-4.94,138.3-16.18a1192.92,1192.92,0,0,0,165.13-54.11c12.89-5.29,19.34-11.06,16.88-22.78h0c-1.32-3.67,4-9.31-4.69-10.79l-2.66-4,2.47-4.32a17.19,17.19,0,0,0,5.12-14.28h0c-.91-1.43-1.82-2.88-2.72-4.31h0c2.75-3.34,2.75-7.15,2.75-11V532.09c0-4.19.12-8.39-4.79-11.13h0l4.69-4h0c0-2,0-4,.07-6h0c-1.64-2.05-3.27-4.1-4.91-6.14h0c5-2.16,4.89-6.07,4.89-9.9,0-36.82-.11-73.65.1-110.48,0-7.47-3.48-10.6-12.59-10.48-18.36.25-36.73,0-55.09,0,17.12-4.24,34.61-.94,52-2,5.58-.33,11.94,1.17,15.7-4.06h0l-.45-2.38c0-1.29,0-2.6.06-3.89h0c-5.26-7.55-14.71-5.8-22.34-5.85-20.82-.11-41.66,1.4-62.53,1.4C4402.84,357.14,4387.83,359.17,4373.65,364.72Z"/></clipPath><linearGradient id="linear-gradient-9" x1="3376.6" y1="1372.83" x2="3351.08" y2="1915.6" gradientTransform="matrix(1, 0, 0, -1, 0, 2996.7)" gradientUnits="userSpaceOnUse"><stop offset="0" stop-color="#ce9676"/><stop offset="0.38" stop-color="#cc5a5e"/><stop offset="1" stop-color="#2f5c7d"/></linearGradient><linearGradient id="linear-gradient-10" x1="3466.24" y1="1664.18" x2="3545.01" y2="2543.08" gradientTransform="matrix(1, 0, 0, -1, 0, 2996.7)" gradientUnits="userSpaceOnUse"><stop offset="0" stop-color="#f9cb98"/><stop offset="0.38" stop-color="#f69686"/><stop offset="1" stop-color="#4a86b1"/></linearGradient><linearGradient id="linear-gradient-11" x1="3431.55" y1="1055.54" x2="3442.19" y2="1359.1" gradientTransform="matrix(1, 0, 0, -1, 0, 2996.7)" gradientUnits="userSpaceOnUse"><stop offset="0" stop-color="#c48f70"/><stop offset="0.38" stop-color="#be5559"/><stop offset="1" stop-color="#28486b"/></linearGradient><clipPath id="clip-path-4"><path class="cls-1" d="M2093.56,1160.1h0c31.94-9.49,65.21-9.48,98.54-8.86a305,305,0,0,0,64.11-5.73,301.31,301.31,0,0,1,31.18-4.93c30.16-2.67,60.53-3.51,90.26-8.78,24-4.25,43.55-14.26,58.5-30h0c4-3.37,8.54-6.47,12-10.2,4.23-4.54,1.65-8.42-5.34-9.06-4-.37-6.89,1.31-9.92,3-22.64,13.08-48.86,19.42-75.8,20.94-25.8,1.51-50.68,4.55-75,11.37-9.73,2.74-20.39,5-30.15,2.69-27.2-6.47-53.85-6.14-80.88.22a25.61,25.61,0,0,1-20.21-3.79,33.56,33.56,0,0,1,4.68-1.92c30.94-6.77,57.61-22.27,89-28.22,4.12-.78,7.82-3.13,11.56-5a32,32,0,0,1,15.63-3.23,453.08,453.08,0,0,0,76.44-3.52,110.57,110.57,0,0,0,35.91-9.91,73,73,0,0,1,23.33-6.73c12.05-1.36,25-1.13,35.24-8h0c4-2,9.81-3.15,11.83-6,9.52-13.58,25.08-12.21,40.37-11.57,33.5,1.38,64.63-6.06,95.16-16,25.46-3.94,48-14,70.22-23.73,25.07-11,50.69-15.79,78.71-13,16.41,1.63,31.93-1.08,47-6,9.28-3,17.52-7.16,21.93-15,2.05-3.6,6.36-5.57,10.12-7.88,12,1.18,21.75-3,30.88-8.62h0c10.19-4.54,20.28-9.27,30.61-13.6,30.43-12.76,61-25.18,95.84-28.43a80.73,80.73,0,0,0,18.88-4.32c31.44-10.88,59.72-26.84,91.71-36.81h0c18.06-2.4,34.45-9.11,52-13,25.09-5.61,51.38-9,72.92-22.38,5.37-3.36,16.53-4.95,12.87-11.39-3.51-6.21-11.41-3.78-18.33-1.91a9.55,9.55,0,0,0-3.2.81c-29.26,3.44-58.31,7.85-86.76,14.34-24.88,5.69-49.63,8.4-75.61,5.75-21.4-2.16-42.61,1.08-61,10.57-22.42,11.63-44.3,23.27-71.91,25.88-9.44.9-18.48,5.31-27.45,8.57-10.28,3.73-20.16,8.19-31.09,10.78h0c-22.91,1.4-45.84,3.67-68.77.23-16.37-2.46-31.19,0-44.19,8.55-7.33,4.82-15.09,6-24.56,4.25-7.31-1.33-15.27-1.61-22.64,1.08h0c-8.31-.34-15.85,1.8-23,4.88-17.95,7.77-35.74,15.67-53.69,23.53h0c-18,4.73-35.21,11.54-54.16,14-12.28,1.63-24.57,3.31-36.12,7.2a115,115,0,0,1-58.83,4.41c-18.5-3.35-37-3.23-52.67,8.11-4.47,3.24-10.58,3.15-16.69,2.85-25.36-1.23-49.43,2.57-71,13.87-6.32,3.31-12.35,3.92-19.68,2.87a251.87,251.87,0,0,0-68.67-.37c-14.73,1.94-28.13,7-39.3,16.07-7.81,6.41-16,14.33-29.91,12.06-10.9-1.78-21.89-7.55-32.89,0-.64.43-2.17.18-3.23,0-16.93-2.48-33.35,0-49.73,3.23a30.68,30.68,0,0,1-18.09-1.62c-19.72-8.24-41.73-7.55-62.91-10.08a16.22,16.22,0,0,0-9.44,1.74h0c-2.84.56-5.7,1-8.5,1.68-29.28,6.84-56.15,18.08-83.12,29.22-17.78,7.35-37.68,11.38-53.27,22.15-11.4,0-23.08-1.08-33,5.21h0l-13,3.77c-2.46.55-5.46.56-7.29,1.75-9.49,6.12-19.38,4.51-30,2.37-11.3-2.26-23.18-4.19-34.62-.87-20,5.8-40.2,2.58-60.45,2.22-11.16-.19-22.7-.62-31.65-5.78-19.55-11.26-39.63-6.41-59.93-3.3-20.77,3.94-41.9,6.85-61.58,13.92h0c-12.22,2.16-23.54,6.33-35,10.08-7.08,2.29-14.16,3.23-21.43,1.92-15.54-2.8-29.85-.09-43.34,5.91-11.17,5-21.89,10.57-32.94,15.72-9.4,4.38-19.34,7-30.41,4.8q-48.71-9.84-91.73,11h0c-3.54.66-7.18,1.08-10.62,2-21,5.61-40.8,14.15-63.33,15.73-2.48.18-4.86,1.19-7.27,1.82h0c-3,1-7.31,1.48-6.9,4.64s5,3.08,8,3.43a377.37,377.37,0,0,1,39.37,7.2c29.46,6.58,58.54,14.42,89.2,16.91h0l6.46,1.71h0c17.37,4.93,35.26,4.87,53,2.36,24.71-3.51,48.2-3.67,71,7.09,15.19,7.18,32.62,10.3,50.39,10.79,32.06.81,64.38,4.13,95.88-3.31,26.38-6.24,52.6-5.87,79.06-1.08a10,10,0,0,0,4.84.89c22.72,4.48,45.21,11.87,69,1.87,3.8-1.6,9.25-.66,13.94-.9l.07-.27h.1l-.17.25a97.52,97.52,0,0,0,52.88,0l-.15-.24h0l.1.25c6.21,0,12.66.34,18.3-1.94,17.79-7.18,34.8-9.29,55.2-4.24,32.39,8,66.44,5.22,99.84,2.32,19.73-1.7,38.3-6.58,54.9-15.7h0Z"/></clipPath><linearGradient id="linear-gradient-12" x1="2242.63" y1="1628.78" x2="2200.41" y2="1981.61" xlink:href="#linear-gradient-7"/><linearGradient id="linear-gradient-13" x1="2297.15" y1="1844.4" x2="2226.5" y2="2199.26" gradientTransform="matrix(1, 0, 0, -1, 0, 2996.7)" gradientUnits="userSpaceOnUse"><stop offset="0" stop-color="#f28003"/><stop offset="0.08" stop-color="#f07e07"/><stop offset="0.16" stop-color="#eb7914"/><stop offset="0.24" stop-color="#e2702a"/><stop offset="0.32" stop-color="#d56348"/><stop offset="0.38" stop-color="#cc5a5e"/><stop offset="1" stop-color="#366487"/></linearGradient><clipPath id="clip-path-5"><path class="cls-1" d="M215.8,1470.63c21.53-3.85,44.51-7.28,66.34-8.08,27.7-1,54.31,12.38,81.52,15.93,19.45,2.55,40.39,6.55,60.31,4,10.15-1.33,19.28-5.91,28.85-9.62,5.59-2.16,11.35-4.19,17-6.3,26.12,7.83,53.15,9.5,80.11,6.61,1.6-.17,3.21-.31,4.82-.47,31.43,9.36,61.42,17.19,96.62,11,22.48-3.93,42.71-17.19,65.6-16,8.93.45,15.55,4.21,24.21,5.12,6.7.72,14.52-.18,21.32-.18,16.75,0,34.79,1.7,51.13-1.08,17.09-2.92,30.74-9.61,48.55-8.71,17.6.88,32.49,9.48,51.14,9.84,18.23.36,32.93-5.3,51-4.87a84,84,0,0,1,19.23,2.41c10,2.32,17.87,1.24,27.83,2.15,21.5,2,41.73,9.71,63.38,10,14.9.23,26.23.46,40.12,3.72,24.76,5.81,52.78,2,72.59-11a131.71,131.71,0,0,1,15.5-8.63c22.34-2.83,44.67-2.05,67.41-.13a165.07,165.07,0,0,0,89.22-17.17c12.17-6.1,26-2.47,39.09-3.23h0c30.71,7,61,16.68,92.88,17,16.17.18,32.38-2.15,48.57-2.86,35.38-1.62,68.64-15.8,104.73-14.69,35.07,1.07,70.25-1.08,105.35-2.16,17.49-.58,34.2,1.89,50,9,29.49,13.36,60.3,10.61,90.62,5.39,55.2-9.4,110.25-4.81,165.36-.58,23.72,1.81,47.29,2.78,70.84-2.16,7.19-1.5,14.84-.9,22.26-1.42,3-.21,6.7,0,6.95-4.09.16-3.13-3-4.07-5.47-4.57-12.29-2.55-23.85-9.2-37.13-6.62h0c-21.78-1.31-41-12.2-62.4-15.29-12.56-1.8-24.81-5.7-37.73-5.17h0c-25.15-5.21-50.45-2.4-75.73-1.46-32.55,1.21-65.35,6.73-96.74-8.14-8.34-3.94-18.71-3.87-28.14-5.64h0c-21.15-6.64-42.92-8.56-65-7.55-19,.91-36.09-3.24-53.18-11.53-23.9-11.55-48.65-21.5-75.1-27-18-3.77-35-3.23-50.65,6.73-5.51,3.5-11,5.06-17.33,3.75h0c-11.71-7.83-25.25-9.41-38.89-10.13-14.79-.78-27.92-4.47-40.33-13.14-12.65-8.87-26.09-17.34-42.07-20.3h0c-37.63-17.86-76.13-19.15-115.25-5.19-11,3.93-21.69,8.74-32.52,13.15h0a33.81,33.81,0,0,0-4.54,3.31c-19,12.74-36.55,9.57-56.43-4.55-15.37-10.91-35.88-12.94-55.38-14.16-7-.45-13.84-2-20.75-3.06-16.12-2.46-32.21-4.66-47.63,3-5.76,2.87-11.17,1.92-16-1.84-4.61-3.55-9.51-6-15.63-5.77l-7.69-2.63h0c-14.75-9.89-32-7.22-48.33-8.25-8.68-.55-14.18-2.66-19.72-9.45-9.17-11.2-20.53-20.56-34.78-25.88h0c-6.5-6.88-14.81-10.47-24.08-12.33-20-9.42-40.86-16.11-63.2-17.89-2.95-5.39-8.69-5.47-13.74-6.15-31.18-4.19-62.12-4.15-92.19,6.47-6.14,2.16-11.67,2.5-17.65-.63-34.13-17.83-68.3-17.62-103.45-1.72-12.23,5.55-24.17,11.87-36.73,16.82-20.31-31.17-46.9-53.42-78.12-69.62-10.34-16.53-22.19-37.53-42.08-42.68a54.3,54.3,0,0,0-12.53-1.28,188.85,188.85,0,0,0-39.2-18.07c-32-10.79-65-22-98.92-14.46-19.28,4.32-27.84-2.5-37.74-14.93-6-7.55-13.24-14.83-23.86-16.94h0a17,17,0,0,0-.24-2h0c-15.23-12-32.39-19.66-52.28-20.3-1.27,0-2.59-.11-3.88-.11ZM490.52,1457c2.8-1.63,5.77-3.23,6.7-3.23,3.22,0,7.7,2.07,12.29,4.31C503.17,1457.82,496.87,1457.5,490.52,1457Z"/></clipPath><linearGradient id="linear-gradient-14" x1="1053.41" y1="1162.07" x2="1180.38" y2="1723.38" gradientTransform="matrix(1, 0, 0, -1, 0, 2996.7)" gradientUnits="userSpaceOnUse"><stop offset="0" stop-color="#ce9676"/><stop offset="0.38" stop-color="#cc5a5e"/><stop offset="1" stop-color="#366487"/></linearGradient><linearGradient id="linear-gradient-15" x1="1190.92" y1="802.48" x2="1190.92" y2="1293.55" gradientTransform="matrix(1, 0, 0, -1, 0, 2996.7)" gradientUnits="userSpaceOnUse"><stop offset="0" stop-color="#d6b75a"/><stop offset="0.38" stop-color="#cc5a5e"/><stop offset="1" stop-color="#365887"/></linearGradient><linearGradient id="linear-gradient-16" x1="1010.57" y1="1479.98" x2="1042.86" y2="2003.05" gradientTransform="matrix(1, 0, 0, -1, 0, 2996.7)" gradientUnits="userSpaceOnUse"><stop offset="0" stop-color="#ffb993"/><stop offset="0.38" stop-color="#fe7072"/><stop offset="1" stop-color="#4481ab"/></linearGradient><clipPath id="clip-path-6"><path class="cls-1" d="M360.62,1008.43a786.92,786.92,0,0,0,143.07,2.9c13.71-.94,27.71-4.5,41.24-2.16,21.69,3.83,43.79,2.9,65.66,4.44a8,8,0,0,0,1.37.42c4,1.07,8.32.65,12.51.91,43.86,2.72,87.51-4.31,131.4-1.28,38.65,2.63,77.44,1.35,116.14.84,22.33-.29,44.84-2.33,61-15h0c9.45-2,15.69-8.37,26.24-8.92a94,94,0,0,0,9.84,2.09c31.53,3.45,63.18,3,94.87,1.26,20.35-1.14,39.09-5.47,57.47-11.41,7.22-2.34,13.24-6.47,21.71-7.09,4.46,2.62,10.64,2.67,15.45,4.75h0c5.69,3.77,13,3.77,20.2,4,17.82.5,35.63-1.08,53.44.08h0c19.13,8.77,47.26,9.3,62.38.58,12.16-7,23.9-9,39.55-4.42,22.51,6.53,46.75,7.21,70.35,2.81,12.59-2.34,24.23-7,36.28-10.62,26.08-.35,52.16,1.18,78.17-3.17a172.8,172.8,0,0,1,44.17-1.08c15.4,1.43,30.82,0,46-2,3.19-.44,6.12-1.36,6.93-3.77.75-2.16-1-3.87-3.7-4.73-18.75-6-36.14-13.83-55.77-18.61h0c-12.9-7.28-28.79-7.66-44.35-8.77-3.35-.25-7.54.25-9.35-2.16-7.47-10-21.37-15.82-32.66-23.28-11.6-7.67-41.57-7.41-52.24-.22h0l-5.59,1.31h0c-8.13.8-12.18-3.68-17.76-6.21-19.37-8.82-34.17-22.65-61.14-22.94-24.64-.28-49.06-.79-72.71,4.87a72,72,0,0,1-18.71,1c-10.28-1-20.63-1.93-31-2.15-8.13-.16-13.41-1.56-14.22-7.55-.38-2.81-3.55-4.87-5.32-7.27-8.06-11-24.5-15.29-37.3-22.52-16.58-9.37-35.27-15.63-56.59-15.62-19.28,0-34.12-3.63-44.55-14.67a2.72,2.72,0,0,0-.78-.34h0c-15.35-12.24-34.83-18.66-58.41-21-38.21-3.75-75.94-1.54-113.63,2.44-4.66.48-9.29,1.6-13.53-.78h0a25.17,25.17,0,0,0-7.16-18.83c-4.95-5.39-11.35-9.54-17.6-14-23.45-16.8-52.15-18.88-83.49-14.4h0l-2.23,1.15h0c-15.9,2.82-29-1.38-41.32-7.55-1.12-.77-2.08-1.59-3.22-2.31-11.47-7.25-27.12-8.76-40.49-13.38-32.21-11.15-65.89-17.91-102.75-16.39-40.58,1.69-77.51,10.26-111.6,25-7.82,3.41-14.64,8.63-24.33,9.35a166.53,166.53,0,0,0-52.33,11.87c-7.36,3-15.43,5.82-19.76,11.39h0c-2.47,2.74-7.58,4.14-8.88,7.36-2.24,5.5-7.59,5.39-14.67,5-33.39-1.59-66.31-.89-95.76,12.06-9.18,3.38-18.16,7-24.71,12.68V970.08c.69.51,1.41,1,2.12,1.5-.7-.08-1.4-.18-2.12-.22V979c14,3.23,26.38,9.87,40.45,12.14C291.55,996.77,325.39,1004.43,360.62,1008.43Z"/></clipPath><linearGradient id="linear-gradient-17" x1="916.41" y1="1795.83" x2="916.41" y2="2132.22" gradientTransform="matrix(1, 0, 0, -1, 0, 2996.7)" gradientUnits="userSpaceOnUse"><stop offset="0" stop-color="#ce9676"/><stop offset="0.38" stop-color="#cc5a5e"/><stop offset="1" stop-color="#315b7a"/></linearGradient><linearGradient id="linear-gradient-18" x1="900.29" y1="1995.94" x2="888.52" y2="2241.42" gradientTransform="matrix(1, 0, 0, -1, 0, 2996.7)" gradientUnits="userSpaceOnUse"><stop offset="0" stop-color="#fa7428"/><stop offset="0.38" stop-color="#f83924"/><stop offset="1" stop-color="#4884b3"/></linearGradient><radialGradient id="radial-gradient-3" cx="2368.92" cy="1099.69" r="2345.03" gradientTransform="matrix(1.12, 0, 0, -1.08, -240.86, 3013.15)" gradientUnits="userSpaceOnUse"><stop offset="0" stop-color="#e1ab6e"/><stop offset="0.38" stop-color="#de887a"/><stop offset="1" stop-color="#3f7499"/></radialGradient><linearGradient id="linear-gradient-19" x1="3091.61" y1="118.21" x2="3136.05" y2="1470.29" gradientTransform="matrix(1, 0, 0, -1, 0, 2996.7)" gradientUnits="userSpaceOnUse"><stop offset="0" stop-color="#81674d"/><stop offset="0.38" stop-color="#404a6b"/><stop offset="1" stop-color="#152039"/></linearGradient><linearGradient id="linear-gradient-20" x1="2652.93" y1="131.59" x2="2697.38" y2="1484" xlink:href="#linear-gradient-19"/><linearGradient id="linear-gradient-21" x1="1785.97" y1="158.77" x2="1830.42" y2="1511.02" xlink:href="#linear-gradient-19"/><linearGradient id="linear-gradient-22" x1="4296.15" y1="80.83" x2="4340.57" y2="1432.69" xlink:href="#linear-gradient-19"/><linearGradient id="linear-gradient-23" x1="4077.83" y1="87.19" x2="4122.28" y2="1439.58" xlink:href="#linear-gradient-19"/><linearGradient id="linear-gradient-24" x1="3439.21" y1="107.16" x2="3483.67" y2="1459.74" xlink:href="#linear-gradient-19"/><linearGradient id="linear-gradient-25" x1="1237.68" y1="175.63" x2="1282.14" y2="1528.43" xlink:href="#linear-gradient-19"/><linearGradient id="linear-gradient-26" x1="1980.12" y1="153.18" x2="2024.54" y2="1504.41" xlink:href="#linear-gradient-19"/><linearGradient id="linear-gradient-27" x1="967.5" y1="184.43" x2="1011.93" y2="1536.38" xlink:href="#linear-gradient-19"/><linearGradient id="linear-gradient-28" x1="588.51" y1="195.92" x2="632.97" y2="1548.58" xlink:href="#linear-gradient-19"/><linearGradient id="linear-gradient-29" x1="2389.73" y1="-771.57" x2="2370.68" y2="111.13" gradientTransform="matrix(1, 0, 0, -1, 0, 2996.7)" gradientUnits="userSpaceOnUse"><stop offset="0" stop-color="#81663a"/><stop offset="0.38" stop-color="#7e5040"/><stop offset="1" stop-color="#152039"/></linearGradient></defs><g id="Layer_1-2" data-name="Layer 1"><rect class="cls-2" x="215.8" y="206.72" width="4288.34" height="2585.03"/><ellipse class="cls-3" cx="2360.53" cy="1663.49" rx="506.45" ry="488.46"/><ellipse class="cls-4" cx="2360.53" cy="1663.49" rx="153.43" ry="147.98"/></g><g id="Layer_2" data-name="Layer 2"><path class="cls-5" d="M215.8,928.37C340.69,912.32,464.57,891.7,589,869c45.65-8.35,89.66-6.68,135.81-8.22,74.1-2.49,148.14-9.37,222.34-12,148.17-5.32,300.27-32.36,447.38-5.4,55.09,10.1,109,25.7,163.8,37.12,47,9.82,89.09,10.53,136.59,10.86,83.91.61,167.31,15.45,251.19,17.77,74.94,2.08,147.71-12.58,222.23-11.73,32.39.37,64.08-3.9,96.29-5.64,35.47-1.89,70.44,4,105.86,5.4,52.23,2,103.41-2,155.13-8.17,17.72-2.15,43.06.91,59.43-5a106,106,0,0,0-46.39.07q-73.56,4.05-147.22,1.21c-66.93-3.85-129.44-15.75-194.61-29.39-66.58-13.94-132.61-21.88-200.73-25.67-80.66-4.47-163,1.41-242.93-10.35-48.93-7.21-97-22.2-146.18-27-52.58-5.07-107.7.63-160.72-.89-54.72-1.58-108.33-2.84-162.4-11.86-55-9.17-105.14-28.42-159.23-40.47-47.89-10.66-93.88-8.38-141.82-14.2-33.23-4-66.44-12.08-99.82-16.94C831.77,701,782.53,689.6,730.62,685.73c-80.25-6-162.39-16.41-242.81-11.63q-68.47,3.55-136.65,10.3a914.08,914.08,0,0,1-135.4-5.64Z"/><path class="cls-6" d="M4504.14,1961.3v-531c-7.45.54-12.63,2.7-20.1,3.24-6.29.48-13.67-.36-20.1-.23-12.09.26-21.35,2.81-33.5,3.1-11.59.28-23.36-.28-34.95-.14-16.21.2-29.18,2.65-45.34,2.94-8.69.16-12.11,1.49-20.1,2.39-7.28.8-13,0-20.1.48-10.15.73-22.25,2.45-32,3.78-8.69,1.17-16.65,2-26.81,3-3.49.33-9.87,1.88-14.7,2.31-7.07.62-13.34,1.49-20.23,2.3-18.08,2.09-54,2.26-72.11,0-10.4-1.31-15.13-2.34-28.24-2.3-13.4,0-26.8.08-40.15,0-14.94-.08-25.68,2.71-40.13,3a326,326,0,0,0-33.5,2.23c-12.43,1.39-21.29.63-33.61,2.88-11.26,2.06-21.89,3.66-33.31,5.82-22.21,4.22-43.62,9.27-65.24,13.37-21.22,4-45.62,4.83-68.54,7.48-21.07,2.43-51.57,1.25-73.59.72-12.16-.29-21.3-2.82-33.45-3.09-6.23-.13-14.39.87-20.42.23s-6.6-2.66-12.67-3.24c-6.32-.65-12.4.29-19-.49-2.68-.32-7.63-1.91-11.34-2.38-9.71-1.2-20.1-2.39-30.15-2.94a520.05,520.05,0,0,0-72.25.72c-10.12.89-23,4.52-34.94,5.39-6.52.49-13.55-.8-20.1-.31-9.94.74-16.35,3-26.8,3.23-4.47.1-9.15-.38-13.53-.14-9.31.52-11.4,2.32-19.57,3.24-4.47.46-9.39-.5-13.9-.24-9.74.57-12,2-21,3.12-7.31.91-14.89.1-22.55,1.28-8.71,1.35-15.55,3.4-24.57,4.55-19.08,2.42-33.81,6.54-52.38,9.71-11.8,2-78.58,7.88-79.4,10.28,11.53,1.62,27.92,1.08,39.87.4,22.5-1.24,45.36-3,67.12-5,12.63-1.15,23.82-2,36.32-3.32,11.71-1.26,24.72-3,36.85-3.31,22.58-.54,48.91-1,70.25,1.55,25,3,54,1.48,80.26,1.48h38c21.4,0,40.21,2.75,61,3.17,18.77.38,35.28-3.32,54.37-3.23a341.6,341.6,0,0,0,42.18-2.16c31.87-3.4,62.74-6.69,95.47-6.63,21.3,0,53-2.59,72.9.58-1.12,3.58-11.32,5.39-17.21,7.69,24.42,3.81,65,.58,90.16.59,16.86,0,35.29-1,51.83.23,16.23,1.17,26.63,6.14,41.65,8.12,17.31,2.29,40.3.54,58.37.52,12.71,0,53,0,56.7,5.26-15.69,3.54-55.14,2-71.66,2.73-39.7,1.69-80.56,2.54-119.49,6.7-24.06,2.56-46.19,7.21-70.18,9.82-7.94.86-17.46,1.26-24.84,2.74s-37.46,10.07-40.66,14.12c-2.23,2.89,5.36,3.58,2.94,7-2.15,3-47,9.57-49.84,10.07-24.72,4.31-47.2,6.12-73.32,6.57-42.74.73-85.07,3.08-125.56,9.53-23,3.68-45.07,8.12-68.41,11.43-21.21,3-39,1.29-60.09,2.52-10,.58-19.44,2.29-29.29,3.23-21.29,1.92-38.75.33-60.19-.15-14.52-.32-78.41,4.69-78-5.09a58.33,58.33,0,0,0,10.39-3.1c-17.08-2.16-36.85-.16-54.43.86-30.51,1.77-60.12,2.34-90.09,5.8-66.47,7.69-128.78,25.17-198.61,25.39-21.22.06-42.44-.62-63.66-.36-32.09.39-62.41,6-94.79,6.35-76.39.85-151.88-1.25-227.91-3.17-27.48-.7-55.56-1.8-82.8-3.68-30.66-2.16-61.17-1.83-91.91-3.7-39.34-2.42-78.64-.18-117.56-4.24-33.57-3.51-70.2-6.89-100-14.78-53.91-14.26-113.15-21.63-173.36-29.49-59.39-7.76-116.37-19.16-176-26.24-21.21-2.53-42.73-4.54-64.37-6.21q3.36.14,6.64.34c18.32,1.25,55.68,7.1,71,.21-16.42-6.08-49.41-9.83-70.47-12.1-31.27-3.35-63.65-5.39-95.25-8.07-111.4-9.35-225.9,12.44-338.37,7.09-54.63-2.59-105.63-9.7-159-14.59-57.07-5.18-121.16-4-179-2-32.39,1.08-56.24,2-88.16,0-11.17-.71-21.78-.81-33.08-.75-12.74.06-62.72-3.31-68,2.63,14.75,4.7,30.33,6.35,48,8.36,48,5.39,97.63,6.12,145.11,12.57,43.33,5.88,80.14,17.77,124,23.88,46.49,6.47,94.56,13.25,142.42,17.73,54.9,5.14,112.06,3.72,167.38,7.55,46,3.24,91.8,5.89,138.48,6.73,45.55.81,89.89,4.21,135,5.8,35.48,1.25,74.51-1.74,110.22-2.43,20.73-.39,40.41-3.17,61.21-3.38-22.45,7.78-58.6,11.86-85.5,14.89-20.48,2.29-34,2-54.21-.53-34.84-4.39-74.82-3.11-100.68,9.77,1.57,7.09,22,3.14,27.92,7.89-24.25,5.62-49.21,6.47-76.24,7.55-42.07,1.61-84.24,2.68-126.09,5.27s-84.87,6-126.44,9.42a332.47,332.47,0,0,0-56,9.58q5.58,11.74,42,6.41,84.26-1.15,168.53-2.26c60.21-.08,115.87,1.75,174.78,6.23,46.49,3.55,92.84,5.29,139.68,7.55,23.81,1.08,49.39.12,72,4.09,31.42,5.52,59.94,11,94.32,12.2,20.9.72,43.2,0,63.88-.8,20.91-.78,56.7-5.59,77.82-1.79-15.63,7.09-70.6,5.87-84.48,5.77-37.77-.25-75.18-2.29-112.79-3.24-35.19-.85-69.67,1.36-104.69,2.31-48.14,1.3-105.51.33-153.1-3.7-32.46-2.74-63.75-7.3-96.56-9.15-50.45-2.87-101.31-.24-151.88.88-51.61,1.14-111.92,3.24-163.12-2.33-44.67-4.86-87.35-12.94-131.27-19-112.69-15.47-227.57-27.87-339.49-44.39-56.36-8.32-110.2-18.62-167.89-25.14C517.26,1580.29,398,1577,282.54,1569c-22.86-1.57-45.09-3.37-66.94-5.39v397.78Z"/><g class="cls-7"><path class="cls-8" d="M3533.68,206.88H2881.76q-1327.82,0-2655.64-.16c-8.36,0-10.27,1.48-10.26,8.11q.42,219.42.21,438.87v86.54c11.22-.83,22.19,1.34,33.3,1.73,23.45.82,43.56-6.47,62.16-16.63,8.47-4.64,17.73-8.54,24.76-14.81s15.31-8,26-5.9c18.06,3.5,36.45,6.27,54.72.34h0c21.31-3.44,41.73-8.06,56.05-22.65,4-4.06,10.71-5,17.11-5.62,6.7-.69,13.48-.79,19.8-2.75a4.62,4.62,0,0,0,2.88-1h0L562,662.37h0c32.47-7.93,64.68-16.11,73.91-47,2.62-8.72,12.07-15.62,10.94-25.37.28-3.64-.66-7.42,2.15-10.79h0c8-1.54,16.08-1.56,24.21-1.55,22.18,0,41.32-7.28,59.76-16,3.68-1.73,6.3-4.84,9.55-7.18,5.16-3.72,10.05-8.16,18.29-5.18h0c24.24,8.84,48.77,10,73.71,1.82h0c12.1-3.51,24.86-5.58,36.4-10.36,4.87-2,10.06-1.32,15.18-.3l35.41,7.2a8.23,8.23,0,0,0,2.93.75c32.77,8.49,65.69,9.22,98.35-.52,27.62-8.24,53.61-18.56,71-38.82a55.64,55.64,0,0,0,6.43-9.15c3.35-1.37,7-2.94,7.7-6,2-8.48,9.79-8.68,17.87-7.85,34.24,3.51,68,1.32,101.7-4.15,19.78-3.23,33.8-13.39,47.77-23.18,10.33-7.23,20.93-10.45,34.14-10.17,3.22.07,6.46-1,9.68-1.55,16.37.34,31.72-2.22,45.33-9.8,4.47-2.46,9-2.25,13.8-.82,34.62,10.37,70.35,13.8,107.2,12.45,11.38-.42,22.16-2,32.18-6.08,8.8-3.56,16.4-3.41,25,.95,14.34,7.26,30.49,9.52,47.56,10.66,29,1.93,57.77,1.15,86.65-.31,3.7-.19,7.44,0,10.89-1.38h0c.55-.13,1.12-.23,1.65-.33h0c7.24,5.73,16.75,4.15,25.12,3.91,23.6-.66,44.87-7.22,65.89-15.94,19.24-8,36.06-19.32,56.76-25.12h0c14.77,0,26.46-5.95,38-12.28h0c11.17.37,22.16,2.53,33.42,1.65h0c25-.73,49.49-3.49,73-10.65,5.16-1.58,10.75-2.24,16.09-3.44,17.33-3.94,34.26-8.45,43.38-22.35,4.14-6.32,10.72-8.42,19.36-7.76,20.42,1.59,39.85-1.79,58.8-7.54,3.82-1.16,7.82-1.91,10.34-4.85l6.7-1.71h0a270.86,270.86,0,0,0,46.21-15c6.24-2.61,8.8-7.94,10.95-12.88,2.23-5.21,6.57-9.23,10.69-13.3,4.68-4.64,11-5.86,17.95-3,51.26,21.26,106.39,26.66,163.21,24.66,15.56-.55,31.05-2.16,45.68-7,28.2-5.23,55.2-13.94,83.87-17.84,23.24-3.16,45,.86,60.54,14.14,23.06,19.74,52.48,26.66,83.55,32.15,2.91.51,5.8,1.08,8.7,1.55,15.73,3.5,31.71,2.51,47.4.63a211.22,211.22,0,0,1,39.75-1.18c26.81,1.77,52.38-4.77,76.39-12.85,12.61-4.25,22-14.42,32.9-21.93h0c11.57-2.28,22.27-5.65,29-14.13,3.35-12.76,16-19.95,27-28.11,3.2-2.39,7.66-1.77,11.72-1.19,44.8,6.47,88.43.44,131.86-7.67,9.37-1.75,18.69-3.61,28-5.39a8.29,8.29,0,0,1,1.12-.41l-1.12.41c11,.35,21-3.16,31.48-4.91,16-2.67,31.58-1.7,47.34.58,7.28,1.08,14.67,1.89,21.77-.9h0l6.7.15h0c10.29,7,22.9,3.41,34.13,3.74,31.59.93,62.92-1.3,93-10.3a111.13,111.13,0,0,0,21.49-9c10.17-5.51,20.6-7.77,32.45-3.4,2.56,1,5.8.77,8.72,1.08h0c27.61,4.31,54.52-.76,81.53-3.95,16.54-2,29.8-10.12,44.29-15.84C3520.93,212.77,3528.61,211.57,3533.68,206.88Z"/><path class="cls-9" d="M3524.32,191c-21.1,8.19-46.29,21.86-69,22.88-5.13.22-10.78-.47-16-.44h-36.85c-23.91,0-48.92-1.62-71.17,4.36-9.95,2.68-17.29,10.95-26.81,14.91a125.7,125.7,0,0,1-32.44,7.82c-12,1.08-22.33-.18-34,2.15-12.76,2.51-23-1.71-36.86-2.15-23.3-.76-41.63-8.95-65.2-9.08-25.57-.14-48.16,9.13-73.71,8.95-24.74-.24-45.95,4.44-70.88,4.44-11.17,0-23.27,1.23-34-1-6.07-1.25-10.9-2.61-17.14-3.48s-9.38-3.14-14.52-4.1c-12.28-2.3-30.09-2.3-28.17,8.62,1.44,8.18,15.23,11.87,14.95,20.22-.36,10.49-20.89,7.14-31.17,7.23-12.43.13-23.13,3.24-36.77,4.73-.8,6.53,7.89,9.4,4.11,16.26-1.42,2.57-9,6.72-11.77,8.75-10.55,7.82-17.87,9.88-32.6,10.07-13.2.17-26.48.16-39.69,0-14.24-.15-25.4,4.16-39.58,4.45-18.92.38-37.88,0-56.81,0-5.25,0-12,.65-17.14.11-7.82-.83-9.68-3.5-16.58-4.82-24-4.59-62.17,10.12-79.74-6.47-9.64-9.1-5.58-18.56-22.49-20.31-15.76-1.63-35.43-.95-50,3.35-26.35,7.73-52.13,20.08-80.41,23.42-19.35,2.3-45.36-7.32-62.54-13.24-16.06-5.56-30.49-14-45.67-21.29-11.53-5.54-22.43-12.32-34-17.94-10.46-5.07-23.57-12.23-31.73-19.5,23.22,9.43,44.46,18.1,71.7,13.68,10.59-1.72,24.15-6.6,34.3-9.71,7.32-2.27,12.18-9.14,20.57-8.09-27.29.8-52.83-3.33-79.77-4.61-19.7-.94-35.23,4.39-54.21,8.08-15.38,3-30.9,5.24-46,9-5.58,1.37-18.58,3.1-21.73,6.47-6.13,6.57.75,24.25-3.15,32.73a30.79,30.79,0,0,1-14.29,14.81c-6.89,3.67-14.68,2.88-17.57,9.64-1.9,4.41,2.51,8.26-.75,12.79-3.64,5.06-13.66,7.88-20.1,9-14.79,2.55-21.37,5-35.05,10.78-18.53,7.74-44.73,24.81-67.57,16.3-.59-2.58-1.3-5.15-2.11-7.68-13.64,9-45.87,4-61.13,0a221.83,221.83,0,0,1-46.38-18.7c-6.87-3.9-12.49-12.65-20.84-12.75,7.57,17.66,19.46,31.84,39,43.32,8.35,4.91,14.52,4.15,6.52,11.34-7.14,6.47-30.55,3.33-39.78,3.15-11-.22-13.87,0-23.09,4.26-12.8,5.89-20.65,7.14-34.87,10.29-20.1,4.45-38.85,12-59.41,17-20.8,5.08-60.48,10.45-80.58.35-10.41-5.23-8.32-15.31-17.51-18.94q-9.35.76-18.72.77a80,80,0,0,1-28-4.17c-16.66-6-23.69-17.26-26.8-30.91-2.09-9.3,1.53-19.25-.75-28.25-1.57-6.18-8-10.08-5.35-16.51,3.1-7.63,26.92-19.8,34.8-23,9-3.65,23.95-3.61,30.7-10.07-16.69,7.76-35.06,9.31-54,11.81-16.51,2.16-24.57,0-34.77,10-6.8,6.63-12.36,16.94-22.24,21.13-24.19,10.24-50.68-7-74.7-2.55-5.94,1.08-9.21,4.62-14.6,6.74-8.15,3.24-17.09,1.3-25.26,3.67-3.25,1-12.28,4.06-12.07,8,.48,8.74,31.36,7.13,34.36,7.07,19.83-.34,65.72-11.7,81.24,1.58,2.68,2.29,14.2,20.34,13.73,22.65-9.64,5.78-36.42,7.25-37.76,17.79-1.11,8.69,30.16,16.94,35.46,17.76,13.89,2.16,37.38-4.31,50.26,1.08,13.54,5.74,4.94,17.42-6.29,21.3-27,9.33-60.94-.49-89.18,1.63q-10.87,5.74-23.93,1.87-21.9-5.71-43.34-12.49c-13.62-3.79-23.28-4.81-38-3.11-15.52,1.8-33,1.32-48.17,3.36-13.41,1.8-24.9,7.55-37.54,11.6-18.5,5.9-34.1,6.72-53.45,6.56-10.05-.09-21.94-1.87-31.52.5-16,4-25.53,16.93-42.77,20.87-34.42,7.9-92.7-13.47-97.89-42.14-17.87,5.24-38.39,2.84-49.48-10.79-14.13-17.34.32-29.88,6.06-45.86-14.23-9.89-40.27,13.45-55.84,15.23-24.78,2.84-60.09-8-83.29-14.31-10.71-2.92-20.9-4-31.52-6.9-13.68-3.76-34.9-10.56-49.79-10.37-.15,8-1.21,10.62-13.25,11.95-20.32,2.25-40.58-6.47-52.79-18.33-11.28-11-12.72-24.3-22.67-35.4-6-6.64-18.88-11.75-26.48-17.48-10.84,4-7.51,30.82-2.86,37.84,11.74,17.66,44.5,19.55,64.78,26.33-18.75,36.22,77.71,30.58,96.23,28.39a111.32,111.32,0,0,1,24.32-1.59,29.34,29.34,0,0,0,12.38,4.24c8.56.69,18.29-7.64,26.32-5.62,10.25,2.57,5.18,5.79,11.43,13.12,5.9,6.9,17.5,11.22,28.12,10.4,7.94-.6,11-4.86,18.38-1.24,7.15,3.5,4.67,14.55,8.75,19.93-11.1,18.45-45.56-4.15-54.91,7.3-12.6,15.44,68,3.52,74,5.62a20.15,20.15,0,0,0,.94,7.55c13.8,1.15,29.27,1.21,41.42,8.17s10,21.57,14.32,32.35c3.35,8.37,12.74,21.39,7.71,29.47-7.91,12.68-36.65,13.91-50.81,12.77-21.4-1.74-44.83-3.33-66.25-.58-22.71,2.92-43.93,10.26-66.1,5.26-20-4.53-35-14.75-52.73-21.18-13.4-4.89-29.89-4.52-44-9-17.55-5.5-31.56-13.42-46.44-22.58-24.27,13.14-34.21,38.13-50.13,56.39-13.93,16-42.61,5.7-61.13.6-50.47-13.82-96.45-38.56-120.83-76.91-6.55,33.61,14.52,59,48.45,78.5a177.31,177.31,0,0,0,54,20.6q10.75,1.15,17.22,7.5c-7.6.08-14.61-2.06-22.05-2.94-22.46-2.65-45.67-.84-68.27-1.25-29.41-.54-59.24-1.4-87.91-6.8-4.94-.93-30.32-5.39-16.2-13.8-26.23,4.07-45.79-1.92-71.76-4.6-12.66-1.32-45.21.51-41.14,18.76L332,567a145.45,145.45,0,0,0,53.83,27.12c22.82,3.43,47.48.89,70.36,0-16.82,19.77-97.16,27.73-121.81,19.06-23.08-8.11-59.19-32.36-81.52-10-10.62,10.67-2.44,17.55,9.18,26.36,8.6,6.47,20.1,15.57,30.44,19.72,18.39,7.39,46.79-.8,66.88-1.15a337.35,337.35,0,0,1,65.17,5.71c-11.28,20.89-56.77.7-76.54,4.89s-39.86,18-57.08,26.73q-29.46,19.41-67.36,24.2a409,409,0,0,1-53.77-5.54A163.28,163.28,0,0,0,102,714.19Q43.24,739.56,46.22,796.6q58.57,148,261.21,183.27,343.61,57.69,693.51,24l470.52-41q442.23-61,882.4-130.49Q2707.59,793,3063,764.63c219.47-24.6,465.69-48.53,654.83-149.11,85.25-45.3,159.7-97,201.48-172.84q35.27-58.87,34.06-124.19-.95-55.44-45.85-94.76-26.68-40.68-84.07-55a626.47,626.47,0,0,0-106.83-14.11c-27.62-3-54.25-11.2-81.89-12.94-30.94-1.93-70.71,6.1-96.69,20.17C3508.3,178,3514,201.34,3524.32,191Z"/></g><g class="cls-10"><path class="cls-11" d="M2191,666.4c7.58-3,15.77-3.92,24.27-4.57,22.66-1.72,45.39-1.25,68.12-1.71,37.4-.78,73.94-5.06,107.86-17.07,23.68-8.38,48.28-10.95,73.77-8.41a217.7,217.7,0,0,0,63.89-3.06,226.35,226.35,0,0,1,70-2.75c7.06.78,14.23,1.25,21.36,1.47,36.12,1.07,69.59-8,103.86-14.36,22.33-4.15,43.27-11.86,67.25-11.58,21,.21,42.06-1.46,62.08-7h0c2.92-.28,6-.18,8.7-.91,29.11-7.77,57.39-8.48,88.43-2.69,36.94,6.88,74.27-.74,110.15-9.26,8.47-2,16.66-2.28,24.64.14,20.74,6.34,41.82,5.49,63.21,2.55,8.65-1.2,17.44-1.9,26.17-2.81h0l5,1.79a52.86,52.86,0,0,0,24.17,7.23c27.67,1.88,55.36.47,83-1.08,11-.59,22.14-1.72,31-6.89,12-7,25.08-8,39.37-5.84,40.33,6,79.54.84,118.51-6.47,4.92-.78,10.24-.93,14.71-2.43,23.78-8,48.53-10.79,74.69-11.15,17.08-.25,35.05-1.32,50.74-8a5,5,0,0,0,1.57-.67c8.94-1.86,17.71-4.1,24.85-8.68,13.59-8.76,28.88-11.87,46.7-8.47,3.35.65,7.5-.32,11.17-.79,39.93-5.07,73.85-20,107.61-35.17,24.69-11.12,46.75-25,71.82-35.8,30.83-13.29,64.67-18.89,99.1-23.73,11.47-1.61,23.45-2.41,33.5-7.55h0a62.39,62.39,0,0,0,17.56-3.87c25.75-3.38,48-11.28,64.41-26.67,2.64-2.48,8-4.8,4.47-8.55-4-4.16-9.87-3.89-15.64-1.69h0l-2.77,1.8-4.8,2.05h0a36.07,36.07,0,0,0-6.22.66c-30.71,9.06-62.75,11.28-95.53,10.58-12.28-.27-24.22,2-35.65,5.46-19.93,6-37.59,15.15-56.89,22-30.21,10.79-63.49,11.42-95.72,15.71-61.33,8.15-122.84,15.42-184.76,20.64-27.92,2.35-53,9.17-77.06,19.08-44,13.26-90,16.7-137.06,14.94-15.21-.57-30.15,1.08-45,3.24-3.35.49-7.81,2.92-10.05-.44-1.74-2.64,1.77-5.1,4.12-7.24,13.47-12.22,32.1-18.33,51.68-23.34,16.75-3,33.11-6.47,48.14-12.81h0l12.56-3.86h0c4.12-.45,8.36-.65,12.37-1.41,7.81-1.5,18-2.43,7.38-10.79-2.58-2,0-3.34,1.84-4.51,3.76-2.42,7.66-4.74,11.5-7.1h0l2.32-1.7h0a406.33,406.33,0,0,1,52.27-4.42c14.63-.32,29-2.74,41.76-8.75,10.64-4.21,22-7.83,27.58-16.53h0c10.14-4.39,15.82-13,30.29-13.63,24.22-1,49.39-1,69.18-14.18a22.08,22.08,0,0,1,4.47-1.68h0c8-.14,15.94-.45,23.92-.36,23.56.26,47-.28,69.77-5.39,14.27-2.06,28.3-4.62,40.5-10.85h0c4.46-.91,8.93-1.68,13.26-2.73,32.18-7.75,62.42-19.49,96.88-22.59,17.72-1.59,35.07-6.17,51.37-12.07h0c23.94-2.42,40.94-12.76,55.38-26h0c8.44-1.73,13.92-6.75,20.95-10,6.85-3.18,14.43-9,22.67-4.87s13.51,2,20.34-1c5.35-2.32,11.5-3.76,17.46-5.22,12.91-3.16,26.71-2.68,39.83-4.83,18.86-3.09,40.3-2.62,51.14-18h0l4.94-.67c12.17-1.88,24.51-3.31,36.11-6.81h0l7.24-.11c26.63-1.52,52.87-4.25,77.53-12.16a7,7,0,0,0,3.09-1h0c3.85-1.21,7.82-2.27,11.55-3.65,17.47-6.47,36.85-10.3,51.76-20.32H3604.8c-11.23,8.29-22.56,16.46-26,28.62-1.11,4.07-6.34,4.22-11,4.76-19.24,2.24-39.75,4.8-54,14-16,10.36-33.5,14.78-53.24,17.13-30.45,2.46-57.64,10.29-78.75,27-6,4.79-12.28,6.75-20.8,6.47-11.38-.36-22.67,0-32.29,5.46h0c-4.62.33-8.93,1.28-12.41,3.65h0c-12.22,1.41-21.41,7-30,12.75-6.37,4.31-12.91,5.75-21.32,6.11-18.1.77-32.5,7-42.5,18.23h0c-20.2,11.77-40.36,23.62-68.84,20.82a8.51,8.51,0,0,0-3.58.8c-18.87,7.61-37.76,4.67-56.21-.5-14.37-4.05-28.83-5.22-43.27-1.78-23.69,5.64-47.2,11.86-63.78,26.69h0l-9.5,6h0c-12.06-2.54-23.91-6.07-36.21-7.44-58.83-6.48-105.49,12.94-149,38.47h0l-2,.43h0l-5,1.51h0c-28.48,1.57-57,3.32-85.44,4.66-31.71,1.48-58.64,15-88.63,20.69a131.51,131.51,0,0,0-21.22,2.45c-18.07,1.82-33.18,8.42-47.78,15.83-21.87,11.11-37.22,27.45-58.48,39.09-2.58,1.41-7.82,3.15-4.47,6.41,2.72,2.65,7.23.9,10.51-.25,14.93-5.22,30.75-5.57,46.9-5.55a338.41,338.41,0,0,0,36.44-2c27.43-2.93,55.25-4.87,80.5-14.38,5.27,0,9.62-2,14.18-3.55,13-4.43,26.36-9.12,40.78-8.63,32.13,1.18,62.21-8.34,94.74-7.43,33.16.93,65.45-7.05,96.18-16.85,10.2-3.23,20.51-4,31.88-3.16,13.56,1.08,27.61,2.68,41.1-1.15,9.84-2.21,17.86-6.81,26.16-10.95,33.27-16.58,70.17-23.63,110-22,25.68,1.08,51.14,3.36,76.86,3.24,3.35,0,7.16-.74,11.05,1.91l-16.85,3.54h0c-11.06,1.45-21.58,3.84-30.35,9.29h0c-7.59,2.35-15.63,2.16-23.59,2.11-29.17-.15-55.72,5.07-77.51,20.1h0c-5.12,2.39-9.2,5.66-16.67,5.06-22.19-1.79-40.43,5.11-56.85,15.26h0c-12.57,5.61-23.25,12.57-30.16,22.27h0c-2.94.73-5.51,2-6.27,4.23-3.25,9.34-11.56,10-23.2,9.15a142.66,142.66,0,0,0-54.06,7l-2.76,1.71c-12.61-1.48-22,4.59-32.64,7.55a72.06,72.06,0,0,1-19.49-3.43c-19.89-5.78-39.87-5.53-59.86-1.23a7.72,7.72,0,0,0-4.16,1h0a170.88,170.88,0,0,0-34.84,7.55c-9,3-17.87,7.74-28.3,7.11-24.25-1.43-46.72,3.24-68.62,9.84-9.7,3-19.06,3.23-29.45,2.25-20.71-2-40.95-.31-59.12,8.26h0c-11.78,4.94-23.86,5.94-37.59,4.32-16.31-1.91-32.49,1.58-44.88,9.54-15.53,10-32.74,14.16-53.07,14.25-19.61.07-37,5.19-51,15.65-6.32,4.71-13.73,8.57-22.87,9.14-19.26,1.21-38.43,3.7-57.93,1.94-24.89-2.25-48.72,7.78-59.5,24.65l-6.92,3.83h0l-5.19,2.64c-4.29,2.16-9.21,4.57-5.87,8.84C2180.7,671,2186.09,668.33,2191,666.4Z"/><path class="cls-12" d="M4497.68,207.58c-15.19,2-28.47,2.71-41.67,7.07-4.32,1.43-8.56,3.13-13,4.43-9.2,2.71-16.88,5.39-25.68,8.72-15.64,5.91-30,9.77-48.27,8.16-7.67-.66-14.21-3.78-22.42-4.41-4.77-.35-8.19-1.73-12.84-2.28-4.05-.49-8.75.31-12.86.16-5-.18-8.07-1.72-12.84-2.33s-7.59,1.76-10.44,1.84c-4.74.14-4.28-1.13-8.69-1.85-3.25-.54-8,.1-11.4.11-17.44.05-33.21,2.07-49.81,4.84s-34.62,1.6-52.13,1.69c-10.11.06-18.06-2.22-28.2-2.15a137,137,0,0,0-28.93,2.79c-14.33,2.8-27,5.67-40.33,10.22-5.17,1.77-9,4.47-14.35,6.12-3.47,1.08-5.77.61-8.43,2.77,6.43.4,11.85-1.84,18.07-2.29,7.69-.55,14.67-2.27,22.57-2.15,3.48,0,7,.13,10.49.07,5.39-.1,6-1.32,9.58-1.75,5.71-.67,11.58-.36,17.51-.53-9.34-.23-17.28,4.55-24.74,7.67-10,4.2-17.62,7.92-28.91,10.35-8.19,1.77-18.78,1.08-25,5.9-7.48,5.8,4,11.16-1.23,17.64-3.81,4.69-16.75,6.35-23.54,6.47-3.91.06-10.22-1-13.81.42-3.8,1.5-6.24,4.86-10.06,6.6-13.12,6-27,14.29-42.86,16.49-7.37,1-22.49,2.38-27.3-2.29-4.18-4.06.37-11,2.86-15.78,1.8-3.46,5.68-6.09-.17-7.8-2.53-.74-13.74-.22-16.2.44-13,3.41-20.46,15.92-25.06,23.85s-8.87,5.22-19.93,6.88c-7.81,1.17-13.5,2.59-19.87,6.07-10.14,5.53-18.26,8.83-29.33,13-7.46,2.81-7.45,4.46-15.64,2.89a150.4,150.4,0,0,1-28.66-8.91c-44.18-17.95,25.68-41.08,35.08-58.78,2.5-4.72,7-19.1-5.5-17.91-2.95.28-9,5.39-11.28,6.7a175.59,175.59,0,0,0-24.88,16.85c-5.76,4.77-12.38,8.81-18.19,13.35-3.35,2.59-9.9,7.32-10.73,10.79-1.27,5.24,6.31,13.87,7,19.33.48,4.05-1.34,8.5.08,12.47s7,5.7,8.27,9.4c-16.6,2.15-33.29,2.75-48.29,9.07-5.38,2.25-9.46,7.55-14.68,8.88-3.45.87-10.88-.22-14.51-.17C3669,367,3648.83,370.8,3634,377c-11.17,4.66-20.47,14.15-35.36,11.23.19-7.65-13.87-9.51-22.75-8.12-17.86,2.78-34.41,10.23-53.09,10.69-15.8.4-29.58,1.64-43.55,7.55-5.09,2.16-17.44,7.55-18.92,11.55,13.78,3.06,32.39-1.54,47-1.78-7.05-.33-15,2.57-21.39,4.24a148.53,148.53,0,0,0-19.28,6.26c-3.09,1.28-6.7,3.77-10.17,4.52-4.18.88-8.45-.44-12.57.61-6,1.57-9.92,6.93-12.14,10.57-2.46,4.08-3.35,8.46-10.28,10.52-5.77,1.71-11.39,2.15-17.27,4.42-13.18,5.11-23.76,12.94-37.41,17.47-11.79,3.94-25.68,4.22-37.25,8-12.83,4.2-22.21,19.56-19,28.27,1.35,3.65,3.42,4.67-2.87,5.6-2.45.36-6.53-1-8.76-1.31a96,96,0,0,0-21.69-1.08c-20,1.38-36.71,11.07-50.18,20.5-8.81,6.18-15.39,8.55-27.1,12.17-9.39,2.91-18.46,6.25-27.43,9.71-4.53,1.75-11.4,5.79-16.48,6.81-5.85,1.19-11.09-2-14.73-5.63,4.22-7.2,11.17-11.92,20.22-16.8,3.79-2,8.94-4.06,11.65-6.86-21.22-4.53-41.32,10.79-56.8,17.85-11.32,5.19-24.42,10.62-37.86,12.82,3.76,3.5,15.57,3.86,21,4.52a143.83,143.83,0,0,0,36.85.12c14.71-1.84,28.9-6.09,43.84-7.07,13-.85,25.8,2.15,38.41,3.65,16.61,2,33.33,1.29,49.66,3.14,29.44,3.35,51.09-2,79.38-6.57,8.22-1.31,16.83-2.79,25.34-2.24,13.88.9,26.91,3.24,41,1.31a183.54,183.54,0,0,1,26-1.7c20.7,0,42.21,1.45,62.54-1.08a216.43,216.43,0,0,0,50.32-12.15c11.65-4.4,20.86-6.3,34-7.55,5.45-.53,12.48,0,17.58-1.24,5.41-1.28,10.38-6.47,15.52-8.55,13.4-5.5,27.54-4.32,42-6.85,6.7-1.2,12.93-3.74,19.22-5.7,28.63-8.87,64.48-11.86,86.69-27.5,9.11-6.47,18.86-9.59,30.78-12.73,18.85-5,36.16-10,56.15-12.7,6.7-.89,20.24-.25,26.8-1.92,4.56-1.16,7.37-2.95,12.93-4.2,12.14-2.73,23.52-6.84,35.95-9,26.55-4.59,54-4.57,79.8-11.77a502.63,502.63,0,0,1,69.6-14.81q43.76-5.28,87-12.25,13.32-8.62,20-2c-23.75,23-52.3,43-83.35,61.56Q4035.1,500,3952.26,522.08l-83.44,17.2q-89.93,12.56-177.89,30.44l-96.1,22A1994.66,1994.66,0,0,1,3391.92,632q-64.77,8.7-130.45,11.94c-61.42,3.8-122.9,6.55-184.6,7.23-43.66.48-89,2.38-131.58-5.07a161,161,0,0,1-41.82-10.86,139.19,139.19,0,0,0-47.21-3.59q-27,.35-53.9,2.78a51.52,51.52,0,0,1-27.92.1,175.74,175.74,0,0,1,36.86-31.93c26.59-17.45,60.44-22.65,92.16-33.43q13.24-.42,13.4-7.73,3.81-4.47-3.54-6.55c-10-8.8-30.15-3.4-42.49-.51-29.21,6.89-54.51,19.19-82.47,27.69-7.55,2.3-16,3.16-22.67,6.47-8.27,4.1-13.11,11.39-16.44,17.86-2.83,5.52-4.92,10.56-16.54,7.45-19.13-5.11-1.7-18.44-13.4-25.28-7.15-4.17-14.75-3.75-23-1.68l-10.7,3.69-1.83,2.76c-9,4.31-21.6,5.47-32.39,7.9-8.72,2-22.16,7.71-31.58,7.35q3.49-8.46,15.64-12.94,16-5.4,23.37-16c-8.6-3.65-14.81-3.93-24.57-.35-10.33,3.78-15.63,12-26.33,15.27-15.32,4.75-34.87,3.24-51.15,2.3-3.35,6.76,18.12,15.88,25.05,18.43-20.79-3.72-41.95-5.31-63.15-7.48-5.91-.6-14.2-2.52-20.24-1.56-9.37,1.49-19,6.22-28.5,8.21-16.19,3.4-34,3.72-50,7.42-12.71,2.92-24.87,7.55-37.16,11.2-17,5-34.84,12.54-53.84,9.78-30.78-4.49-61.18,13.09-92.69,7.24-7.94-1.47-14-5.33-21.94-6.4-19.21-2.6-40.64,3.79-58,8q-11.18.86-15.64,8-14.4,8.63-5.09,22.11-2.91,23.22,21.81,40.9,17.86,34.8,70.78,47.71,56.18,32.64,130.18,40.29A884.1,884.1,0,0,0,2532,838.64a1059.15,1059.15,0,0,0,190.36,12.88A1573.55,1573.55,0,0,0,2916,850c131.63-5.1,263.22-10.66,394.84-15.93q102.61-2.73,204.58-11,106.2-5.19,210.92-18.2,107.63-9.36,213.22-26.29,103.86-12.51,204.83-33.08a1063.42,1063.42,0,0,0,175.57-39Q4392,694,4447.51,661q51.78-16.61,77.65-50.69,32.2-22.93,40.95-53.93,18.42-27.45,18.39-57.64a103.31,103.31,0,0,0,.65-59.82c-4.69-34.18-15.43-66.75-27.48-100.08-7.48-20.71-15.1-41.51-27.6-61.13-6-9.5-13.67-18.54-19.19-28.17-3.89-6.77-6.94-13.64-12-20-4.23-5.39-10.36-10.61-13.15-16.39C4481.08,203.44,4484.8,200.73,4497.68,207.58Z"/><path class="cls-13" d="M3916.11,189.09a500.47,500.47,0,0,0-69.39-5.76c-.78,1-12.29,2.4-16,3.12a193.64,193.64,0,0,0-20.61,4.93c-12.11,3.74-23.93,11.32-33,18.2-3.25,2.46-5,5.7-8,8.33-4.09,3.65-6,3.12-11.73,4.31-2.1.45-2.65,1.89-5,2.27-2.61.41-5.5-.35-8.21.06a121,121,0,0,0-17.67,3.85c-12.28,4-20.37,6.48-28.18,14.88-5.59,6.05-10.34,14.74-10.43,22.18-.1,8.19,6.14,17.26,10.59,24.67,4.19,7,7,14.19,11.65,20.65-7.17,2.65-8.63-1.21-13.25-3.7-2-1.08-4.47-1.69-6.51-2.8a42,42,0,0,1-7.63-5.87c-3.69-3.24-7.38-6.84-9.28-10.61-2.24-4.46-.3-9.2-2.24-13.87-4.66.41-10.14,6.8-12.28,9.62-2.23,3-4.36,6-6.49,9-1.62,2.22-2.9,6-5.39,7.69-8.94,6.22-23.86-2.64-32.39,6.83-3.15,3.49-4.31,10-5.53,13.62s-.86,8.86-5.46,11.86c-9,5.82-11.22-4.74-13-9.5-2.78-7.45-3.51-13.45.67-21.13s7.61-13.27,15.55-18.84c2.72-1.9,12.08-8.71,3.9-9.64-1.72-.2-4.72,2.16-6.15,2.59-4.3,1.42-9.07,1.82-13.18,3.95-10.78,5.59-15,14.32-21.69,22-4.89,5.64-8.49,3.78-16.7,4.49-10.61.9-21.22,5.72-28.53,11.21-7.66,5.72-12.2,11.62-9.47,19.42,1.42,4.05,4,11.29,7.62,14.3-5,.26-10.38-4.32-15.43-5.6-10.52-2.64-19.55-1.2-29.7,1.87-4,1.19-11.32,5.82-14.52,2.29-4.12-4.54,6.45-16.39,9.32-20,10.81-13.69,35.95-16,51.7-25.58,2.91-1.77,9.13-6.55,9.77-9.46,1.49-6.78-12.54-8-19.22-9.55-6.93-1.65-14.26-3.09-21.22-4.38-5.73-1.08-13.21-2.76-18.86-1.57-10.3,2.15-20.1,5.22-27.92,10.67-5,3.5-8.22,8.48-13.12,11.8-7,4.75-20.38,5.13-29.21,7.07-14.32,3.12-22.94,3.14-30.94,13.52-4,5.25-2.66,6.61-4,12-1.49,5.95-6.24,10.79-11,15.6-7.33,7.41-15.74,16.4-27.2,20.63,2.07,2.52,12.51,1.79,15.63,2.16,9.25,1,18.53,2.9,27.7,4.24,11.1,1.6,22.73,3.58,33.08,7.08-8.79,3.52-20.58-.43-29.8-1.37-11.45-1.17-23.45.08-34.77,1.91-7.18,1.15-12.74,1.67-16.75,6.47-5.52,6.66-2.68,11.51-4.47,18.34-2.6,10.13-23.72,1.93-32.29-.8-10.05-3.24-13-9.79-22.24-13.49.42-3.76,5.26-2.74,8.59-4,6.28-2.32,6.81-6,7.28-11.8.7-8.44,1.38-21.92-12.13-23.73-11.9-1.62-28.78,3.79-26.39,14.19,1.72,7.49,11,20.17,19.48,25.12-6-9.48-22.42-14.2-35.74-15.72-5.93-.67-12.89.15-18.91.07-14.06-.18-25.33,3.3-38.93,4.65-14.06,1.4-29.88-2.88-43.13-5.87-3.4-.76-9.33-2.37-12.86-1-3.18,1.24-5.36,5.58-7.54,7.88,5.12,8.53,19.54,10.11,29.29,14.51-11.1-4.31-32.61-2.15-43.78-.11-18.22,3.41-32.19,12.16-48.54,18.24-15.89,5.91-33.69,6.31-49.81,11.44-9.12,2.92-16,8.42-24.73,11.3a62.36,62.36,0,0,1-11,2.58c-7.3.68-9.08-3.67-15.12-5.15-9.4-2.31-17.22,2.56-26.17,5.17-3.94,1.15-14.13,5.29-16-.36,5.37-6.93,13.74-9.62,21.48-14.81-3.53-3.13-10.58-1-15.12-.13-16.33,3.16-30.92,9.13-44.67,16.18-5.07,2.61-7.17,4.31-12,5.79s-9.84,1.46-14.82,3.39c-8.93,3.46-16.82,7.94-26.8,9.8-8.08,1.5-16.05,1.17-24.3,1.08-15.55-.08-29.69-1.68-45-2.55-23.76-1.33-41.47,9.2-64,11.34-11.81,1.08-20.2-1.95-31.52-3.18-18.38-2-26.8,2.33-45.42,8.85-18,6.31-36,15.1-56.9,12.76-12.17-1.39-23.56-4.61-35.67-6.31-14.85-2.07-29.67-2.15-44.75-2.34-12.69-.18-39.38,1.13-50.14-3.81l-10.73-6.8,2.68-23a341.36,341.36,0,0,1,28.78-56.3,182.82,182.82,0,0,1,39-50.82l65-49.79,105.66-61.35A1029.88,1029.88,0,0,1,2830.22,155a1821.12,1821.12,0,0,1,203.69-58.13c78-19.22,156.49-37.45,235.64-53.85q62-12.53,124.64-23.39,47.61-9,96-15.59C3570-3.53,3655.51-1.61,3731,19.8c29.55,8.38,57.71,19,86.28,29,22.92,8,43.9,16.74,64.26,27.72,16.81,9.06,33.88,18.68,47.41,30.44,11,9.54,13.55,18.07,11.09,29.86-3.17,15.18-9.53,29.88-22.34,42.06C3915.34,181.22,3902.28,197,3916.11,189.09Z"/></g><g class="cls-14"><path class="cls-15" d="M4373.65,364.72c-18.83,7.38-37.77,14.62-56.14,22.73-12.29,5.39-23.45,13.69-29,23.59-7.34,12.94-18.81,16-33.6,17.4-25.95,2.53-45.42,15.59-64.85,28.5l-10,4.15c-16.46,5.48-31.27,13.68-34,28.7-2.8,15.27,1.44,30.2,18.59,40.08l.81-.52.09.07-.9.46c-2,4.13-7.05,4.47-11.12,6.06-17.86,7-34.62,14.68-33.85,34.32.18,4.67-3.58,6.73-8.93,6.83-5.85.12-11.71.36-17.55.12-18.34-.76-35.92.77-51.13,10.41h0c-25.38,9.5-46,23.53-60.56,43.38h0c-6.15,9.52-14,16.17-28.78,12.94-3-.66-6.62.23-9.93.58-55.52,6-88.22,37.08-116.56,72.79-2.34,2.93-2,7.29-3,11-4.63,1.44-8.64,4-13.89,4.4-44.9,3.23-83.75,19.35-119.62,40.44-14.43,8.48-32.48,15.77-31.84,34.28-4.64,2-5.46,5.92-6.42,9.51-2.6,9.71-9.15,17.5-16.76,24.73a64.26,64.26,0,0,0-12.05,15.4h0c-3.87,1.08-5.58,3.71-7.14,6.47h0c-10.94,8.51-12.44,19.62-12.56,31.12h0c-4.55.26-9.2.13-13.64.85-20.42,3.31-36.42,15.91-57.18,18.72-3.44.48-4.47,3.16-4.35,6.47.26,8.72-7.15,12.61-15.8,11-8.93-1.66-11.34,1.45-13.22,6.95-1.36,4-2.49,8-3.73,12h0c.14.72.26,1.45.39,2.16a12.88,12.88,0,0,0-.59,1.82h0c-5.29,5.52-10.69,6-18.16,1.94a92.13,92.13,0,0,0-94.73,4.32c-3,1.17-6.27,2.07-9,3.58-10.56,5.8-17.26,4-24-5.28-7.26-9.95-17.81-18.09-29.16-25.24h0c-16.45-14.24-33.34-27.72-59.74-27.13-11.63.26-23.32.43-34.94-.11-20.1-.92-39.09,1-55.42,11.76-5.22,3.42-10.33,2.79-16.24.51-9.38-3.63-16.31-10.93-27.21-12.15h0c-26.25-14.78-66.38-11.94-90.45,6.42h0c-4.27,1.57-8.94,3.34-10.31,7.13-4.31,12-15.31,15-28.64,16.39a107.76,107.76,0,0,0-24.09,5.54c-26.69,9.38-45.71,25.49-54.72,48.2-7.69,19.42-15.13,25.89-40.21,28.44-6.23.64-13,.52-17.65,4.38-16.44,13.67-34,26.76-45.79,43.51-5.24,7.43-10.11,9-18.91,5.85-33.78-12.1-66.22-7.35-95.25,8.91-31.62,17.71-41.42,31.92-28.14,57.57,4.73,9.13.7,12.73-7.07,16.32-16,7.42-31.87,15-48.2,21.94s-37.76,7.82-48,22.71c-7.19,10.48-17.13,12.12-30.15,12.22-20.23.14-40.21,2.25-56.71,13.61a2.63,2.63,0,0,0-.78.53,108.14,108.14,0,0,0-46.15,27.54c-14.14,14.33-31.38,19.15-53.33,14.42-31.66-6.81-61.35-1.88-88.75,12.62a156.14,156.14,0,0,1-70.7,18.34c-13.18.31-26.25,3.93-39.35,6.14-3.94.66-7.17,2.16-7.29,6-.11,3.17,2.23,5.07,5.43,6.39,5.68,2.36,11.8,3.23,18.06,4,33.65,4,67.49,1.72,101.24,2.15h0c4.89,2.68,10.41,2.22,15.8,2,49.93-1.78,99.26,1.34,147.78,11.75a347.81,347.81,0,0,0,86.92,7c17.44-.68,33.29-5.47,48.41-12.31,5.79-.28,10-3.31,14.45-5.8,11.82-6.61,24.38-10.35,38.94-8.21,5.73.84,11.61,1.08,17.41,1.45,32.79,2.45,65.81,3.24,97.27,13,10.05,3.12,21.14,3.88,32.12,3.72,45.79-.67,86-15.79,124.33-34.52,13-6.32,25.07-7.81,39.2-6.38,15.29,1.54,31,4.08,46,2.62,49.27-4.78,98.81-9.45,144.14-28.26,9.06-3.75,17.94-4,27.81-1.54,41.12,10.31,81.45,9.37,120.25-7.32,6.43-2.77,13-4.68,20.4-3.56h0c15.64,9.39,31.4,18,52.25,16.71,27.43-1.73,54.52-4.71,80.65-12.17,5.15-1.47,10.26-2.72,15.86-1.92,13.92,2,27.91,3.87,41.82,5.79h0c14.43,4.55,28.84-.47,43.24,0,41.11,1.36,78.91-8.76,115.42-22.86,9.52-3.68,18.9-5.49,29-4.08,17,2.38,34,1.8,51.11,1.82h0c6.25,0,12.62-.65,18.74.07,36.57,4.31,65.88-7.26,91.09-27.92a31.54,31.54,0,0,1,16.38-6.94,217.78,217.78,0,0,0,77.48-24.91c15.64-8.63,31.13-11.64,50.54-8.2,26.67,4.73,54.65,8.63,79.4-6.88,19.89-8.74,40.2-16.88,59.51-26.41a80.24,80.24,0,0,1,39.14-8.63c47.24,1.41,93.17-4.94,138.3-16.18a1192.92,1192.92,0,0,0,165.13-54.11c12.89-5.29,19.34-11.06,16.88-22.78h0c-1.32-3.67,4-9.31-4.69-10.79l-2.66-4,2.47-4.32a17.19,17.19,0,0,0,5.12-14.28h0c-.91-1.43-1.82-2.88-2.72-4.31h0c2.75-3.34,2.75-7.15,2.75-11V532.09c0-4.19.12-8.39-4.79-11.13h0l4.69-4h0c0-2,0-4,.07-6h0c-1.64-2.05-3.27-4.1-4.91-6.14h0c5-2.16,4.89-6.07,4.89-9.9,0-36.82-.11-73.65.1-110.48,0-7.47-3.48-10.6-12.59-10.48-18.36.25-36.73,0-55.09,0,17.12-4.24,34.61-.94,52-2,5.58-.33,11.94,1.17,15.7-4.06h0l-.45-2.38c0-1.29,0-2.6.06-3.89h0c-5.26-7.55-14.71-5.8-22.34-5.85-20.82-.11-41.66,1.4-62.53,1.4C4402.84,357.14,4387.83,359.17,4373.65,364.72Z"/><path class="cls-16" d="M4596.55,808.61q-56.79,30-112.3,61.48a15,15,0,0,1-.65,7.11c-4.76,5.5-9.41,9.47-13.08,15.7-4,6.74-2.79,8.93-9.42,14.46-7.56,6.3-9,3.4-17.68,6.47-29.38,10.36-62.85,10.86-89.34,30.47-22.4,16.54-24,48.1-56.67,54.24-16,3-34-3-49.88.93-3.75.93-12,8.1-15.63,8.4-9.48.8-15.42-6.47-24.06-8.57-32.94-7.84-65.1-7.45-95.58,5.4-6.47,2.73-12.11,8.09-18.79,9.62-6.94,1.58-18.49-.13-25.8-.24-16.64-.23-35.43,4.45-51.37,9.23-14.23,4.32-34.87,10.79-44.75,21-13.3,13.86,3.55,14.75,17.87,18.27,11.48,2.83,15.75,5.1,28.81,2.93q15.72-2.68,31.67-3.79c7.82-.6,48.4-6.13,48.75-9.93-42.29,9.83-89.63,15.36-133,24.27-18.35,3.77-37.48,4.65-55.94,7.61-7.3,1.17-18.44,6.32-26.88,8.17-11,2.43-14.8-.48-23.77-3.17-7,9-34.76,4.32-46.36,4.32-16.1,0-30-2.46-44.67,0-19.82,3.36-30.66,5.44-51,1.14-8-1.7-16-1.23-24-2.32a8.87,8.87,0,0,0-11.71-3.79,8.64,8.64,0,0,0-3.93,3.79c-31.14,4.49-55.06-3.33-81.41-14.66-14.63-6.28-27.52-5.3-44.67-5.26-7.66,0-18.45,1.7-25.82.27-7.66-1.5-8.93-8.68-18.13-4.59,1.68,5.39,12.39,10,18.16,14.44,8.93,6.87,17.27,14,26.43,20.7,16.94,12.41,19.26,8.52,42.58,11,9.53,1.08,17.77,4.8,27.19,5.83,7.55.83,16.92-2.74,23.89.8,3.56,1.8,7.35,6,8.11,9.32,2.43,10.69-3.93,10.08-14,12-21.41,4-47,.18-66.32,7-11.76,4.18-22.12,15.31-34.34,18.33-16.4,4-36.26-1-51.46-4.31-17.57-3.9-24.08.87-38.11,7.93-6.7,3.33-13.26,8.45-20.52,10.93-11.17,3.82-26.8,1.22-37.6,6.19-9.87,4.52-19.06,14.28-27.33,21.33-9.81,8.38-15.06,10.52-29.27,10.38-10.74-.11-23.23-1.54-33.76-.27-9.57,1.16-15.58,4.73-25.16,4.66a64.25,64.25,0,0,0-19.09-4.66q-11.49.19-23,.29c-7.16.12-13.23.33-20.22-1.17-15.89-3.4-27.65-3.91-44.67-4.08-19-.19-31.09,9.07-49.56,10.79-5.73.51-15.46,1-20.84,0-6.81-1.26-8.64-7.12-16.75-5.27,9.61-4.43,17.63-9.64,28.36-12.5,12.28-3.23,18.53-.13,30.63,1.75,17.79,2.77,46.56,3.35,64.48-.85,14.81-3.48,26.59-14.39,40.6-19.42,7.65-2.7,17-3.9,24.9-6.2,14-4,27.92-8.62,41.79-12.7,10.69-3.15,22.55-3.24,32.53-8.35-5.51-6-9.88-4.64-18.12-5.27-10.63-.82-17.3-3.15-27.18-4.81-11.89-2-23.69.13-35.62,1-15.26,1.08-23.46-1.53-38.35,3.24-29.85,9.64-56.7,16.38-88.78,16.33-29.65,0-58.92-6.47-88.38-5.5-25.78.82-40.81,17.26-64.34,21.68-14.17,2.66-38.16-5.66-51.49.54-6.16,2.86-8.17,10.06-13.86,13.7-3.48,2.16-8.94,2.34-12.78,4.61-10.46,6.2-32.92,27.14-35.82,37.4,7.54,5.15,12.06,11.75,22.44,13-12.43,7.06-25.74,13.68-38.85,19.71-9.7,4.48-16.75,9.2-28.56,10.52-9.59,1.07-19-.63-28.56.63-14.36,1.9-28.55,4.15-43.08,6-11.62,1.49-25.09,2.84-36.35,5.39-7.08,1.58-11.23,5.78-19,3.44-4.47-18-15.64-28-37.8-32.83-21.65-4.73-46,8.63-69,11.73-21,2.8-24,11.41-40.83,20.59-10.55,5.75-26.8,9.9-39,12-21.91,3.74-38.38-8.05-57.21-11.14-33.7-5.55-69.24,5.45-101,12.6s-56.72-16.46-86-12.17c-8.09,1.18-15.11,7.64-23.6,9.44-13.77,2.9-28.74.51-42.73.77-9.82.17-17.62.25-27.23,3.44-37.11,12.32-4.65,40.53,10.64,55.59,111.46,109.79,308.07,105,466.29,115.4,207.61,13.72,414.84,42.32,623.83,34.92,198.41-7,380.81-69.09,566.5-118.94,124.53-33.43,254.21-53.92,380.34-82.7,103.86-23.66,207.33-53.8,313.81-68,60.17-8,121.8-9.95,179.8-26.46a236.74,236.74,0,0,0,58.55-21.73q23.88-16.28,10.52-38.3c-11.06-46.38-45.61-86.11-75.66-125.55-21.3-28-48.38-57-65.2-87.45-12-21.76-20.94-44.53-33.21-66.3C4586.42,845.74,4596.37,817.11,4596.55,808.61Z"/><path class="cls-17" d="M4602.93,329.22c-39.09,20.09-85.58,35.09-108.33,68.49-8.28,12.17-8.56,17.25-25.36,22.37-28.74,8.71-56.06,13.42-75,36.75-15.71,19.35-18.57,42.71-31.71,63.22-3.29,5.11-10.06,26.9-21,25.8-11.76-1.2-6.92-30.28-4.78-37.49,3.72-12.64,41-59.58,11.44-58.32-27.86,1.17-44.4,32.12-59.1,46.45a124.51,124.51,0,0,1-30.26,21.21c-11.09,5.52-28.07,10.56-32.2,22-2.07,5.75,2.32,10.89-2.55,16.32-4.47,4.94-9.86,3.13-14.82,6.21-12.38,7.72-19.68,23.73-20.66,35.67-.62,7.55-2.4,13.23,6,16.17,2.75,1,9.83-.63,13.22-.51,5.64.2,11.24,2.72,16.15,3,13.5.68,26.2-6.66,40.9-8.22,18.59-2,98.08-7.89,101.62,14.88-17.94,4.56-42,1.08-60.73,1.08-9.31,0-18.64.11-27.92,0s-13.51,2.84-20.41,4.07a130,130,0,0,1-43.2-.12c-10-1.8-9.19-3-18.78-.4-10.4,2.84-23.7,8-32.5,13.42-15.23,9.37-12.36,23.25-31.41,25.26-8.6.89-16.84-1.53-25.34.69-9.44,2.47-19.64,10.46-27.54,15C4061.74,692,4051.91,703.14,4038,715c-14.52,12.39-36.21,18.08-50.94,30.68,22.16-.93,41.85-5,63.18-1.66,8.51,1.34,21.54,1.5,29.2,5.09,7.41,3.48,10,9.93,18,12.64-9.56-.13-16-4.88-24.68-7.34-14.1-4-23.29-2.23-37.25,1.59-16.86,4.62-22.52,10.71-41.16,10.5-21.45-.25-29.84,3.37-48.74,10.68-11.83,4.57-36.1,10.09-49.06,9.47-8.65-.4-15.11-4.9-23.62-4.31-16.09-11.16-62.74,3.24-28.67-26.35,16.9-14.69,34.24-23.28,56.43-31.6,9.52-3.56,37.37-16.65,39-25.25-17.66-6.2-31.73,5.4-43.94,14.62-17.8,13.38-34.9,21.83-57.62,26.56-16.7,3.47-25.46,5.11-38,15.34-18.47,15.1-31.94,33.55-51.08,48.27-8.82,6.78-45.79,18.87-39.3,31.48,3.35,6.57,21.65,7.44,29.66,9.46,20.29,5.1,35.54,12.62,48.62,27,7.16,7.88,9,24.74,19.17,29.86,19.83-7.05,34-29.92,56.86-30.33,9.45-.16,12,3.12,19.8,5.82,21.29,7.33,29.57,3.51,50-5.27,42.06-18.13,88.81-50.5,140-41.9,19.15,3.24,37.31,12.73,53.84,21.14,8.7,4.43,16.65,11.87,27.56,10.11-13.48.68-26.25,4.14-40,4.4-20.1.38-39.41-4.58-59.61-4.51-26.06.11-47.71-5.39-72.66,6-29.44,13.37-41.45,37.74-73.17,45.58-12.76,3.14-13.17-.17-20.86,11.39-7.45,11.2-3.57,16.72-18.55,21.69-13.22,4.38-17.53,4.13-25.68,14.94-7.13,9.41-9.06,22.65-19.15,30.39-5.58,4.31-11.57,7.07-19.14,6.23-13.19-1.45-11.62-5.94-26.32-.9-15,5.14-29.93,11.75-44.33,17.84-4.83,2-11.17,9.7-17.58,4.45-9.07-7.43.94-40.09-1.6-50.07-7,2-23.71,7.4-30.42,2.44-5.1-3.77,1.49-15.28-1.67-20.49-24.51-40.28-112,45.55-132.55,57-9.67-17.4,21.84-46.86,34.81-55.4,11.61-7.64,35.48-12.12,34.42-27.4-8.69-.6-15.53,6.09-22,10.36-17.94,11.8-34.08,26.75-54,36.47-25.91,12.6-56.24,10.52-82.05,21.08-29.21,12-71.12,12.3-92.8,34.09-28.35,28.46,11.49,45,19.78,70.63-9.88,1.52-17.28,6.19-27.11,6.33-27.28.4-67-31.11-92.17-18.65-10.68,5.29-15.37,16.11-28.89,19.57-16.17,4.14-34.13,1.63-50.49.39-10-.76-36.33,1.31-39.75-9.14,21.57-22.17,51.28-35.26,74.3-55.82,7-6.22,20.66-16,19.4-25.52-13.69-4-29.6,5.9-44.59,3.71-8.42-1.24-15.36-5.06-24.4-4-12.43,1.38-26.8,10.11-38.25,14.13-9.15,3.23-21.73,5-26.46,13.38-6,10.63,1.81,30.36-.14,42.28-1.65,10.16-7,22.13-18.69,27.85-12.48,6.1-32.32,1-46.91,2.42-19.91,1.94-27.83,9.47-43.14,18.89-15.58,9.58-33.35,27.9-45.68,6.88-7-11.87,0-25.68-4.3-37-3.56-9.39-10.42-5.33-3.1-17.12,4.38-7,53.69-52.6,28.39-61.77-24.57-8.88-41.88,32-57.92,37.26-6.6,2.16-14.15-1.17-20.74-.62-8.78.74-13.46,4.59-21.22,8.63-10.69,5.66-23.45,9.91-33.5,16.24-8.35,5.25-10.81,10.52-17.18,17.36-11.1,11.93-40.34,14-46.9,27.3,11.85,14.24,27.54,23.82,42.94,35.46-18.81,6.1-41-15.1-60.31-14-12.48.76-24.12,8.4-36.24,11.19s-23.94,2.46-36.26,4.87c-31.59,6.17-56.66,34.21-90.25,36.44-11.17.73-14.44-3.54-23.81-6.47-25.69-8.18-53.32,14.43-72.7,26.36-7.82,4.82-13.65,11-23.36,10.35-3.64-.25-8.35-4.77-12.79-5.39-26.14-3.52-47.76,18-70.74,21.72-10.46,1.68-56.36-11.58-55.46-20.24,51-28,103.25-54.08,154.82-81.26,27-14.26,49.67-26.84,70.2-46.8,26.35-25.63,55-45.1,89.25-62.34,17-8.55,32-12.06,50.52-16.33,14-3.24,26.59-9.25,41.2-12.36,58-12.37,108.4-39.25,160.24-62.09,27.34-12.06,57.09-22.8,82.86-36.87,35.49-19.42,81.74-22.45,121.05-36.78,73.55-26.81,151.65-47.68,229.47-64.25a351.88,351.88,0,0,0,103-39.38c18.5-10.66,39.15-19,53.11-33.71a50.17,50.17,0,0,0,16.34-31.66l34.19-40,80.5-56.77q69.81-42.46,143.22-80.49c71.57-38,144.27-74.42,216-112.23,57.59-30.34,115-60.32,174.47-88.12,59.07-27.6,119.09-51.65,174.28-84.31,39.24-23.22,79.37-46.21,116.92-71.32,17.68-11.86,31.38-28.56,49.42-39.11,37.07,5.27,30.74,57.52,30.67,77.8a337.46,337.46,0,0,0,.11,53.86,69.82,69.82,0,0,0,17.47,30.55c10.27,15.68,6.6,32,12.08,48.95C4567.44,359.39,4574.85,369.76,4602.93,329.22Z"/></g><g class="cls-18"><path class="cls-19" d="M2093.56,1160.1h0c31.94-9.49,65.21-9.48,98.54-8.86a305,305,0,0,0,64.11-5.73,301.31,301.31,0,0,1,31.18-4.93c30.16-2.67,60.53-3.51,90.26-8.78,24-4.25,43.55-14.26,58.5-30h0c4-3.37,8.54-6.47,12-10.2,4.23-4.54,1.65-8.42-5.34-9.06-4-.37-6.89,1.31-9.92,3-22.64,13.08-48.86,19.42-75.8,20.94-25.8,1.51-50.68,4.55-75,11.37-9.73,2.74-20.39,5-30.15,2.69-27.2-6.47-53.85-6.14-80.88.22a25.61,25.61,0,0,1-20.21-3.79,33.56,33.56,0,0,1,4.68-1.92c30.94-6.77,57.61-22.27,89-28.22,4.12-.78,7.82-3.13,11.56-5a32,32,0,0,1,15.63-3.23,453.08,453.08,0,0,0,76.44-3.52,110.57,110.57,0,0,0,35.91-9.91,73,73,0,0,1,23.33-6.73c12.05-1.36,25-1.13,35.24-8h0c4-2,9.81-3.15,11.83-6,9.52-13.58,25.08-12.21,40.37-11.57,33.5,1.38,64.63-6.06,95.16-16,25.46-3.94,48-14,70.22-23.73,25.07-11,50.69-15.79,78.71-13,16.41,1.63,31.93-1.08,47-6,9.28-3,17.52-7.16,21.93-15,2.05-3.6,6.36-5.57,10.12-7.88,12,1.18,21.75-3,30.88-8.62h0c10.19-4.54,20.28-9.27,30.61-13.6,30.43-12.76,61-25.18,95.84-28.43a80.73,80.73,0,0,0,18.88-4.32c31.44-10.88,59.72-26.84,91.71-36.81h0c18.06-2.4,34.45-9.11,52-13,25.09-5.61,51.38-9,72.92-22.38,5.37-3.36,16.53-4.95,12.87-11.39-3.51-6.21-11.41-3.78-18.33-1.91a9.55,9.55,0,0,0-3.2.81c-29.26,3.44-58.31,7.85-86.76,14.34-24.88,5.69-49.63,8.4-75.61,5.75-21.4-2.16-42.61,1.08-61,10.57-22.42,11.63-44.3,23.27-71.91,25.88-9.44.9-18.48,5.31-27.45,8.57-10.28,3.73-20.16,8.19-31.09,10.78h0c-22.91,1.4-45.84,3.67-68.77.23-16.37-2.46-31.19,0-44.19,8.55-7.33,4.82-15.09,6-24.56,4.25-7.31-1.33-15.27-1.61-22.64,1.08h0c-8.31-.34-15.85,1.8-23,4.88-17.95,7.77-35.74,15.67-53.69,23.53h0c-18,4.73-35.21,11.54-54.16,14-12.28,1.63-24.57,3.31-36.12,7.2a115,115,0,0,1-58.83,4.41c-18.5-3.35-37-3.23-52.67,8.11-4.47,3.24-10.58,3.15-16.69,2.85-25.36-1.23-49.43,2.57-71,13.87-6.32,3.31-12.35,3.92-19.68,2.87a251.87,251.87,0,0,0-68.67-.37c-14.73,1.94-28.13,7-39.3,16.07-7.81,6.41-16,14.33-29.91,12.06-10.9-1.78-21.89-7.55-32.89,0-.64.43-2.17.18-3.23,0-16.93-2.48-33.35,0-49.73,3.23a30.68,30.68,0,0,1-18.09-1.62c-19.72-8.24-41.73-7.55-62.91-10.08a16.22,16.22,0,0,0-9.44,1.74h0c-2.84.56-5.7,1-8.5,1.68-29.28,6.84-56.15,18.08-83.12,29.22-17.78,7.35-37.68,11.38-53.27,22.15-11.4,0-23.08-1.08-33,5.21h0l-13,3.77c-2.46.55-5.46.56-7.29,1.75-9.49,6.12-19.38,4.51-30,2.37-11.3-2.26-23.18-4.19-34.62-.87-20,5.8-40.2,2.58-60.45,2.22-11.16-.19-22.7-.62-31.65-5.78-19.55-11.26-39.63-6.41-59.93-3.3-20.77,3.94-41.9,6.85-61.58,13.92h0c-12.22,2.16-23.54,6.33-35,10.08-7.08,2.29-14.16,3.23-21.43,1.92-15.54-2.8-29.85-.09-43.34,5.91-11.17,5-21.89,10.57-32.94,15.72-9.4,4.38-19.34,7-30.41,4.8q-48.71-9.84-91.73,11h0c-3.54.66-7.18,1.08-10.62,2-21,5.61-40.8,14.15-63.33,15.73-2.48.18-4.86,1.19-7.27,1.82h0c-3,1-7.31,1.48-6.9,4.64s5,3.08,8,3.43a377.37,377.37,0,0,1,39.37,7.2c29.46,6.58,58.54,14.42,89.2,16.91h0l6.46,1.71h0c17.37,4.93,35.26,4.87,53,2.36,24.71-3.51,48.2-3.67,71,7.09,15.19,7.18,32.62,10.3,50.39,10.79,32.06.81,64.38,4.13,95.88-3.31,26.38-6.24,52.6-5.87,79.06-1.08a10,10,0,0,0,4.84.89c22.72,4.48,45.21,11.87,69,1.87,3.8-1.6,9.25-.66,13.94-.9l.07-.27h.1l-.17.25a97.52,97.52,0,0,0,52.88,0l-.15-.24h0l.1.25c6.21,0,12.66.34,18.3-1.94,17.79-7.18,34.8-9.29,55.2-4.24,32.39,8,66.44,5.22,99.84,2.32,19.73-1.7,38.3-6.58,54.9-15.7h0Z"/><path class="cls-20" d="M3224.84,814.63q-17.72,3.11-34.91,7.74c.07,1.4-12.86,3.87-15.3,4.59-5.85,1.73-11.74,5.14-17.37,7.32-6.86,2.66-13.53,5.4-20.46,8.15a67.72,67.72,0,0,0-13.76,6.79c-3.22,2.07-5.82,4.49-8.93,6.47A28.16,28.16,0,0,1,3105,859c-3.76.71-6.83,1.9-10,2.54a124.45,124.45,0,0,1-20.64,2.4c-4.29.22-7,1.84-11.17,2.42s-8.48-.57-12.54-.2c-7.69.72-16.51,3.91-23.76,6.26-6.15,2-11.92,3.58-17.95,5.06-4,1-7.23,2.15-11.25,3.44-4.55,1.4-8.24.11-12.69.92-6.36,1.17-11.1,4.09-18,4.61-8.38.64-14.6,5.28-23.14,7.28-7.36,1.73-14.15,3.47-21.53,7.06-7.08,3.44-12.62,7.46-19.44,11.21s-11.45,7.55-19.52,10.11c-7.67,2.41-13.22,6.57-20.91,8.13-16.56,3.34-33.92,2.54-48.89,12.35-6.64,4.31-13.79,11.95-23.65,11.33-7.32-.45-14.52-3.7-22-5,.64-4.46,10.42-4.76,13.85-8,6.39-6-1.95-5-8.56-5-7.57,0-14.15.29-20.46,4.46-4.24,2.82-5,7.4-8,10.79-6.09,6.77-16,11.78-25.86,11.72-6.29,0-10.78,0-16,1.69q-13.86,4.66-28.15,8c-7.54,1.71-16.27,2.37-22.56,5.79-7.88,4.32-9.81,12.75-16.11,17.84-9.9,8-28.67,7.55-41.12,9.32-7.37,1-14.32,4-21.71,4.67-12.15,1.13-24.21,0-36.34,1.63-9.6,1.25-18.86.85-28.44,2.24-7.56,1.08-15.58,1.35-22.09-2.32,1.63-2.77,6.52-4.6,7.81-7.93-7.81-2.58-20,3.54-27,6.06-6.4,2.29-10.13,5.79-14.52,10.13-3,3-5,7-9.87,8-5.09,1.07-8.6-.63-13.2,1.62-3.9,1.91-5.59,6-9.65,7.06-12.73-10.09-33.78-9.38-50.26-11.53-11.16-1.46-20.1-2.09-31.2.44-5.21,1.2-18.26,4-19.74,9.71-2.92,11.2,41.32,5.39,50.64,6.08,6.1.43,24.46,4.82,24.4,11-3.56.83-7.08.24-10.74.83-4.88.78-9.44,2.92-14.52,3.6-10.31,1.36-21.07.27-31.49.42-10.9.16-21.36,2.36-32.39,2.26-9.57-.08-21.57,2-30.5-.44.47-3.07,7.14-3.88,10.39-4.48-9-7.5-28-9.13-40.56-8.38,9.24-2,18.72-5.25,26-10.27,4.71-3.24,7.81-7.69,12.38-10.85-1.11-3.24-23.9,4.59-25.06,5a57.63,57.63,0,0,0-24.57,15.49c-5.58,5.74-10.49,11.1-18.31,14.19-6.88,2.73-18,3.76-23.35,8.5-2.82,2.5-3.17,6.59-6.7,9.33-3,2.35-11.55,3.89-10.66,8.48,6.08.74,12.9,2.72,19,2.69-11.82-.62-21.88,2.45-33.26,3.93-11.66,1.51-30.38,4.58-39.83-2.91-10.6-8.4,1.56-20.83,9.3-27.57,5.74-5,15.74-8.81,20.37-14.12,1.74-2,3.35-3.67,2.23-6.29-11.41-5.56-39.48,12.4-46.9,17.55-12.16,8.43-17.07,13.19-14.12,26.48,2.24,10.06,8.94,15.65,19.41,20.44,3.44,1.57,3,.61,6,2.47,2.51,1.54,5.36,4.66,7.2,6.73-7.63.49-14.26-5.31-21.42-6.66-11.42-2.15-29.27-2.54-39.09,2.16-3.17,1.52-6.36,5.47-9.33,6.63-1.72.67-3.76-.5-5.24,0-9,3-16,7.37-13,16.18,1.53,4.37,3.35,6.32.73,11.09-3.81,6.77-10.37,7.49-18.79,6.31-23.59-3.33-16.24-17.7-19-32.67-22.77,7.41-9.56,25.33-2.4,37.61-10.36,7-37.14,1.07-47.43-2.16-6.43-2-11.7-4.71-17.61-7.3-4-1.73-6.7-2.59-11.37-.61-1.92,8.18,15.64,8.63,18.36,14.15-22.1.4-42-3.76-59.66-14.56a148.78,148.78,0,0,1-22-16c-2.14-1.93-6.42-8.55-10.88-7.19,0,6.75,1.55,16.33,7.92,21.45,2.35,1.89,8.6,2.74,9.08,5-9.05,4-29.11,14-38.91,7.31a12.35,12.35,0,0,1,8.06,4.51q8.4,4.53,16.76,9.14c-1.2,6.78-43.65-.64-50-2.33-9.75-2.58-14.08-6.21-20.57-12.61-9.17-9.08-23.65-9.63-33.68-17.14-6.4-4.81-7.23-9.2-10.3-15.49-2.15-4.42-6-7.46-10.82-2.07-10.42,11.7,3,28.2,11.48,37.42-5-2.6-3.43-8.46-6.57-10.58-4.63-3.09-10.12.38-15.7,1.57-6.89,1.46-14.31,2.37-20,6.23-7.43,5-8.72,12.23-19,15.63-16.91,5.64-47.75-11.1-54.22,10.09-6.8.5-13.08-5.21-19.12-7-7.17-2.07-15.48,0-22.33,2.46-5.7,2-16.76,8.74-22.61,2.44-7.09-7.63,19-26,24.07-30.19a70.83,70.83,0,0,1,20.4-13.32,35.66,35.66,0,0,0,6-2c3.71-7.09-15.46-5.19-17.87-4.57-10.59,2.61-23,11.16-30.5,17.53-6.14,5.17-15.81,20-5.37,25.88-4.57-6.68-17.18-2.43-23.92-1.18-11.07,2.05-23.54,8.82-34.36,6.12-6.47-1.61-13.17-3.64-19.47-5.6a36.09,36.09,0,0,1-13.51-6.88c-2.24-1.77-3.46-5.68-7.56-4.92-1.12,2.76-2.1,7.27-6.7,7.33-6.8-6-9.2-12-8.94-20.29.14-4.7,2.39-10.51.94-15.1-9.75-1.73-11.72,19.52-14.2,24.72-3.05.14-6-.36-9,.11-2.79.42-4.74,2-7.67,2.28-4.22.38-9.19-2-13.49-2.15-7.32-.34-15,2.64-22,4.31s-10,2.64-16.82,1.68c-4.53-.63-8.85-2.09-13.55-2.08-8.79,0-15.06,6-22.92,6.68-5.75.51-11-3.57-16.65-4.25a74.27,74.27,0,0,0-16.86,0c-4.26.65-6.7,1.87-11,2.35-6.27.69-11.06-.84-16.89-2.32-10.49-2.65-44.88-5.11-49.35,4.69-4.69,10.28,21.95,30,25.87,33.44L1266.9,1229q40.61,36.54,94.11,59.32A414.6,414.6,0,0,0,1461.16,1330a1115.09,1115.09,0,0,0,183.74,52.43l141,22.16a2193.26,2193.26,0,0,0,276.85,12.3c150.46.58,301.4-2.73,451.76-6.83l177-5.68a1162.63,1162.63,0,0,0,285.89-42.88q86.67-12.51,160.32-50.83,91.57-27.9,146.17-95.1l48.12-77q31.62-53.71,26.81-111.41a156.94,156.94,0,0,0-12.21-80.54q-4.47-16.87-9-33.77c-4.87-20.5-5.31-42.67-26.26-57.32-11.82-8.27-26.25-12.29-39.47-19-10.69-5.39-22.75-10.78-32.39-17.25-8.1-5.4-17.09-16.55-28.58-17.06C3211,803.39,3211,804.52,3224.84,814.63Z"/></g><g class="cls-21"><path class="cls-22" d="M215.8,1470.63c21.53-3.85,44.51-7.28,66.34-8.08,27.7-1,54.31,12.38,81.52,15.93,19.45,2.55,40.39,6.55,60.31,4,10.15-1.33,19.28-5.91,28.85-9.62,5.59-2.16,11.35-4.19,17-6.3,26.12,7.83,53.15,9.5,80.11,6.61,1.6-.17,3.21-.31,4.82-.47,31.43,9.36,61.42,17.19,96.62,11,22.48-3.93,42.71-17.19,65.6-16,8.93.45,15.55,4.21,24.21,5.12,6.7.72,14.52-.18,21.32-.18,16.75,0,34.79,1.7,51.13-1.08,17.09-2.92,30.74-9.61,48.55-8.71,17.6.88,32.49,9.48,51.14,9.84,18.23.36,32.93-5.3,51-4.87a84,84,0,0,1,19.23,2.41c10,2.32,17.87,1.24,27.83,2.15,21.5,2,41.73,9.71,63.38,10,14.9.23,26.23.46,40.12,3.72,24.76,5.81,52.78,2,72.59-11a131.71,131.71,0,0,1,15.5-8.63c22.34-2.83,44.67-2.05,67.41-.13a165.07,165.07,0,0,0,89.22-17.17c12.17-6.1,26-2.47,39.09-3.23h0c30.71,7,61,16.68,92.88,17,16.17.18,32.38-2.15,48.57-2.86,35.38-1.62,68.64-15.8,104.73-14.69,35.07,1.07,70.25-1.08,105.35-2.16,17.49-.58,34.2,1.89,50,9,29.49,13.36,60.3,10.61,90.62,5.39,55.2-9.4,110.25-4.81,165.36-.58,23.72,1.81,47.29,2.78,70.84-2.16,7.19-1.5,14.84-.9,22.26-1.42,3-.21,6.7,0,6.95-4.09.16-3.13-3-4.07-5.47-4.57-12.29-2.55-23.85-9.2-37.13-6.62h0c-21.78-1.31-41-12.2-62.4-15.29-12.56-1.8-24.81-5.7-37.73-5.17h0c-25.15-5.21-50.45-2.4-75.73-1.46-32.55,1.21-65.35,6.73-96.74-8.14-8.34-3.94-18.71-3.87-28.14-5.64h0c-21.15-6.64-42.92-8.56-65-7.55-19,.91-36.09-3.24-53.18-11.53-23.9-11.55-48.65-21.5-75.1-27-18-3.77-35-3.23-50.65,6.73-5.51,3.5-11,5.06-17.33,3.75h0c-11.71-7.83-25.25-9.41-38.89-10.13-14.79-.78-27.92-4.47-40.33-13.14-12.65-8.87-26.09-17.34-42.07-20.3h0c-37.63-17.86-76.13-19.15-115.25-5.19-11,3.93-21.69,8.74-32.52,13.15h0a33.81,33.81,0,0,0-4.54,3.31c-19,12.74-36.55,9.57-56.43-4.55-15.37-10.91-35.88-12.94-55.38-14.16-7-.45-13.84-2-20.75-3.06-16.12-2.46-32.21-4.66-47.63,3-5.76,2.87-11.17,1.92-16-1.84-4.61-3.55-9.51-6-15.63-5.77l-7.69-2.63h0c-14.75-9.89-32-7.22-48.33-8.25-8.68-.55-14.18-2.66-19.72-9.45-9.17-11.2-20.53-20.56-34.78-25.88h0c-6.5-6.88-14.81-10.47-24.08-12.33-20-9.42-40.86-16.11-63.2-17.89-2.95-5.39-8.69-5.47-13.74-6.15-31.18-4.19-62.12-4.15-92.19,6.47-6.14,2.16-11.67,2.5-17.65-.63-34.13-17.83-68.3-17.62-103.45-1.72-12.23,5.55-24.17,11.87-36.73,16.82-20.31-31.17-46.9-53.42-78.12-69.62-10.34-16.53-22.19-37.53-42.08-42.68a54.3,54.3,0,0,0-12.53-1.28,188.85,188.85,0,0,0-39.2-18.07c-32-10.79-65-22-98.92-14.46-19.28,4.32-27.84-2.5-37.74-14.93-6-7.55-13.24-14.83-23.86-16.94h0a17,17,0,0,0-.24-2h0c-15.23-12-32.39-19.66-52.28-20.3-1.27,0-2.59-.11-3.88-.11ZM490.52,1457c2.8-1.63,5.77-3.23,6.7-3.23,3.22,0,7.7,2.07,12.29,4.31C503.17,1457.82,496.87,1457.5,490.52,1457Z"/><path class="cls-23" d="M173.73,1068.66c32.18,3,66,.75,90.46,21.82,5,4.31,9,10.07,14.84,13.43,9.52,5.47,19.59,3.58,29.27,9.59,15.44,9.58,21.7,18.17,31.27,32.71,4.32,6.56,9.82,13.76,14,20.57,3.07,5.06,4.77,16.24,10.05,17.83,5.71-15.47-2.67-26-10.17-38.26-4.28-7-22.64-20.37-23.72-27.38-2-12.94,26.44,1.32,33.92,4.2,8.53,3.24,8.15,4.86,17.3.14,8.55-4.41,14.09-8.63,24.13-5.2,15.06,5.11,28.15,21.14,40.28,30.57,6.34,4.92,8.82,7.42,17.34,9.7,6.7,1.79,15.74.36,21.67,3.35,10.27,5.17,18.52,20.67,24.77,29.19a106.93,106.93,0,0,0,19.14,20.35c6.09,5,16,6.55,20.89,11.4-12,5.58-34.8,1.08-48,1.08-12.66,0-29.25-3-41.46-.26-13.77,3.1-27.81,19.8-37.91,29.57,25.69-1.32,48-9.8,72.48-15.84,5.58-1.38,8.28-5.49,16.22-4,6.7,1.25,13.49,3.54,20.1,5,13.82,3,17.51,10.09,32.67,9.81,11.95-.22,19.52,1.88,29,8.36,12.13,8.29,3.06,19.79,11.39,27.8,5.23,5,11.06,1.52,17.4,2.38,9.05,1.23,17.34,7.55,23.85,13.2,11.37,10,19.94,29.88,35.74,33.77,4.17-10.21-18.17-42.91-24.48-49.74-5.51-6-29.57-15.84-24.47-25.12,3.11-5.65,23.73-5.15,29.61-5.67,11.29-1.08,18.88-9.16,30.42-12.46,21.6-6.18,26.3,5.7,44.82,11.32,12.57,3.82,21.86-5,35-3.06,22.18,3.35,35.13,19.33,44.31,38,3.89,7.91,6.57,16,11.33,23.54,2.81,4.45,8.21,9.64,9.41,14.28-7.93,2.32-17-1.49-24.57,1.6-13.4,5.47-10.17,20.5-17.42,28.72-5.58,6.39-15.74,4.87-23.68,7-8.93,2.39-51.46,15.37-54.18,25.89,11.56,1.68,38.82-9.4,50-13.59,10.32-3.86,19-11.43,29.92-13.9,11.27-2.55,23.2-1.84,34.62-4.32,3.35-.73,17.21-3,20.22-7.13,2.72-3.74-1.39-9,1.4-12.63,7.5-9.79,24.4-4,34.14-6.55,1.37-9-20-18.91-26.22-23.6-7.07-5.32-13.76-10.79-21.68-14.84-2.76-1.42-7.17-2-9.37-4.24-12.81-13.07,11.82-21,21.29-25.74,16.55-8.23,33.41.83,51.44,1.42,12.75.42,16.87.14,28.4,7.36,11.26,7,28.07,13.56,34.9,25.39-2.68,3.77-3.27,7.41-4.47,11.73a21,21,0,0,0-2.81,13.82,16.93,16.93,0,0,1,3.89,7.07c-.08,6.47-4.19,24.61-7.9,30.7C972.84,1367,982.14,1331,998,1328c13.84-2.64,28.57,5.65,42.77,2,13.4-3.45,27.11-8.63,41.86-3.94,13,4.12,10.87,17.82,20.22,23.73,5.39,3.43,12.28,1.74,17.94,7.44,7.63,7.66,8.73,20.62,7,30.85-4.68,28-40.42,13.58-40,42.37,19.62-19.84,53-13.59,74.93-26.89,1.12-9.24-16.36-31.27-23-38.17-5.39-5.7-11.27-7.63-10.67-15.6.09-1.25,6-14.12,7.55-15.27,11.17-8.23,36.25,11.08,48.15,13.24,10.54,1.93,12.38-4.17,22.21,2.79q7.64,12.09,22.65,12.83a46.33,46.33,0,0,0,26-8.5c8.4-4.53,12.65-8.63,21.7-10.22,8.1-1.43,24-1.66,32.11.07,4.67,1,9.53,4.22,12.85,4.56,9.14,1,24.86-10.78,34.08-13.83,17.87-6,34.62-8,52.68,1.48q9.75,0,12.16,9.27a61.75,61.75,0,0,1-14.42,22.65c-8,9.54-20.1,16.74-27.82,23.79,20.93,1.5,41.2-6.47,58.9-16.18,5.58-3.1,12.69-4.87,13-12.14.22-5.2-6.11-8.5-5.58-14.19,8.32-.39,13,5.3,20.4,8.16,7.82,3,17.11,3.73,25.19,5.74,27.42,6.82,47.43,19.5,74.6,8.22,13.21-5.48,20.44-14.16,35.74-12.8s29,10.79,44.33,13.37c7,1.19,14.45.45,21.42,1.77,15.26,2.87,25.69,12.66,38.87,19.41,5.9,3,8.56,2.75,15,3.89,14.9,2.67,28,8,42.67,12,11.83,3.23,20,4.42,28.44-4,3.13-3.15,4.22-10.72,9.63-12.07,11.37-2.8,32.08,17.57,43,21.25,12.47,4.19,29,5.15,42.28,7,9.76,1.36,19.61-.17,29.4,1.51s16.6,4.54,26.27,3.57c8.71-.87,16.57-4.77,25.43-5.23,17.87-.94,33.18,6.19,50.06,9.46,11.06,2.15,14.38-2.49,24.4-4.56s17.69,4,25.69,8.63c6.7,3.94,17.68,18.7,25.84,17.32,11.46-1.94,7.91-14.64,15.37-19.82,7-4.85,26.24,3.86,33.67,4.38,11.1.78,19.45,1.34,30.73-2.22l30.34-13.38q41.48-2.91,55.73-37.65-100.52-92.11-230.64-143a2598.62,2598.62,0,0,0-470.7-158.06q-253.9-59.33-502.54-136.65Q899.54,891.51,748.44,824.19q-102.69-42.66-204.19-87.83a489.54,489.54,0,0,0-153-51.77,178.69,178.69,0,0,0-96.53,41.1q-65.46,39.9-131.43,79.06-44.67,25-41.1,73.09a247.53,247.53,0,0,0,15.16,65.4c8,23.45,12.11,49.09,22.56,71.62,7.33,15.76,14.86,27.71,17.8,45C181.67,1083.32,177.34,1099.8,173.73,1068.66Z"/><path class="cls-24" d="M123.48,1199.53c7,10.7,16.07,32.49,28.87,40.13,5.41,3.23,11.56,3.77,16.62,8.08,7.1,6,13.59,18.2,18.74,25.65,5.72,8.3-.14,6.35,11,8.52,9.78,1.92,13,1.31,20.44,9.71,7.09,8,11.65,17.61,18.61,25.53,6.24,7.06,11.65,11,20.11,14.42,10.05,4.07,20.77,4.7,31.26,9.57,19.88,9.24,46.39,20.14,68.95,12.48-15.15-10-43.62-21.45-52.73-38.74s10.2-13.78,19.07-8.72,19.36,13.13,30.16,14.77c7.61,1.16,9.85-.08,16.46,3.24,1.54.78,7.26,5.22,8.7,6.17,11,7.3,22.4,9.55,25.36,24.25.87,4.32.51,10.13,1,14.64,1,9.91,4.31,5.14-2.51,13.21-2.94,3.48-7.38,6-10.14,9.58s-3.62,8.16-6.78,11.39c16.52-1.45,36.85-2.67,49.72-13.71,13.72-11.75,22.33-18.78,41.77-13.55,11.54,3.12,19.45,9.11,28.59,16,8.85,6.65,10.17,4.64,21.22,5.86,7.58.83,25.61,9.82,23.32,20-1.83,8.16-17.69,4.58-24.32,4.32,12.44,6.87,24.86,4.9,38.67,5.08,6,.07,12.28,1.51,16.66-3.41,7.66-8.63-5.09-13.55-12.19-18.81-9.19-6.83-17.07-12.49-16.68-23.86.2-5.59,5.07-12.94,2.44-18.74-6.86-15.18-52.59-14-55-30.79,15.47-7.55,14.51-19.34,35-15.88,23.69,4,31.76,26.74,48.86,39.27,9.23,6.77,16.55,5.93,21.22,17.6,2,5,2.64,10.79,4.82,15.82,3.44,7.92,5.85,8.86,12.28,14.76,11.24,10.37,5.8,10.32,4,24.14-1.31,9.88,6,11,15.18,13.37s19.1.21,28.65,2c15.37,2.94,28.45,12.13,44.76,8-1.44-14.67,22.69-19.41,34.74-22.44,8.61-2.16,13.55-.91,20.1-6.91,4.11-3.76,7.08-9.61,11.17-13.67,6.7-6.65,24-15.79,34.42-8.74,4.15,2.83,7.54,18.82,10.82,23.37,15.34,21.23,48.36,15.1,70.36,25.1,6.81,3.08,12.53,10.36,19.08,14,10.19,5.73,8.87,4.6,17.31,1,11.46-5,16-10.21,28.64-12-2.24-10.06-32.79-10.16-29.92-22.52,14.62-4.93,33.84,1.24,46,8.94,4.32,2.73,8.12,7.13,12.36,9.28,4.64,2.34,12,3.23,17.19,5.26,20,7.87,39.8,7.55,60.39,13.33,8.94,2.55,16.63,4.61,25.69,5.81,14.66,2,27.76,9,42.49,10.16,9.67.76,12.29-1.29,19.51-5,7.65-4,20.1-7.61,26.39-13.4-6.12-7.33-23.73-8.54-32.84-10.87,12.16-3.37,25.45-3,36.93-7,4.77-1.67,8.59-5.55,13.06-7.62,9.21-4.31,17-4.23,27.14-4.78,15.84-.87,30.65-7.22,46.48-3.7,10.38,2.29,21.22,2.29,31.38,4.83,8.21,2,15.31,4.4,23.9,5q.94,3.52,4,2.83a7.93,7.93,0,0,0,7-2.81c4.7-.56,7.54-1.53,12.5-.85,15,2.08,15.57,5.75,30.15-.32,20.11-8.39,37.39-9.59,58.75-6.06,13.63,2.26,21.15,2.6,33.58,9.79,8.07,4.67,15.06,7.94,24.88,9.7,11.61,2,21.91,1.38,33.29-1.34,10.45-2.48,20.7-2.23,31.12-4.88,7.82-2,11.68-2.08,19.61-1.41,19.65,1.66,37.42,4.09,57.36,4.11,24.16,0,47.65-6.48,71.85-5.56,19,.77,37.17,6.93,56,9,17.71,2,35.44,2.78,53.09,5.56a644.87,644.87,0,0,1,97.46,23.65L1971.1,1499q37.43-.39,47.47,26.87c-58.61,6.62-117.53,12.07-175.92,20.14-114.94,15.91-224.66,52.21-338,75-100.41,20.19-202.32,30-304,42.52-131.89,16.17-263.8,34.25-396.32,45.29-231.67,19.42-467.53,18.17-698.54-8.37-25.3-2.91-64-2.15-82.9-21.63-22.07-22.65-21.4-67.1-22.5-95.19-2.23-55.91,5-110.94,23-164.38,14.52-43.14,41.22-84.69,65.69-123.21,10.38-16.34,20.17-32.61,30.89-48.77,14-21.06,14.13-45.49,25-67.14C146.08,1180.14,147.32,1180.14,123.48,1199.53Z"/></g><g class="cls-25"><path class="cls-26" d="M360.62,1008.43a786.92,786.92,0,0,0,143.07,2.9c13.71-.94,27.71-4.5,41.24-2.16,21.69,3.83,43.79,2.9,65.66,4.44a8,8,0,0,0,1.37.42c4,1.07,8.32.65,12.51.91,43.86,2.72,87.51-4.31,131.4-1.28,38.65,2.63,77.44,1.35,116.14.84,22.33-.29,44.84-2.33,61-15h0c9.45-2,15.69-8.37,26.24-8.92a94,94,0,0,0,9.84,2.09c31.53,3.45,63.18,3,94.87,1.26,20.35-1.14,39.09-5.47,57.47-11.41,7.22-2.34,13.24-6.47,21.71-7.09,4.46,2.62,10.64,2.67,15.45,4.75h0c5.69,3.77,13,3.77,20.2,4,17.82.5,35.63-1.08,53.44.08h0c19.13,8.77,47.26,9.3,62.38.58,12.16-7,23.9-9,39.55-4.42,22.51,6.53,46.75,7.21,70.35,2.81,12.59-2.34,24.23-7,36.28-10.62,26.08-.35,52.16,1.18,78.17-3.17a172.8,172.8,0,0,1,44.17-1.08c15.4,1.43,30.82,0,46-2,3.19-.44,6.12-1.36,6.93-3.77.75-2.16-1-3.87-3.7-4.73-18.75-6-36.14-13.83-55.77-18.61h0c-12.9-7.28-28.79-7.66-44.35-8.77-3.35-.25-7.54.25-9.35-2.16-7.47-10-21.37-15.82-32.66-23.28-11.6-7.67-41.57-7.41-52.24-.22h0l-5.59,1.31h0c-8.13.8-12.18-3.68-17.76-6.21-19.37-8.82-34.17-22.65-61.14-22.94-24.64-.28-49.06-.79-72.71,4.87a72,72,0,0,1-18.71,1c-10.28-1-20.63-1.93-31-2.15-8.13-.16-13.41-1.56-14.22-7.55-.38-2.81-3.55-4.87-5.32-7.27-8.06-11-24.5-15.29-37.3-22.52-16.58-9.37-35.27-15.63-56.59-15.62-19.28,0-34.12-3.63-44.55-14.67a2.72,2.72,0,0,0-.78-.34h0c-15.35-12.24-34.83-18.66-58.41-21-38.21-3.75-75.94-1.54-113.63,2.44-4.66.48-9.29,1.6-13.53-.78h0a25.17,25.17,0,0,0-7.16-18.83c-4.95-5.39-11.35-9.54-17.6-14-23.45-16.8-52.15-18.88-83.49-14.4h0l-2.23,1.15h0c-15.9,2.82-29-1.38-41.32-7.55-1.12-.77-2.08-1.59-3.22-2.31-11.47-7.25-27.12-8.76-40.49-13.38-32.21-11.15-65.89-17.91-102.75-16.39-40.58,1.69-77.51,10.26-111.6,25-7.82,3.41-14.64,8.63-24.33,9.35a166.53,166.53,0,0,0-52.33,11.87c-7.36,3-15.43,5.82-19.76,11.39h0c-2.47,2.74-7.58,4.14-8.88,7.36-2.24,5.5-7.59,5.39-14.67,5-33.39-1.59-66.31-.89-95.76,12.06-9.18,3.38-18.16,7-24.71,12.68V970.08c.69.51,1.41,1,2.12,1.5-.7-.08-1.4-.18-2.12-.22V979c14,3.23,26.38,9.87,40.45,12.14C291.55,996.77,325.39,1004.43,360.62,1008.43Z"/><path class="cls-27" d="M1657.57,956.14c-11.17-2.1-21.75-4.43-33.16-2.89l-5.29,1.22c-3,.71-6.18,1.24-9.14,2.07-4.33,1.23-8,3.61-12.57,4.92-2.34.67-5.65,2-7.75,2.45-2.78.58-5.52-.2-7.35,1.7-7.14-2.61-17.43-5-25.82-4.64-3.35.14-5.24,1.08-8.42,1.54-2.42.34-5-.25-7.3.07s-3.5,1.42-5.81,1.78c-2.8.43-5.65.21-8.54.72-5,.89-10.55,1.91-15.64,2.52-5.73.68-10.43-.7-15.63-1.56-2.36-.37-6.17-1.24-8.48-1.45-3.47-.32-2.75.52-5.29.95a62.59,62.59,0,0,1-6.7.31c-3.48.24-5.59,1.17-8.94,1.71-9.48,1.51-21.59,5.18-32,3.24-7.48-1.36-17.87-8.08-15.57-13.09,3.07-6.64,13.49-10,22.09-12.81,2.23-.75,10.91-2.15,7.71-4.77-1.64-1.37-14-.41-16.52-.32-24.57.92-37,22.5-22,35.14-4.12-.53-7.31-3.34-11.74-3.89s-10.13,1.17-14.44,2.47c-6.22,1.85-6.86,2.16-12.56.84-4.19-1-9.69-3-14-3.31-4.47-.36-7,1.28-12,1.28a35.14,35.14,0,0,1-12-2c-4.12-1.41-7.35-3.37-11.93-4.15-6.95-1.2-14.51-.66-21.64-1.63-6.77-.92-16.25-1.34-22.33.78-4.26,1.47-10,6-14.42,6.68-6.43,1.08-4.76-5-3.93-8.07,2.15-8.07,11.17-12.7,19.11-18.1,4.16-2.85,7.2-5.81,2.41-9.37a14.22,14.22,0,0,0-13.33-1.7c-4.89,1.68-14.11,8.55-15.63,12.36-.63,1.59.11,3.24-.29,4.86-.48,1.9-2.47,3.13-2.23,5.21,1-3.77-3.7-8-7.69-10.45-3.76-2.37-5.18-2.88-3.74-6.58.85-2.15,4.38-2.85-1.51-3.77-7.69-1.21-17.5,6.35-21.1,9.57-5.65,5-7.24,8.83-3.35,14.84,3.25,5.1,7.69,6.35,13.57,9.86,2.68,1.6,8.41,4.32,9.3,6.18-14,3.09-28.64-4.08-41.85-5.8-7.47-1-15.06-2.45-22.52-3.23-5.78-.66-11.76.32-17.48-.28-6-.64-12.58-2.79-19.15-1.76-7.37,1.15-13.07,5.55-21.53,5-6.17-.41-9.62-2-16.4-1.4a144,144,0,0,0-36.47,7.55c-2.23.81-6.6,3.59-9.39,1.77-6.22-4.05,7.82-14,11.8-16.23,13.56-7.78,31.52-11.81,47.54-16.8,12.62-3.93,20.36-10,35.28-9.06,11.35.7,24.11,2.7,35.35-.17,4-1,4.77-3.43,8.54-4.6-9.21-8.06-32.14-6.48-45.35-5.59-9.86.64-17.13,2.65-26.3,5.06-5.06,1.32-13.76,5-18.84,5.07-2.16,0-4-.86-5.58-.86-6.28,0-12.9,2.79-18.58,4.32a80.5,80.5,0,0,1-16,3.23,55.23,55.23,0,0,0-8.52.81c-4.55,1-9.21,3.35-13.95,3.81-5.06.51-3.83-.11-5.51-2.88-1.79-2.94-5.45-5.88-7.05-8.63-2.12-3.74-.15-6.37,2.59-9.88,2.23-2.9,5.86-5.05,7.58-8.06,1.23-2.16.28-4,2.88-6,6.18-4.77,17.93-5.92,25.09-10.22-2-6.74-33.75,6.23-38.47,9.83,5.59-5.47,21.62-10.71,14.31-17.71-9.39-9-24.29,3.69-30.28,9.06-9.25,8.33-10.26,16.85-6.85,26.81,1.32,3.86,4.7,6.3,6.59,9.56-4.11,0-7.82-1.3-11.93-1.5-5.39-.28-9.48.76-14.7,1.39-8.14,1-22.43,2.16-29.86-1.08-3.15-1.38-4.14-3.4-6.48-5.29-7.15-5.83-21.21-8-30.82-10.79-11.08-3.12-23.35-9-35.81-8.07-13.59,1.08-26.6,5.79-35.27,12.73q3.09,3.24,9.24-.11A86.78,86.78,0,0,1,876,925.64c12.15,1.49,24.69,5.3,36.63,7.64,13.87,2.72,24.25,7,33.78,14.41,3.36,2.58,3.36,4.13,4.47,7.33a8.63,8.63,0,0,1,1.52,7.69,31.77,31.77,0,0,1-15,4.92q-5.4.81-10.84,1.56a46.52,46.52,0,0,0-8,5.95c-5.43,3.54-12.81,6.82-20.41,6-8.46-1-10.75-4.43-20.2-2.5q-5.88,1.62-11.68,3.31a14,14,0,0,1-7-1.08c-6.77-.72-10,.41-12.07,5.58-2.24,5.91-3.92,9.9-13.4,12.46-6.22,1.7-12,0-18.06,1.23q-6.57,2.4-13.26,4.6a74.35,74.35,0,0,1-28.44.19,47.29,47.29,0,0,1-21.41-6.63q-5.14-9.13.3-18.46a62.56,62.56,0,0,1,18-20.95c4-1.55,6.11-3.7,6.24-6.47-7.82-4.85-16.07,3.23-20,6.72a102.16,102.16,0,0,0-16,18.25A10.13,10.13,0,0,0,738.2,984c.82,3.7,4.82,7,6.59,10.79-7,1.86-22.07-1.62-28.11-3.13-6.9-1.74-11.53-4-12.41-9.29-.39-2.38,1.83-7.4-3.35-7.67-10.36,6.65-14.52,16.26-3.62,24-8.35.36-17.87-5.2-22-9L665.45,978q-6.48-13.11,5-23.68c14-19.11,41.1-30.56,71-36.17-2-5.81-22.19-.6-26.63.4-12.28,2.77-27.27,6.19-36.18,12.82a9.87,9.87,0,0,0,4.64-4.58c-12.47-2.78-25.92,4.39-36.58,8.32-6.81-3.91-4.79-17.95-4.17-21.77,2.15-13.44,11.16-26.59,24.56-36.6,4.17-3.11,12.29-10.9,19.29-10.43,2.48.16,4.09,1.47,6.59,1.48-18-1.87-36.93,2.83-46.14,13.66l-8.3,12.61a107.77,107.77,0,0,0-11.07,17.27c-2.48,10.09,11,16.3,15.11,25.31-14.41-2.65-26.21,2.34-39.18,5.76-4.27,1.08-11.16,1.33-14.9,3.24-4,2-7.42,8.14-8.18,11.06-5.14,19.67,35.87,19.32,53.61,22.36-6,6.54-30.83,6.47-38.22,6q-11.9-1.49-23.64-3.44-17.29-2.89-34.94-4.66c-20.78-3.43-54.73-7.14-39.68-27.79l16-14.29q16.85-3.24,14.52-12.23l-17.29.63q-22.53,1.19-30.58,13.91-10.92,6.36-4.29,15.09.61,10.14,10.62,17.91c-4.28,2.56-10.67,1.17-15.88,1.17-14.51,0-28.79-.66-43.3-1.08-10.7-.27-14.06,1-23.25,3.08-6.65,1.52-14.39,1.79-21.69,3.14q-.74,6.47,9,6.81a38.77,38.77,0,0,0,12.89,2.44c-22.28-3.53-43.84-8-65.52-12.94C322,969,305.08,965.51,289.45,960q14.64-4.62,29.85-8.29a141.17,141.17,0,0,0,38-21.86l17.29-6.41q24.88-1.7,49.26-5.46,12.39-3,20.05-9.77,7.49-7.16,21.82-7.75a290.88,290.88,0,0,0,71-23.11q16.39-5,20.43-15.52c-21.16,4.88-43.88,8.17-64,14.72-9.2,3-18.19,6.18-27.83,8.45a71.29,71.29,0,0,1-13.67,2.54q-8.31,2.94-13.77-2.57L443.42,873a75.25,75.25,0,0,1,22.07-19.27c2.68-1.77,16.29-8,12.6-11.32-20.68.43-48.56,10.49-54.22,25.06-4.24,10.91,3.35,19.9,12.69,28.44-12.17,7-40.13,19.1-57,13.79-8.86-2.78-9.65-4.89-19-5.1-23.1-.49-26.71-13.93-37.6-24.51L318.19,887q-2.69,10.93,7.31,18.72c5.15,5.21,9,6.41,17,9.07-7.9,7.66-24.64,6.56-36.59,7a97.87,97.87,0,0,1-19.81,0,29.35,29.35,0,0,0-5.87-2c-6.55,5.39-1.12,11.86-5.92,17.53-8.63.69-10.77-7-12.62-11.08a38.69,38.69,0,0,1,9.05-44.36l27.67-19L333,850.19q18.08-2.82,30.89-11.15,8.56-2.16,3.15-6.88a61.06,61.06,0,0,0-29.6,3.71l-17.87,5.07c-21,5.94-41.42,12.81-59.5,22.26-15.89,8.26-19.66,18.44-16.74,31.49,1.7,7.55,6.21,16.06,2.94,23.66-2.59,6-8,7.26-14.87,10.79-9.71,5-19.93,1.24-31.12-.87L177.88,924q-38.67-2.49-37.72,28l-4.92,49.89q-4.26,40.75-4.85,81.59,16.46,28,60.12,32.7,70.56,23.07,151.34,20.18,116.14.84,232.29.64,139.93-.2,279.85.93c192.48-1.51,384.43-12.22,575.7-26.28q103.69-5.7,205.75-19l26-10.05q17.8-22.46,14.08-48.11l-7.37-24.92q-6.82-11.07-4.83-22.71l-.07-4.58c-1-6.36-4.91-12.14-7.82-18.12C1651.59,956.38,1651.47,948,1657.57,956.14Z"/></g><rect class="cls-28" x="215.8" y="205.03" width="4288.34" height="2586.71"/></g><g id="Layer_3" data-name="Layer 3"><polygon class="cls-29" points="3137.23 1965.66 3073.58 1965.66 3073.58 1989.49 3046.78 1989.49 3046.78 2214.59 3187.49 2214.59 3187.49 1989.49 3137.23 1989.49 3137.23 1965.66"/><polygon class="cls-30" points="2775.41 1750.27 2748.6 1750.27 2748.6 1789.99 2711.75 1789.99 2711.75 1937.41 2617.94 1937.41 2617.94 2076.89 2514.08 2076.89 2514.08 2262.26 2748.6 2262.26 2748.6 2214.59 2839.06 2214.59 2839.06 1789.99 2775.41 1789.99 2775.41 1750.27"/><polygon class="cls-31" points="1854.08 1937.41 1762.51 1937.41 1762.51 1965.66 1746.87 1965.66 1746.87 2181.93 1875.3 2181.93 1875.3 1965.66 1854.08 1965.66 1854.08 1937.41"/><rect class="cls-32" x="4272.97" y="1789.99" width="107.21" height="399.87"/><polygon class="cls-33" points="4172.47 1764.4 3971.45 1764.4 3971.45 2169.57 4098.76 2169.57 4172.47 2169.57 4246.17 2169.57 4246.17 1911.81 4172.47 1911.81 4172.47 1764.4"/><rect class="cls-34" x="3395.2" y="2002.74" width="138.48" height="238.34"/><rect class="cls-35" x="1168.39" y="1989.49" width="184.26" height="272.76"/><polygon class="cls-36" points="1921.09 2214.59 2095.3 2214.59 2095.3 1789.99 1921.09 1764.4 1921.09 2214.59"/><rect class="cls-37" x="916.01" y="1764.83" width="155.23" height="504.92"/><polygon class="cls-38" points="612.25 2074.23 490.52 2074.23 490.52 2320.52 726.16 2320.52 726.16 2214.59 726.16 2074.23 726.16 1939.18 612.25 1939.18 612.25 2074.23"/><path class="cls-39" d="M4504.14,1985.55H4487.3v-60.78H4356.9v48h-42.07v99.14h-96.76v-44.78H4155v-89.51H4007.76V1576.18h-50.49v-60.77H3852.1v54.37h-50.48v521.33l-25.23,19.2v-48h-75.72V1697.72h-66.6v-48h-88.34v48h-50.48s-.13,421.79,0,422.19c2.42,7.29-71.47,0-71.47,0v-64h-63.09v-83.15l-29.45-3.24v-316.6l-96.75-96-88.34,105.56v463.75h-63.1V1982.37h-75.72V1736.09h-26.46v-17.56h-88.51v17.56h-23.88v265.47H2616.09v143.93H2574V1956.75H2447.84V1745.69H2377v-27.16h-51.53v27.16h-29V2017.9h-42.07V1713.77H2136.53v124.67h-58.9V2126.3h-50.47V2008h-24.37v-19.64H1826.92V2008H1800v54.37h-88.34v-291h-25.94V1686.8H1670.1v-97.32h-80.67v97.32h-17.86v84.49h-28.06v355h-37.86V1716.92H1349.9v41.57h-75.72v367.77h-50.47v-64l.42-462.27L1026,1694.47v348.67H979.73V1940.79H912.42v-201.5H769.36v363.59l-106.58-2.16v65.35H568.72V1832.81H407.39v216.88H215.8v743.75H4504.14Z"/></g></svg>